<svg id="Layer_1" data-name="Layer 1" xmlns="http://www.w3.org/2000/svg" viewBox="0 0 1431 660"><defs><style>.cls-1,.cls-10,.cls-11,.cls-12,.cls-13,.cls-14,.cls-15,.cls-16,.cls-17,.cls-18,.cls-19,.cls-2,.cls-20,.cls-21,.cls-22,.cls-23,.cls-24,.cls-25,.cls-26,.cls-27,.cls-28,.cls-29,.cls-3,.cls-30,.cls-31,.cls-32,.cls-33,.cls-34,.cls-35,.cls-36,.cls-37,.cls-38,.cls-39,.cls-4,.cls-40,.cls-41,.cls-42,.cls-43,.cls-44,.cls-45,.cls-46,.cls-47,.cls-48,.cls-49,.cls-5,.cls-50,.cls-6,.cls-7,.cls-8,.cls-9{fill:#cbf892;}.cls-1{opacity:0.57;}.cls-1,.cls-10,.cls-11,.cls-12,.cls-13,.cls-14,.cls-15,.cls-16,.cls-17,.cls-18,.cls-19,.cls-2,.cls-20,.cls-21,.cls-22,.cls-23,.cls-24,.cls-26,.cls-27,.cls-28,.cls-29,.cls-3,.cls-30,.cls-31,.cls-32,.cls-33,.cls-34,.cls-35,.cls-36,.cls-37,.cls-38,.cls-39,.cls-4,.cls-40,.cls-41,.cls-42,.cls-43,.cls-44,.cls-45,.cls-46,.cls-47,.cls-48,.cls-49,.cls-5,.cls-50,.cls-6,.cls-7,.cls-8,.cls-9{isolation:isolate;}.cls-2{opacity:0.77;}.cls-3{opacity:0.58;}.cls-4{opacity:0.9;}.cls-5{opacity:0.86;}.cls-6{opacity:0.94;}.cls-7{opacity:0.62;}.cls-8{opacity:0.92;}.cls-9{opacity:0.78;}.cls-10{opacity:0.61;}.cls-11{opacity:0.7;}.cls-12{opacity:0.82;}.cls-13{opacity:0.87;}.cls-14{opacity:0.55;}.cls-15{opacity:0.88;}.cls-16{opacity:0.52;}.cls-17{opacity:0.75;}.cls-18{opacity:0.89;}.cls-19{opacity:0.84;}.cls-20{opacity:0.67;}.cls-21{opacity:0.63;}.cls-22{opacity:0.99;}.cls-23{opacity:0.65;}.cls-24{opacity:0.81;}.cls-26{opacity:0.6;}.cls-27{opacity:0.56;}.cls-28{opacity:0.66;}.cls-29{opacity:0.95;}.cls-30{opacity:0.83;}.cls-31{opacity:0.96;}.cls-32{opacity:0.69;}.cls-33{opacity:0.8;}.cls-34{opacity:0.5;}.cls-35{opacity:0.76;}.cls-36{opacity:0.93;}.cls-37{opacity:0.71;}.cls-38{opacity:0.64;}.cls-39{opacity:0.51;}.cls-40{opacity:0.72;}.cls-41{opacity:0.85;}.cls-42{opacity:0.98;}.cls-43{opacity:0.68;}.cls-44{opacity:0.73;}.cls-45{opacity:0.54;}.cls-46{opacity:0.53;}.cls-47{opacity:0.91;}.cls-48{opacity:0.79;}.cls-49{opacity:0.74;}.cls-50{opacity:0.59;}</style></defs><path class="cls-1" d="M386.27,293.35l-19.71-11.49v-23l.22-.11,19.49-11.36L406,258.88v23l-.18.11Zm-18.88-12,18.88,10.93,18.88-11V259.38l-18.88-11-18.88,11Z"/><path class="cls-2" d="M77.58,360.77l-.2-.13L0,315.59V225.16L.2,225l77.38-45.11.21.13,77.38,45.11v90.43l-.21.13ZM.81,315.13l76.77,44.73,76.75-44.73V225.71L77.58,180.88.81,225.71Z"/><path class="cls-3" d="M77.58,293.35,58,281.86v-23l.2-.11,19.51-11.36,19.71,11.47v23l-.22.11Zm-18.87-12,18.87,10.93,18.88-11V259.38l-18.88-11-18.87,11Z"/><path class="cls-4" d="M231.92,585.74l-39-22.74V517.54l.21-.13L232,494.81l39,22.73V563l-.2.11Zm-38.17-23.22,38.17,22.2,38.18-22.2V518l-38.18-22.2L193.75,518Z"/><path class="cls-5" d="M231.92,630.71,154.26,585.5V495.05l.2-.11,77.38-45.11,77.66,45.22V585.5l-.2.11ZM155.17,585l76.75,44.73L308.69,585V495.53l-76.77-44.74-76.75,44.74Z"/><path class="cls-6" d="M386.27,360.77l-.2-.13L231.51,270.56V90.21l.2-.13L386.27,0l.2.11L541,90.21v180.4l-.22.11ZM232.34,270.11l153.93,89.73L540.2,270.11V90.65L386.27,1,232.34,90.65Z"/><path class="cls-7" d="M231.92,180.88l-.21-.13-77.38-45.08V45.22l.21-.11L231.92,0l.2.11L309.5,45.22v90.45l-.2.11Zm-76.75-45.69,76.75,44.73,76.77-44.73V45.7L231.92,1,155.17,45.7Z"/><path class="cls-8" d="M540.62,360.77l-.2-.13L463,315.53V225.16l.2-.13,77.38-45.11.19.13,77.38,45.11v90.43l-.21.13Zm-76.77-45.7,76.77,44.73,76.75-44.73V225.71L540.62,181l-76.77,44.73Z"/><path class="cls-9" d="M386.27,405.8l-39-22.72V337.6l.2-.11,38.83-22.62,39,22.73v45.48l-.2.11Zm-38.16-23.22,38.16,22.2,38.18-22.2v-44.4L386.27,316l-38.16,22.2Z"/><path class="cls-10" d="M231.92,293.35l-19.69-11.49v-23l.2-.11,19.49-11.36,19.71,11.47v23l-.21.11Zm-18.88-12,18.88,10.93,18.88-11V259.38l-18.88-11-18.88,11Z"/><path class="cls-11" d="M540.62,315.83,501.7,293.11V247.63h.19L540.72,225l39,22.72V293.2l-.2.13Zm-38.18-23.22,38.18,22.2,38.17-22.2v-44.4L540.62,226l-38.18,22.2Z"/><path class="cls-12" d="M540.62,540.76l-.2-.13L463,495.53V405.17l.2-.13,77.38-45.11.19.13,77.38,45.11V495.6l-.21.11Zm-76.77-45.71,76.77,44.75,76.75-44.75V405.56l-76.75-44.79L463.85,405.5Z"/><polygon class="cls-1" points="283.82 660 232.34 630.01 232.34 450.53 386.27 360.82 540.2 450.53 540.2 630.01 488.72 660 490.37 660 540.81 630.6 541.03 630.47 541.03 450.07 386.47 359.99 386.27 359.86 231.73 449.94 231.51 450.07 231.51 630.47 282.17 660 283.82 660"/><polygon class="cls-13" points="336.01 660 386.27 630.71 436.51 660 438.15 660 386.27 629.75 334.37 660 336.01 660"/><polygon class="cls-14" points="232.34 660 232.34 630.47 386.27 540.76 540.2 630.47 540.2 660 541.03 660 541.03 630.01 386.47 539.91 386.27 539.8 231.73 629.88 231.51 630.01 231.51 660 232.34 660"/><path class="cls-15" d="M386.27,630.71,308.61,585.5V495.05l.21-.11,77.38-45.11,77.65,45.22V585.5l-.22.11ZM309.5,585l76.77,44.73L463,585V495.53l-76.75-44.74L309.5,495.53Z"/><polygon class="cls-16" points="515.33 660 502.42 652.49 502.42 607.99 540.62 585.74 578.79 607.99 578.79 652.49 565.9 660 567.54 660 579.6 652.97 579.6 607.5 540.62 584.77 501.61 607.5 501.61 652.97 513.68 660 515.33 660"/><polygon class="cls-17" points="336.01 660 386.27 630.71 436.51 660 438.15 660 386.27 629.75 334.37 660 336.01 660"/><path class="cls-18" d="M386.27,113.41l-19.71-11.49V79l.22-.13,19.49-11.36L406,79v23l-.18.13Zm-18.88-12,18.88,11.1,18.88-11.1v-22l-18.88-11-18.88,11Z"/><path class="cls-19" d="M695,135.91l-39-22.74V67.71l.21-.11L695,45l39,22.73v45.46l-.2.13Zm-38.18-23.22L695,134.89l38.16-22.2V68.29L695,46.09l-38.18,22.2Z"/><path class="cls-20" d="M540.62,405.8,501.7,383.08V337.6l.19-.11,38.83-22.62,39,22.73v45.48l-.2.11Zm-38.18-23.22,38.18,22.2,38.17-22.2v-44.4L540.62,316l-38.18,22.2Z"/><path class="cls-21" d="M386.27,293.35l-19.71-11.49v-23l.22-.11,19.49-11.36L406,258.88v23l-.18.11Zm-18.88-12,18.88,10.93,18.88-11V259.38l-18.88-11-18.88,11Z"/><path class="cls-16" d="M386.27,473.27l-19.71-11.49v-23l.22-.13,19.49-11.32L406,438.84v22.94l-.18.13Zm-18.88-11.95,18.88,11.1,18.88-11.1v-22l-18.88-11-18.88,11Z"/><path class="cls-22" d="M695,540.76l-.21-.13-77.38-45.1V405.17l.21-.13L695,359.93l.2.13,77.38,45.11V495.6l-.2.11Zm-76.77-45.71L695,539.8l76.69-44.75V405.56L695,360.77l-76.77,44.79Z"/><path class="cls-16" d="M695,653.21l-19.69-11.49v-23L695,607.25l19.69,11.51v23Zm-18.88-12,18.88,11,18.88-11v-22l-18.88-11-18.88,11Z"/><polygon class="cls-23" points="618.19 660 618.19 585.5 694.96 540.76 771.73 585.5 771.73 660 772.54 660 772.54 585.02 695.16 539.91 694.96 539.8 617.58 584.9 617.38 585.02 617.38 660 618.19 660"/><path class="cls-22" d="M849.31,135.91l-39-22.74V67.71l.22-.11L849.35,45l38.94,22.73v45.46l-.19.13Zm-38.2-23.22,38.18,22.2,38.18-22.2V68.29L849.31,45.94l-38.18,22.2Z"/><path class="cls-2" d="M849.31,540.76l-.18-.13-77.48-45.1V405.17l.21-.13,77.45-45.18.22.13L927,405.17V495.6l-.22.11Zm-76.75-45.71,76.75,44.75,76.77-44.75V405.56l-76.77-44.79L772.56,405.5Z"/><polygon class="cls-24" points="592.51 660 541.03 630.01 541.03 450.53 694.96 360.82 848.9 450.53 848.9 630.01 797.43 660 799.05 660 849.51 630.6 849.72 630.47 849.72 450.07 695.16 359.99 694.96 359.86 540.42 449.94 540.2 450.07 540.2 630.47 590.86 660 592.51 660"/><path class="cls-25" d="M849.31,653.21l-19.69-11.49v-23l19.69-11.51L869,618.76v23Zm-18.86-12,18.86,11,18.9-11v-22l-18.9-11-18.86,11Z"/><polygon class="cls-21" points="463.85 660 463.85 585.5 540.62 540.76 617.38 585.5 617.38 660 618.19 660 618.19 585.02 540.81 539.91 540.62 539.8 463.24 584.9 463.04 585.02 463.04 660 463.85 660"/><path class="cls-3" d="M540.62,653.21l-19.71-11.49v-23l19.71-11.51,19.7,11.51v23Zm-18.89-12,18.89,11,18.88-11v-22l-18.88-11-18.89,11Z"/><polygon class="cls-26" points="463.85 660 463.85 585.5 540.62 540.76 617.38 585.5 617.38 660 618.19 660 618.19 585.02 540.81 539.91 540.62 539.8 463.24 584.9 463.04 585.02 463.04 660 463.85 660"/><polygon class="cls-26" points="644.72 660 694.96 630.71 745.2 660 746.84 660 694.96 629.75 643.08 660 644.72 660"/><path class="cls-7" d="M695,113.41l-19.69-11.49V79l.18-.13L695,67.47,714.65,79v23l-.2.13Zm-18.88-12L695,112.54l18.88-11.1v-22L695,68.45l-18.88,11Z"/><path class="cls-8" d="M695,293.35l-19.69-11.49v-23l.18-.11L695,247.41l19.69,11.47v23l-.2.11Zm-18.88-12L695,292.31l18.88-11V259.38l-18.88-11-18.88,11Z"/><path class="cls-27" d="M695,540.76l-.21-.13-77.38-45.1V405.17l.21-.13L695,359.93l.2.13,77.38,45.11V495.6l-.2.11Zm-76.77-45.71L695,539.8l76.69-44.75V405.56L695,360.77l-76.77,44.79Z"/><path class="cls-28" d="M1003.65,495.82l-39-22.72V427.57l.2-.13,38.83-22.6,39,22.73v45.48l-.21.11ZM965.46,472.6l38.19,22.21,38.18-22.21V428.05l-38.18-22.2-38.19,22.2Z"/><path class="cls-29" d="M849.31,630.71,771.65,585.5V495.05l.21-.11,77.45-45.11L927,495.05V585.5l-.22.11ZM772.56,585l76.75,44.73L926.08,585V495.53l-76.77-44.74-76.75,44.74Z"/><path class="cls-30" d="M1003.65,540.76l-.21-.13L848.9,450.53V270.11l.21-.11,154.54-90.1.2.13,154.55,90.08v180.4l-.2.13ZM849.72,450.11l153.93,89.73,153.94-89.73V270.65l-153.94-89.73L849.72,270.65Z"/><path class="cls-31" d="M849.31,293.35l-19.69-11.49v-23l.2-.11,19.49-11.36L869,258.88v23l-.2.11Zm-18.86-12,18.86,10.93,18.9-11V259.38l-18.9-11-18.86,11Z"/><path class="cls-32" d="M1158.09,360.77l-.22-.13-77.44-45.05V225.16l.19-.13,77.47-45.11.2.13,77.38,45.11v90.43l-.2.13Zm-76.77-45.7,76.77,44.79,76.77-44.73V225.71l-76.77-44.83-76.86,44.83Z"/><path class="cls-14" d="M1003.65,585.74l-39-22.74V517.54l.2-.13,38.83-22.6,39,22.73V563l-.21.11Zm-38.19-23.22,38.19,22.2,38.18-22.2V518l-38.18-22.2L965.46,518Z"/><path class="cls-33" d="M1003.65,450.79l-.21-.13-77.38-45.1V315.13l.21-.13,77.38-45.11.2.13,77.38,45.11v90.43l-.21.13ZM927,405.17l76.75,44.73,76.71-44.73V315.59l-76.78-44.74L927,315.59Z"/><polygon class="cls-34" points="953.39 660 1003.64 630.71 1053.9 660 1055.55 660 1003.64 629.75 951.74 660 953.39 660"/><polygon class="cls-35" points="772.54 660 772.54 585.5 849.29 540.76 926.06 585.5 926.06 660 926.89 660 926.89 585.02 849.51 539.91 849.29 539.8 771.93 584.9 771.73 585.02 771.73 660 772.54 660"/><path class="cls-36" d="M1003.65,630.71,926,585.5V495.05l.2-.11,77.38-45.11,77.66,45.22V585.5l-.21.11ZM927,585l76.75,44.73L1080.43,585V495.53l-76.77-44.74L927,495.53Z"/><polygon class="cls-20" points="1132.7 660 1119.82 652.49 1119.82 607.99 1158 585.74 1196.16 607.99 1196.16 652.49 1183.27 660 1184.9 660 1196.99 652.97 1196.99 607.5 1158 584.77 1118.98 607.5 1118.98 652.97 1131.08 660 1132.7 660"/><polygon class="cls-27" points="953.39 660 1003.64 630.71 1053.9 660 1055.55 660 1003.64 629.75 951.74 660 953.39 660"/><path class="cls-37" d="M1003.65,113.41l-19.71-11.49V79l.2-.13,19.51-11.36L1023.36,79v23l-.23.13Zm-18.88-12,18.88,11.1,18.87-11.1v-22l-18.87-11-18.88,11Z"/><path class="cls-21" d="M1003.65,180.88l-.21-.13-77.38-45.08V45.22l.21-.11L1003.65,0l.2.11,77.38,45.11v90.45l-.21.11ZM927,135.19l76.75,44.73,76.71-44.73V45.7L1003.65,1,927,45.7Z"/><path class="cls-36" d="M1312.33,180.88l-.2-.13-77.36-45.08V45.22l.18-.11L1312.33,0,1390,45.22v90.45l-.2.11Zm-76.75-45.69,76.75,44.73,76.75-44.73V45.7L1312.33,1,1235.58,45.7Z"/><path class="cls-38" d="M1312.33,360.77l-77.56-45.24V225.16l.18-.13,77.38-45.11L1390,225.16v90.43l-.2.13Zm-76.75-45.7,76.75,44.73,76.75-44.73V225.71L1312.33,181l-76.75,44.73Z"/><path class="cls-18" d="M1158.09,540.76l-.22-.13-154.54-90.1V270.11l.2-.11,154.56-90.08.2.13,154.47,90.06v180.4l-.21.13Zm-153.93-90.65,153.93,89.69L1312,450.07V270.61l-153.93-89.73-153.93,89.73Z"/><path class="cls-23" d="M1003.65,293.35l-19.71-11.49v-23l.2-.11,19.51-11.36,19.71,11.47v23l-.23.11Zm-18.88-12,18.88,10.93,18.87-11V259.38l-18.87-11-18.88,11Z"/><path class="cls-7" d="M1003.65,473.27l-19.71-11.49v-23l.2-.13,19.51-11.32,19.71,11.47v22.94l-.23.13Zm-18.88-11.95,18.88,11.1,18.87-11.1v-22l-18.87-11-18.88,11Z"/><path class="cls-22" d="M1312.33,653.21l-19.71-11.49v-23l19.71-11.51L1332,618.76v23Zm-18.88-12,18.88,11,18.9-11v-22l-18.9-11-18.88,11Z"/><path class="cls-16" d="M1158.09,293.35l-19.71-11.49v-23l.2-.11,19.51-11.36,19.69,11.47v23l-.2.11Zm-18.9-12,18.9,10.93,18.88-11V259.38l-18.88-11-18.9,11Z"/><path class="cls-39" d="M1158.09,360.77l-.22-.13-77.44-45.05V225.16l.19-.13,77.47-45.11.2.13,77.38,45.11v90.43l-.2.13Zm-76.77-45.7,76.77,44.79,76.77-44.73V225.71l-76.77-44.83-76.86,44.83Z"/><polygon class="cls-23" points="1431 518.99 1389.92 495.05 1389.92 405.56 1431 381.6 1431 380.67 1389.31 404.97 1389.08 405.1 1389.08 495.53 1431 519.95 1431 518.99"/><path class="cls-39" d="M1312.33,630.71l-77.56-45.21V495.05l.18-.11,77.38-45.11L1390,495.05V585.5l-.2.11ZM1235.58,585l76.75,44.73L1389.08,585V495.53l-76.75-44.74-76.75,44.74Z"/><polygon class="cls-23" points="1431 474.01 1428.5 472.55 1428.5 428.06 1431 426.59 1431 425.65 1427.89 427.44 1427.69 427.57 1427.69 473.05 1431 474.95 1431 474.01"/><polygon class="cls-40" points="1262.08 660 1312.33 630.71 1362.59 660 1364.23 660 1312.33 629.75 1260.43 660 1262.08 660"/><polygon class="cls-32" points="1081.23 660 1081.23 585.5 1158 540.76 1234.77 585.5 1234.77 660 1235.58 660 1235.58 585.02 1158.2 539.91 1158 539.8 1080.62 584.9 1080.41 585.02 1080.41 660 1081.23 660"/><path class="cls-41" d="M1312.33,630.71l-77.56-45.21V495.05l.18-.11,77.38-45.11L1390,495.05V585.5l-.2.11ZM1235.58,585l76.75,44.73L1389.08,585V495.53l-76.75-44.74-76.75,44.74Z"/><polygon class="cls-24" points="1431 518.99 1312.76 450.07 1312.76 270.61 1431 201.7 1431 200.73 1312.13 270.02 1311.94 270.13 1311.94 450.53 1431 519.95 1431 518.99"/><polygon class="cls-38" points="1364.23 660 1312.76 630.01 1312.76 450.53 1431 381.6 1431 380.67 1312.13 449.94 1311.94 450.07 1311.94 630.47 1362.59 660 1364.23 660"/><polygon class="cls-25" points="1431 429.04 1389.92 405.1 1389.92 315.59 1431 291.67 1431 290.7 1389.31 315 1389.08 315.13 1389.08 405.56 1431 429.98 1431 429.04"/><polygon class="cls-42" points="1416.43 660 1431 651.51 1431 650.55 1414.79 660 1416.43 660"/><polygon class="cls-21" points="1416.43 660 1431 651.51 1431 650.55 1414.79 660 1416.43 660"/><polygon class="cls-41" points="1431 159.14 1389.92 135.19 1389.92 45.7 1431 21.76 1431 20.8 1389.31 45.1 1389.08 45.22 1389.08 135.67 1431 160.09 1431 159.14"/><polygon class="cls-43" points="1389.92 660 1389.92 585.5 1431 561.54 1431 560.58 1389.31 584.9 1389.08 585.02 1389.08 660 1389.92 660"/><path class="cls-24" d="M371.9,281.62a4.94,4.94,0,1,1-4.93-5A4.93,4.93,0,0,1,371.9,281.62Z"/><path class="cls-44" d="M391.19,292.87a4.94,4.94,0,1,1-4.92-5,4.94,4.94,0,0,1,4.92,5Z"/><path class="cls-35" d="M410.49,281.62a4.94,4.94,0,1,1-4.93-5,4.94,4.94,0,0,1,4.93,5Z"/><path class="cls-2" d="M82.5,360.34a4.92,4.92,0,1,1-4.92-5A4.92,4.92,0,0,1,82.5,360.34Z"/><path class="cls-36" d="M63.22,259.12a4.94,4.94,0,1,1-4.92-5A4.94,4.94,0,0,1,63.22,259.12Z"/><path class="cls-32" d="M275.42,562.76a4.92,4.92,0,1,1-4.88-5h0A4.93,4.93,0,0,1,275.42,562.76Z"/><path class="cls-16" d="M159.64,585.24a4.94,4.94,0,1,1-4.92-5,4.94,4.94,0,0,1,4.92,5Z"/><path class="cls-9" d="M314,495.29a4.92,4.92,0,1,1-4.92-5A4.91,4.91,0,0,1,314,495.29Z"/><path class="cls-24" d="M159.64,495.29a4.94,4.94,0,1,1-4.88-5A4.94,4.94,0,0,1,159.64,495.29Z"/><path class="cls-44" d="M236.85,270.37a4.94,4.94,0,1,1-4.93-5A4.93,4.93,0,0,1,236.85,270.37Z"/><path class="cls-21" d="M236.85,90.45a4.94,4.94,0,1,1-4.93-5,4.93,4.93,0,0,1,4.93,5Z"/><path class="cls-16" d="M314,135.43a4.92,4.92,0,1,1-4.92-5,4.92,4.92,0,0,1,4.92,5Z"/><path class="cls-9" d="M159.64,45.46a4.94,4.94,0,1,1-4.92-5,4.94,4.94,0,0,1,4.92,5Z"/><path class="cls-6" d="M391.19,405.34a4.94,4.94,0,1,1-4.92-5,4.94,4.94,0,0,1,4.92,5Z"/><path class="cls-30" d="M429.78,337.84a4.94,4.94,0,1,1-4.92-5,4.95,4.95,0,0,1,4.92,5Z"/><path class="cls-38" d="M352.6,337.84a4.92,4.92,0,1,1-4.92-5,4.92,4.92,0,0,1,4.92,5Z"/><path class="cls-18" d="M507,292.87a4.94,4.94,0,1,1-4.91-5,4.93,4.93,0,0,1,4.91,5Z"/><path class="cls-41" d="M545.54,315.37a4.94,4.94,0,1,1-4.92-5A4.94,4.94,0,0,1,545.54,315.37Z"/><path class="cls-22" d="M468.42,495.29a4.94,4.94,0,1,1-4.92-5A4.94,4.94,0,0,1,468.42,495.29Z"/><path class="cls-44" d="M545.54,630.23a4.94,4.94,0,1,1-4.92-5A4.93,4.93,0,0,1,545.54,630.23Z"/><path class="cls-22" d="M391.19,540.23a4.94,4.94,0,1,1-4.92-5A4.94,4.94,0,0,1,391.19,540.23Z"/><path class="cls-45" d="M507,652.73a4.94,4.94,0,1,1-4.91-5,4.93,4.93,0,0,1,4.91,5Z"/><ellipse class="cls-9" cx="386.27" cy="67.95" rx="4.92" ry="4.98"/><path class="cls-46" d="M584.13,382.82a4.94,4.94,0,1,1-4.94-5,4.94,4.94,0,0,1,4.94,5Z"/><path class="cls-22" d="M507,337.84a4.94,4.94,0,1,1-4.91-5,4.94,4.94,0,0,1,4.91,5Z"/><path class="cls-21" d="M371.9,281.62a4.94,4.94,0,1,1-4.93-5A4.93,4.93,0,0,1,371.9,281.62Z"/><path class="cls-24" d="M410.49,439.06a4.94,4.94,0,1,1-4.93-5,4.94,4.94,0,0,1,4.93,5Z"/><path class="cls-2" d="M622.72,495.29a4.94,4.94,0,1,1-4.94-5A4.94,4.94,0,0,1,622.72,495.29Z"/><path class="cls-45" d="M699.89,540.23a4.94,4.94,0,1,1-4.93-5A4.94,4.94,0,0,1,699.89,540.23Z"/><path class="cls-41" d="M777.07,495.29a4.94,4.94,0,1,1-5-5A4.94,4.94,0,0,1,777.07,495.29Z"/><path class="cls-27" d="M777.07,405.34a4.94,4.94,0,1,1-5-5,4.94,4.94,0,0,1,5,5Z"/><path class="cls-41" d="M699.89,360.34a4.94,4.94,0,1,1-4.93-5A5,5,0,0,1,699.89,360.34Z"/><path class="cls-10" d="M680.59,619a4.94,4.94,0,1,1-4.94-5,4.94,4.94,0,0,1,4.94,5Z"/><path class="cls-3" d="M854.23,45.46a4.94,4.94,0,1,1-4.92-5,4.94,4.94,0,0,1,4.92,5Z"/><path class="cls-2" d="M854.23,540.23a4.94,4.94,0,1,1-4.94-5,4.94,4.94,0,0,1,4.94,5Z"/><path class="cls-1" d="M545.54,630.23a4.94,4.94,0,1,1-4.92-5A4.93,4.93,0,0,1,545.54,630.23Z"/><path class="cls-47" d="M834.93,641.48a4.92,4.92,0,1,1-4.92-5,4.93,4.93,0,0,1,4.92,5Z"/><path class="cls-42" d="M526.24,641.48a4.92,4.92,0,1,1-4.92-5,4.93,4.93,0,0,1,4.92,5Z"/><path class="cls-4" d="M680.59,101.75a4.94,4.94,0,1,1-4.94-5,4.94,4.94,0,0,1,4.94,5Z"/><path class="cls-43" d="M699.89,247.91a4.94,4.94,0,1,1-4.93-5A4.93,4.93,0,0,1,699.89,247.91Z"/><path class="cls-29" d="M1008.56,495.29a4.92,4.92,0,1,1-4.91-5A4.91,4.91,0,0,1,1008.56,495.29Z"/><path class="cls-4" d="M931.39,495.29a4.92,4.92,0,1,1-4.92-5A4.92,4.92,0,0,1,931.39,495.29Z"/><path class="cls-6" d="M854.23,450.31a4.94,4.94,0,1,1-4.94-5,4.94,4.94,0,0,1,4.94,5Z"/><path class="cls-1" d="M854.23,270.37a4.94,4.94,0,1,1-4.94-5A4.94,4.94,0,0,1,854.23,270.37Z"/><path class="cls-40" d="M873.53,281.62a4.94,4.94,0,1,1-4.93-5A4.93,4.93,0,0,1,873.53,281.62Z"/><path class="cls-48" d="M1162.92,180.42a4.94,4.94,0,1,1-4.9-5h.07A4.94,4.94,0,0,1,1162.92,180.42Z"/><path class="cls-18" d="M1085.74,225.4a4.92,4.92,0,1,1-4.92-5A4.92,4.92,0,0,1,1085.74,225.4Z"/><path class="cls-45" d="M970,517.78a4.94,4.94,0,1,1-4.91-5,4.94,4.94,0,0,1,4.91,5Z"/><path class="cls-30" d="M1085.74,405.34a4.92,4.92,0,1,1-4.92-5,4.92,4.92,0,0,1,4.92,5Z"/><path class="cls-14" d="M1008.56,630.23a4.92,4.92,0,1,1-4.91-5,4.92,4.92,0,0,1,4.91,5Z"/><path class="cls-49" d="M854.23,540.23a4.94,4.94,0,1,1-4.94-5,4.94,4.94,0,0,1,4.94,5Z"/><path class="cls-1" d="M1085.74,585.24a4.94,4.94,0,1,1-4.92-5,4.94,4.94,0,0,1,4.92,5Z"/><path class="cls-11" d="M931.39,495.29a4.92,4.92,0,1,1-4.92-5A4.92,4.92,0,0,1,931.39,495.29Z"/><path class="cls-29" d="M1201.5,652.73a4.94,4.94,0,1,1-4.91-5A4.93,4.93,0,0,1,1201.5,652.73Z"/><path class="cls-22" d="M1162.92,585.24a4.94,4.94,0,1,1-4.92-5,4.94,4.94,0,0,1,4.92,5Z"/><ellipse class="cls-3" cx="1003.65" cy="67.95" rx="4.92" ry="4.98"/><path class="cls-23" d="M931.39,135.43a4.92,4.92,0,1,1-4.92-5,4.92,4.92,0,0,1,4.92,5Z"/><path class="cls-28" d="M1240.09,135.43a4.94,4.94,0,1,1-4.93-5,4.94,4.94,0,0,1,4.93,5Z"/><path class="cls-23" d="M1317.25,360.34a4.92,4.92,0,1,1-4.92-5,4.92,4.92,0,0,1,4.92,5Z"/><path class="cls-33" d="M1394.43,315.37a4.92,4.92,0,1,1-4.92-5,4.92,4.92,0,0,1,4.92,5Z"/><path class="cls-13" d="M989.28,281.62a4.92,4.92,0,1,1-4.92-5A4.92,4.92,0,0,1,989.28,281.62Z"/><path class="cls-15" d="M1008.56,247.91a4.92,4.92,0,1,1-4.91-5,4.92,4.92,0,0,1,4.91,5Z"/><path class="cls-49" d="M989.28,461.54a4.92,4.92,0,1,1-4.92-5,4.93,4.93,0,0,1,4.92,5Z"/><path class="cls-25" d="M1008.56,472.79a4.92,4.92,0,1,1-4.91-5,4.91,4.91,0,0,1,4.91,5Z"/><path class="cls-25" d="M1027.87,439.06a4.94,4.94,0,1,1-4.94-5A4.95,4.95,0,0,1,1027.87,439.06Z"/><path class="cls-26" d="M989.28,439.06a4.92,4.92,0,1,1-4.92-5A4.92,4.92,0,0,1,989.28,439.06Z"/><path class="cls-34" d="M1317.25,652.73a4.92,4.92,0,1,1-4.92-5,4.91,4.91,0,0,1,4.92,5Z"/><path class="cls-13" d="M1317.25,607.75a4.92,4.92,0,1,1-4.92-5,4.92,4.92,0,0,1,4.92,5Z"/><path class="cls-20" d="M1182.22,281.62a4.94,4.94,0,1,1-4.94-5A4.94,4.94,0,0,1,1182.22,281.62Z"/><path class="cls-6" d="M1143.63,259.12a4.94,4.94,0,1,1-4.94-5,4.94,4.94,0,0,1,4.94,5Z"/><path class="cls-30" d="M1240.09,225.4a4.94,4.94,0,1,1-4.93-5,4.94,4.94,0,0,1,4.93,5Z"/><path class="cls-15" d="M1162.92,180.42a4.94,4.94,0,1,1-4.9-5h.07A4.94,4.94,0,0,1,1162.92,180.42Z"/><path class="cls-40" d="M1085.74,225.4a4.92,4.92,0,1,1-4.92-5A4.92,4.92,0,0,1,1085.74,225.4Z"/><path class="cls-41" d="M1394.43,495.29a4.92,4.92,0,1,1-4.92-5A4.92,4.92,0,0,1,1394.43,495.29Z"/><path class="cls-40" d="M1394.43,405.34a4.92,4.92,0,1,1-4.92-5,4.92,4.92,0,0,1,4.92,5Z"/><path class="cls-17" d="M1431,423.82a4.82,4.82,0,0,0-2.92-1,5,5,0,1,0,0,10h0a4.82,4.82,0,0,0,2.92-1Z"/><path class="cls-36" d="M1085.74,585.24a4.92,4.92,0,1,1-4.92-5,4.92,4.92,0,0,1,4.92,5Z"/><path class="cls-29" d="M1394.43,585.24a4.92,4.92,0,1,1-4.92-5,4.92,4.92,0,0,1,4.92,5Z"/><path class="cls-14" d="M1317.25,270.37a4.92,4.92,0,1,1-4.92-5,4.92,4.92,0,0,1,4.92,5Z"/><path class="cls-50" d="M1317.25,450.31a4.92,4.92,0,1,1-4.92-5,4.92,4.92,0,0,1,4.92,5Z"/></svg>