<svg id="Capa_1" data-name="Capa 1" xmlns="http://www.w3.org/2000/svg" viewBox="0 0 111 114"><defs><style>.cls-1{fill:#dcf4bb;}.cls-2{fill:#4d7713;}.cls-3{fill:#fff;}</style></defs><path class="cls-1" d="M68.11,72.31h26a24.48,24.48,0,0,0-4-13.43A24.48,24.48,0,0,0,79.06,55,41.08,41.08,0,0,1,68.11,72.31Z"/><polygon class="cls-1" points="99.27 72.55 88.76 72.55 91.61 110.33 107.57 110.33 99.27 72.55"/><polygon class="cls-1" points="69.39 72.55 66.54 110.33 82.72 110.33 79.88 72.55 69.39 72.55"/><path class="cls-2" d="M96.74,59.23a1.16,1.16,0,0,1-1-.57,1.13,1.13,0,0,1-.12-.88,1.18,1.18,0,0,1,.54-.7l6.74-3.89a1.19,1.19,0,0,1,.58-.15,1.14,1.14,0,0,1,1.11,1.45,1.15,1.15,0,0,1-.54.7l-6.74,3.89A1.13,1.13,0,0,1,96.74,59.23Z"/><path class="cls-3" d="M103.48,53.42a.76.76,0,0,1,.66.39.73.73,0,0,1,.08.58.72.72,0,0,1-.36.46l-6.74,3.9a.75.75,0,0,1-.38.1.79.79,0,0,1-.67-.38.81.81,0,0,1-.08-.59.79.79,0,0,1,.36-.46l6.74-3.9a.87.87,0,0,1,.39-.1m0-.77a1.54,1.54,0,0,0-.77.21L96,56.75a1.54,1.54,0,0,0,.77,2.87,1.57,1.57,0,0,0,.77-.21l6.74-3.89a1.54,1.54,0,0,0-.77-2.87Z"/><path class="cls-2" d="M85.33,47.83a1.16,1.16,0,0,1-.57-.15,1.15,1.15,0,0,1-.42-1.58l3.89-6.74a1.17,1.17,0,0,1,1-.57,1.19,1.19,0,0,1,.58.15,1.17,1.17,0,0,1,.42,1.58l-3.9,6.74A1.15,1.15,0,0,1,85.33,47.83Z"/><path class="cls-3" d="M89.23,39.17a.83.83,0,0,1,.38.1.77.77,0,0,1,.36.47.73.73,0,0,1-.08.58L86,47.06a.77.77,0,0,1-.67.39.86.86,0,0,1-.38-.1.81.81,0,0,1-.36-.47.78.78,0,0,1,.08-.58l3.89-6.74a.79.79,0,0,1,.67-.39m0-.77a1.54,1.54,0,0,0-1.33.77L84,45.91a1.53,1.53,0,0,0,.56,2.1,1.5,1.5,0,0,0,.76.21,1.55,1.55,0,0,0,1.34-.77l3.89-6.74a1.54,1.54,0,0,0-1.33-2.31Z"/><path class="cls-1" d="M48.43,82.58l-6.1,27.75H57l2.38-31.72A40.78,40.78,0,0,1,48.43,82.58Z"/><path class="cls-2" d="M32,111.49a1.16,1.16,0,0,1-1.13-1.4l5.8-26.4c.77.06,1.55.1,2.33.12l0,.17h18.7L58,79.75c.81-.39,1.61-.81,2.41-1.26L59.94,84H79.58L78.81,73.7H67.14c.84-.73,1.66-1.5,2.45-2.3H93l0-.41A23.54,23.54,0,0,0,80.4,51.54c.17-.77.32-1.56.45-2.35A25.68,25.68,0,0,1,95.25,71l0,.37h4a1.14,1.14,0,0,1,1.12.9l8.3,37.79a1.14,1.14,0,0,1-.22,1,1.16,1.16,0,0,1-.9.43Zm51.83-2.31h22.34l-2.26-10.3H83Zm-25.74,0H81.48l-.77-10.3H58.82Zm-24.66,0H55.73l.78-10.3H35.65Zm49.45-12.6h20.53l-2.26-10.3h-19ZM59,96.58H80.53l-.77-10.3h-20Zm-22.83,0H56.68l.78-10.3h-19ZM81.89,84H100.6L98.34,73.7H81.12Z"/><path class="cls-3" d="M81.15,49.77A25.44,25.44,0,0,1,94.87,71.05l0,.73h4.36a.77.77,0,0,1,.75.6l8.3,37.79a.77.77,0,0,1-.15.64.76.76,0,0,1-.6.29H32a.77.77,0,0,1-.75-.93L36.93,84.1c.52,0,1,.06,1.56.08l0,.18H58l0-.71L58.32,80c.53-.26,1.07-.54,1.6-.83l-.33,4.37-.06.82H80l-.07-.82L79.22,74l0-.71h-11c.54-.5,1.08-1,1.6-1.54H93.37l0-.81a23.76,23.76,0,0,0-3.94-11.81,24,24,0,0,0-8.55-7.82c.11-.52.21-1.05.31-1.57m.39,34.59h19.54l-.21-.93-2.09-9.51-.13-.6H80.71l.06.82.71,9.51.06.71M82.49,97h21.35l-.2-.93-2.09-9.53-.14-.6H81.65l.07.82.71,9.53.06.71M58.58,97H81l-.07-.82-.71-9.53-.06-.71H59.41l0,.71-.72,9.53-.06.82m-22.9,0H57l.05-.71.72-9.53.06-.82H38.11l-.13.6L35.89,96l-.21.93m47.76,12.6h23.17l-.2-.93-2.1-9.53-.13-.6H82.6l.06.83.72,9.52.06.71m-25.81,0H81.89l-.06-.82-.72-9.53,0-.71H58.46l-.05.71-.72,9.53-.06.82m-24.72,0H56.09l0-.71.72-9.52.06-.83H35.34l-.13.6-2.09,9.53-.21.93M80.55,48.62c-.16,1.06-.35,2.1-.59,3.13A23.08,23.08,0,0,1,92.56,71H69.42a41.9,41.9,0,0,1-3.32,3.07H78.45l.72,9.51H60.36l.43-5.79c-1,.61-2.11,1.18-3.21,1.7l-.31,4.09H39.4l0-.15c-1,0-2.09-.07-3.11-.16L30.46,110a1.56,1.56,0,0,0,.3,1.3,1.54,1.54,0,0,0,1.2.57h75.61a1.53,1.53,0,0,0,1.5-1.87l-8.3-37.78A1.53,1.53,0,0,0,99.27,71H95.64A26.18,26.18,0,0,0,80.55,48.62Zm1.7,35-.72-9.51H98l2.09,9.51Zm1,12.6-.72-9.52H100.8l2.09,9.52Zm-23.79,0,.72-9.52H79.4l.72,9.52Zm-22.77,0,2.09-9.52H57l-.71,9.52ZM84.15,108.8l-.72-9.53h20.13l2.1,9.53Zm-25.69,0,.72-9.53H80.35l.72,9.53Zm-24.59,0L36,99.27H56.09l-.71,9.53Z"/><path class="cls-1" d="M44.24,43.16l3.17-5.3L46.35,36c0-2.86-4.93-26.2-6.12-31.8L39,35.9H33.59V36L31.32,40.1c-2.82,1.63-25.39,22-25.39,22L6.49,62,35.16,45.59l3.48,5.56h3.69c2.42,1.4,24,8.46,30.16,10.45Z"/><path class="cls-3" d="M38.54,42.45a8.65,8.65,0,0,1,5-7.87,8.66,8.66,0,1,0,0,15.73A8.65,8.65,0,0,1,38.54,42.45Z"/><path class="cls-1" d="M48.62,42.45a8.67,8.67,0,0,0-5-7.87,8.66,8.66,0,0,0,0,15.73A8.67,8.67,0,0,0,48.62,42.45Z"/><path class="cls-2" d="M74.11,63.28a1.49,1.49,0,0,1-.36-.05c-3-1-29-9.37-32-11.06l-.12-.07-.13,0a9.32,9.32,0,0,1-1.57.13,10.7,10.7,0,0,1-1.5-.11l-.13,0-.11.06c-3.35,1.86-29,10.11-31.95,11a1.34,1.34,0,0,1-.35.05,1.15,1.15,0,0,1-1-.58,1.16,1.16,0,0,1,.23-1.43c2.26-2.05,22.25-20.09,25.48-22.11l.11-.07L30.8,39a9.76,9.76,0,0,1,1.55-2.69l.08-.1V36c0-3.59,5.76-30.22,6.41-33.25a1.16,1.16,0,0,1,2.26,0c.65,3.06,6.39,29.9,6.41,33.24v.15l.08.11a9.55,9.55,0,0,1,1.51,2.6l.06.13.13.08h0c3.08,1.78,23.29,20.09,25.58,22.18a1.16,1.16,0,0,1,.22,1.43A1.14,1.14,0,0,1,74.11,63.28ZM29.56,42.88C25,46.62,15.81,54.81,12.07,58.16l-1.36,1.22,1.73-.57c4.78-1.56,16.5-5.42,22-7.52l.7-.27-.62-.41a9.73,9.73,0,0,1-4.35-7.47l-.05-.74Zm20.19.17a9.77,9.77,0,0,1-4.31,7.53l-.61.41.69.26c5.47,2.07,17.26,6,22.08,7.55l1.73.57L68,58.15c-3.77-3.39-13-11.67-17.59-15.37l-.58-.47ZM40,35a7.5,7.5,0,1,0,7.5,7.5A7.5,7.5,0,0,0,40,35Zm-.38-24.61C38.54,15.29,36,27.45,35.08,33.25L35,34l.67-.33a9.62,9.62,0,0,1,4.34-1,9.73,9.73,0,0,1,4.33,1L45,34l-.12-.74c-1-5.77-3.47-17.94-4.51-22.9L40,8.55Z"/><path class="cls-3" d="M40,2.27a.76.76,0,0,1,.75.61c2.37,11,6.38,30.41,6.4,33.14h0v.3l.17.21A9.81,9.81,0,0,1,48.75,39l.1.26.24.14h0C51.65,40.92,66.33,54,74.62,61.56a.77.77,0,0,1-.51,1.34.67.67,0,0,1-.24,0c-10.71-3.46-29.48-9.67-31.9-11l-.23-.13-.27,0a9.48,9.48,0,0,1-1.5.12,9.87,9.87,0,0,1-1.44-.11l-.26,0-.23.13c-3.31,1.83-29,10.08-31.88,11a.85.85,0,0,1-.23,0,.77.77,0,0,1-.52-1.34c8.22-7.43,22.83-20.45,25.44-22.07l.22-.14.09-.24a8.87,8.87,0,0,1,1.49-2.58l.17-.22V36c0-2.88,4-22.2,6.4-33.17a.77.77,0,0,1,.75-.6h0M34.46,34.66,35.8,34A9.26,9.26,0,0,1,40,33a9.41,9.41,0,0,1,4.16,1l1.34.67-.25-1.48c-.94-5.78-3.46-17.95-4.5-22.92L40,6.68l-.76,3.58c-1,5-3.58,17.12-4.51,22.93l-.24,1.47M40,50.33a7.89,7.89,0,1,0-7.89-7.88A7.9,7.9,0,0,0,40,50.33m31,10-2.72-2.44c-3.77-3.39-13.05-11.67-17.61-15.38l-1.16-.94L49.37,43a9.37,9.37,0,0,1-4.14,7.23L44,51.09l1.39.52c5.48,2.07,17.27,6,22.09,7.55L71,60.3m-61.86,0,3.47-1.14c4.78-1.56,16.51-5.42,22-7.52L36,51.12l-1.24-.83a9.38,9.38,0,0,1-4.18-7.17l-.1-1.48-1.15.94c-4.57,3.75-13.77,11.94-17.51,15.29L9.09,60.31M40,1.5h0a1.53,1.53,0,0,0-1.5,1.21c-.66,3-6.42,29.7-6.42,33.33a10.2,10.2,0,0,0-1.61,2.79C27.18,40.87,7.19,58.91,4.9,61a1.53,1.53,0,0,0,1,2.67,1.58,1.58,0,0,0,.47-.07c2.93-.94,28.63-9.2,32-11.07a10.05,10.05,0,0,0,1.56.12,9.78,9.78,0,0,0,1.63-.14c3,1.71,29.07,10.13,32,11.09a1.61,1.61,0,0,0,.48.08,1.54,1.54,0,0,0,1-2.68c-2.3-2.08-22.53-20.42-25.66-22.23h0a10,10,0,0,0-1.57-2.7h0c0-3.32-5.76-30.26-6.42-33.33A1.53,1.53,0,0,0,40,1.5ZM35.46,33.31c.76-4.75,2.7-14.32,4.5-22.89,1.8,8.59,3.73,18.16,4.51,22.89A10,10,0,0,0,40,32.26a10.18,10.18,0,0,0-4.51,1.05ZM40,49.56a7.12,7.12,0,1,1,7.11-7.11A7.12,7.12,0,0,1,40,49.56Zm27.75,8.87c-8.33-2.73-17.58-5.84-22.06-7.54a10.18,10.18,0,0,0,4.48-7.81c3.73,3,11.06,9.5,17.58,15.35Zm-55.4,0c6.49-5.81,13.75-12.21,17.49-15.27a10.18,10.18,0,0,0,4.52,7.76c-4.53,1.72-13.73,4.81-22,7.51Z"/><path class="cls-2" d="M40,79.8a37.26,37.26,0,0,1-25-9.61,1.14,1.14,0,0,1-.08-1.62,1.16,1.16,0,0,1,.85-.38,1.18,1.18,0,0,1,.78.29,35.06,35.06,0,0,0,43.17,3,1.15,1.15,0,1,1,1.3,1.9A37.16,37.16,0,0,1,40,79.8Z"/><path class="cls-3" d="M15.73,68.57a.77.77,0,0,1,.52.2,35.45,35.45,0,0,0,43.65,3,.71.71,0,0,1,.43-.14A.77.77,0,0,1,60.76,73a37,37,0,0,1-45.54-3.11.77.77,0,0,1,.51-1.34m0-.77a1.54,1.54,0,0,0-1,2.68,37.76,37.76,0,0,0,46.49,3.17,1.54,1.54,0,0,0-.86-2.81,1.56,1.56,0,0,0-.87.27,34.67,34.67,0,0,1-42.7-2.91,1.5,1.5,0,0,0-1-.4Z"/><path class="cls-2" d="M4.13,38.48H4a1.15,1.15,0,0,1-1-1.3A37.42,37.42,0,0,1,28.49,6.89a1,1,0,0,1,.35-.06,1.16,1.16,0,0,1,1,1.68,1.11,1.11,0,0,1-.67.57A35.21,35.21,0,0,0,5.27,37.49,1.15,1.15,0,0,1,4.13,38.48Z"/><path class="cls-3" d="M28.84,7.22a.78.78,0,0,1,.69,1.12.84.84,0,0,1-.45.38A35.57,35.57,0,0,0,4.89,37.44a.77.77,0,0,1-.76.66H4a.78.78,0,0,1-.66-.87,37,37,0,0,1,25.25-30,.59.59,0,0,1,.23,0m0-.77a1.58,1.58,0,0,0-.47.07A37.83,37.83,0,0,0,2.6,37.12a1.53,1.53,0,0,0,1.31,1.73l.22,0a1.55,1.55,0,0,0,1.52-1.32A34.82,34.82,0,0,1,29.31,9.45a1.54,1.54,0,0,0-.47-3Z"/><path class="cls-2" d="M74.77,53.58a1.1,1.1,0,0,1-.31,0,1.15,1.15,0,0,1-.69-.55,1.13,1.13,0,0,1-.1-.88A35.09,35.09,0,0,0,60.15,13.79a1.16,1.16,0,0,1-.28-1.61,1.14,1.14,0,0,1,.94-.49,1.1,1.1,0,0,1,.66.21A37.41,37.41,0,0,1,75.88,52.75,1.15,1.15,0,0,1,74.77,53.58Z"/><path class="cls-3" d="M60.81,12.08a.7.7,0,0,1,.44.14A37,37,0,0,1,75.51,52.64a.76.76,0,0,1-.74.56l-.21,0a.78.78,0,0,1-.53-1A35.47,35.47,0,0,0,60.37,13.47a.77.77,0,0,1-.19-1.07.79.79,0,0,1,.63-.32m0-.77a1.53,1.53,0,0,0-1.26.65,1.55,1.55,0,0,0,.37,2.14A34.75,34.75,0,0,1,73.3,52a1.53,1.53,0,1,0,3,.84,37.9,37.9,0,0,0-2.92-28A38,38,0,0,0,61.7,11.59a1.54,1.54,0,0,0-.89-.28Z"/></svg>