<svg id="Capa_1" data-name="Capa 1" xmlns="http://www.w3.org/2000/svg" viewBox="0 0 97 97"><defs><style>.cls-1{fill:#dcf4bb;}.cls-2{fill:#fff;}.cls-3{fill:#4d7713;}</style></defs><path class="cls-1" d="M55.9,3.75a45,45,0,0,0,0,88.76,45,45,0,0,0,0-88.76Z"/><path class="cls-1" d="M39.42,57.15l-20.1,8.66a45.28,45.28,0,0,0,18,20.79q2,1.19,4,2.19L42.9,86h2.58a5.2,5.2,0,0,0,5.2-5.2V78.26a5.22,5.22,0,0,1,1-3.07L44.55,64.54Z"/><path class="cls-2" d="M75.11,74.61l1.15-13.7L65.39,48.27a4.63,4.63,0,0,0-1.68-.39l-2-.07a4.51,4.51,0,0,1-4.26-5.41L59,34.62a4.5,4.5,0,0,1,3.37-3.49l3.77-.9a4.55,4.55,0,0,0,3.47-3.94l0-.2a9.92,9.92,0,0,0-14.49-9.91l-2.43,1.28a4.59,4.59,0,0,1-.77.31,9.93,9.93,0,0,1,8.66,11l0,.19a4.55,4.55,0,0,1-3.46,4l-3.77.89A4.49,4.49,0,0,0,50,37.31l-1.58,7.78a4.52,4.52,0,0,0,4.27,5.41l2,.07a4.44,4.44,0,0,1,1.68.39L67.23,63.59,66.08,77.3a8.69,8.69,0,0,0,5.66,8.76l.65.07a44.84,44.84,0,0,0,5.73-4.33A8.6,8.6,0,0,1,75.11,74.61Z"/><path class="cls-2" d="M46.39,14.92a2.49,2.49,0,0,0-1.6-2.41L33.6,8.26V7.11A44.31,44.31,0,0,1,40,3.85,44.88,44.88,0,0,0,24.57,9.79v1.15L35.76,15.2a2.48,2.48,0,0,1,1.59,2.41,4.53,4.53,0,0,0,6.33,2.54l2.43-1.29a10,10,0,0,1,3.31-1.07A4.5,4.5,0,0,1,46.39,14.92Z"/><path class="cls-1" d="M49.42,17.79a4.5,4.5,0,0,0,2.52,0A9.67,9.67,0,0,0,49.42,17.79Z"/><path class="cls-1" d="M93.25,48.13A45,45,0,0,0,40,3.85,44.31,44.31,0,0,0,33.6,7.11V8.26l11.19,4.25a2.49,2.49,0,0,1,1.6,2.41,4.5,4.5,0,0,0,3,2.87,9.67,9.67,0,0,1,2.52,0,4.59,4.59,0,0,0,.77-.31l2.43-1.28a9.92,9.92,0,0,1,14.49,9.91l0,.2a4.55,4.55,0,0,1-3.47,3.94l-3.77.9A4.5,4.5,0,0,0,59,34.62L57.43,42.4a4.51,4.51,0,0,0,4.26,5.41l2,.07a4.63,4.63,0,0,1,1.68.39L76.26,60.91l-1.15,13.7a8.6,8.6,0,0,0,3,7.19A44.93,44.93,0,0,0,93.25,48.13Z"/><path class="cls-1" d="M23.57,78.5,32.7,66.8h0a16.66,16.66,0,0,0-9.6-26.94,16.66,16.66,0,0,0-8.85,26.67h0Z"/><circle class="cls-2" cx="19.84" cy="56.47" r="8.79"/><path class="cls-2" d="M76.21,25.14a13.53,13.53,0,0,1,7-21.6,13.7,13.7,0,0,0-3.47-.45A13.52,13.52,0,0,0,69.25,25.14h0L79.74,38.58l3.48-4.46-7-9Z"/><path class="cls-1" d="M90.16,25.21a13.52,13.52,0,0,0-7-21.67,13.53,13.53,0,0,0-7,21.6h0l7,9,7-8.91Z"/><circle class="cls-2" cx="79.74" cy="16.82" r="5.88"/><path class="cls-3" d="M56.36,52.33a1.34,1.34,0,0,1-.56-.12,3.17,3.17,0,0,0-1.17-.27l-2-.07a5.9,5.9,0,0,1-5.56-7.06L48.62,37A5.9,5.9,0,0,1,53,32.48l3.77-.9a3.18,3.18,0,0,0,2.42-2.77l0-.19a8.4,8.4,0,0,0-3.66-8,8.44,8.44,0,0,0-8.82-.5l-2.43,1.28a5.83,5.83,0,0,1-4.89.23,5.88,5.88,0,0,1-3.37-3.53,1.42,1.42,0,0,1-.08-.5,1.11,1.11,0,0,0-.71-1.08L24.08,12.22a.84.84,0,0,1-.14-.06L23.7,12l-.23.15A43.62,43.62,0,0,0,8.7,29.53a1.39,1.39,0,0,1-1.25.79,1.29,1.29,0,0,1-.58-.13,1.4,1.4,0,0,1-.71-.78,1.41,1.41,0,0,1,0-1.05A46.5,46.5,0,0,1,63.15,4.17a1.38,1.38,0,0,1-.44,2.68,1.32,1.32,0,0,1-.44-.08,43.58,43.58,0,0,0-34.83,3l-.87.47,9.67,3.68a3.87,3.87,0,0,1,2.48,3.36v.09l0,.07A3.13,3.13,0,0,0,40.45,19a3,3,0,0,0,1.18.23,3.09,3.09,0,0,0,1.42-.34l2.42-1.28A11.29,11.29,0,0,1,62,28.94l0,.19a6,6,0,0,1-4.52,5.12l-3.76.9a3.14,3.14,0,0,0-2.35,2.43l-1.57,7.78a3.13,3.13,0,0,0,3,3.76l2,.08a5.57,5.57,0,0,1,2.19.51,1.37,1.37,0,0,1-.56,2.62Z"/><path class="cls-2" d="M48.22,2.17A45.67,45.67,0,0,1,63,4.61a.91.91,0,0,1-.29,1.78,1,1,0,0,1-.3,0,44.1,44.1,0,0,0-35.18,3l-1.76,1,1.87.7,8.74,3.33a3.43,3.43,0,0,1,2.19,3v.17l.07.15a3.57,3.57,0,0,0,1.93,1.85,3.72,3.72,0,0,0,1.35.26,3.55,3.55,0,0,0,1.62-.39h0l2.42-1.28A10.84,10.84,0,0,1,61.51,28.88l0,.2a5.5,5.5,0,0,1-4.16,4.73l-3.77.89a3.62,3.62,0,0,0-2.69,2.79l-1.57,7.78a3.6,3.6,0,0,0,3.4,4.31l2,.07a5.63,5.63,0,0,1,2,.47.92.92,0,0,1-.37,1.75.84.84,0,0,1-.38-.08,3.6,3.6,0,0,0-1.34-.31l-2-.07a5.43,5.43,0,0,1-5.13-6.5l1.57-7.78a5.45,5.45,0,0,1,4.06-4.21l3.76-.9a3.6,3.6,0,0,0,2.77-3.15l0-.2a8.88,8.88,0,0,0-3.86-8.47,9,9,0,0,0-5.07-1.59,9.17,9.17,0,0,0-4.22,1.06L44.11,21h0a5.43,5.43,0,0,1-7.61-3.05,1,1,0,0,1-.05-.33,1.57,1.57,0,0,0-1-1.53L24.24,11.8l-.09-.05-.49-.25-.45.31A44.19,44.19,0,0,0,8.28,29.34a.91.91,0,0,1-.83.52.92.92,0,0,1-.39-.09.91.91,0,0,1-.47-.51.9.9,0,0,1,0-.7A45.95,45.95,0,0,1,48.22,2.17m0-.91A46.87,46.87,0,0,0,5.8,28.17a1.83,1.83,0,0,0,.87,2.43,1.82,1.82,0,0,0,2.44-.87A43.14,43.14,0,0,1,23.73,12.57l.19.08L35.1,16.91a.65.65,0,0,1,.43.63,1.68,1.68,0,0,0,.1.67A6.33,6.33,0,0,0,39.26,22a6.43,6.43,0,0,0,5.26-.24l0,0L47,20.48a8.08,8.08,0,0,1,3.79-1,8.15,8.15,0,0,1,8,9.05l0,.19a2.71,2.71,0,0,1-2.08,2.37l-3.77.9A6.36,6.36,0,0,0,48.17,37L46.6,44.72a6.36,6.36,0,0,0,6,7.61l2,.07a2.66,2.66,0,0,1,1,.23,1.81,1.81,0,0,0,.75.16,1.83,1.83,0,0,0,.75-3.5,6.27,6.27,0,0,0-2.37-.55l-2-.07a2.69,2.69,0,0,1-2.54-3.22l1.57-7.78a2.69,2.69,0,0,1,2-2.08l3.76-.89a6.43,6.43,0,0,0,4.86-5.52l0-.19A11.83,11.83,0,0,0,50.77,15.85a11.76,11.76,0,0,0-5.51,1.39l-2.42,1.28a2.64,2.64,0,0,1-1.21.3,2.75,2.75,0,0,1-1-.2,2.63,2.63,0,0,1-1.44-1.38,4.31,4.31,0,0,0-2.77-3.75l-8.75-3.33A43.1,43.1,0,0,1,62.12,7.21a2,2,0,0,0,.59.09,1.83,1.83,0,0,0,.59-3.56A46.7,46.7,0,0,0,48.22,1.26Z"/><path class="cls-3" d="M91.19,63a1.52,1.52,0,0,1-.42-.06,1.37,1.37,0,0,1-.89-1.72A43.94,43.94,0,0,0,90.18,36a1.39,1.39,0,0,1,.94-1.7,1.32,1.32,0,0,1,.39-.06,1.37,1.37,0,0,1,1.31,1,46.6,46.6,0,0,1-.32,26.79A1.37,1.37,0,0,1,91.19,63Z"/><path class="cls-2" d="M91.51,34.74a.91.91,0,0,1,.87.66,46.17,46.17,0,0,1-.32,26.53.9.9,0,0,1-.87.64.86.86,0,0,1-.28,0,.92.92,0,0,1-.6-1.15,44.26,44.26,0,0,0,.31-25.47.93.93,0,0,1,.63-1.13.78.78,0,0,1,.26,0m0-.91a1.79,1.79,0,0,0-.51.07,1.82,1.82,0,0,0-1.25,2.26,43.63,43.63,0,0,1-.31,25,1.84,1.84,0,0,0,1.2,2.3,2,2,0,0,0,.55.08,1.83,1.83,0,0,0,1.74-1.28,47.19,47.19,0,0,0,.33-27.06,1.82,1.82,0,0,0-1.75-1.32Z"/><path class="cls-3" d="M48.22,94.54a46.44,46.44,0,0,1-22.61-5.87,1.37,1.37,0,0,1,.67-2.57,1.45,1.45,0,0,1,.67.17,42.84,42.84,0,0,0,11.43,4.4l.33.08,3-5.42a1.36,1.36,0,0,1,1.2-.71h2.58a3.84,3.84,0,0,0,3.83-3.83V78.26a6.53,6.53,0,0,1,1.27-3.88,1.36,1.36,0,0,1,1.1-.56,1.35,1.35,0,0,1,.81.26A1.39,1.39,0,0,1,53,75a1.33,1.33,0,0,1-.25,1,3.82,3.82,0,0,0-.74,2.26v2.53a6.58,6.58,0,0,1-6.57,6.58H43.71l-2.16,3.92.66.09a44.84,44.84,0,0,0,6,.41,43.93,43.93,0,0,0,20.43-5.08l.63-.34-.57-.43a10.1,10.1,0,0,1-4-8.73l1.15-13.73a1.39,1.39,0,0,1,1.38-1.26h.11a1.38,1.38,0,0,1,1.25,1.49L67.45,77.39a7.28,7.28,0,0,0,4.37,7.21l.23.11.21-.14a43.78,43.78,0,0,0,8.5-7.33,1.38,1.38,0,0,1,1-.46,1.35,1.35,0,0,1,.91.35,1.39,1.39,0,0,1,.11,1.94A46.49,46.49,0,0,1,48.22,94.54Z"/><path class="cls-2" d="M67.24,62.68h.07a.92.92,0,0,1,.84,1L67,77.35h0A7.75,7.75,0,0,0,71.63,85l.46.21.42-.28a43.79,43.79,0,0,0,8.59-7.41.94.94,0,0,1,.69-.3.91.91,0,0,1,.68,1.52,46,46,0,0,1-56.64,9.51A.92.92,0,0,1,25.48,87a.91.91,0,0,1,.8-.46.82.82,0,0,1,.44.11,43.88,43.88,0,0,0,11.55,4.45l.68.15.33-.6,2.82-5.12a.92.92,0,0,1,.8-.47h2.58a4.3,4.3,0,0,0,4.29-4.29V78.26a6.08,6.08,0,0,1,1.17-3.61.92.92,0,0,1,1.48,1.08,4.27,4.27,0,0,0-.82,2.53v2.53a6.13,6.13,0,0,1-6.12,6.12h-2l-.26.47-1.71,3.1-.64,1.17,1.32.18a44,44,0,0,0,26.71-4.72l1.27-.67L69,85.57a9.65,9.65,0,0,1-3.82-8.33v0l1.16-13.71a.92.92,0,0,1,.92-.83h0m0-.92a1.83,1.83,0,0,0-1.83,1.68l-1.16,13.7v0a10.54,10.54,0,0,0,4.18,9.12,43.16,43.16,0,0,1-20.21,5,41.94,41.94,0,0,1-5.94-.41l1.7-3.1h1.5a7,7,0,0,0,7-7V78.26a3.38,3.38,0,0,1,.65-2,1.83,1.83,0,0,0-.4-2.56,1.79,1.79,0,0,0-1.08-.35,1.81,1.81,0,0,0-1.47.75,7,7,0,0,0-1.36,4.15v2.53a3.37,3.37,0,0,1-3.37,3.37H42.9a1.81,1.81,0,0,0-1.6,1l-2.82,5.12a43.31,43.31,0,0,1-11.31-4.36,1.79,1.79,0,0,0-.89-.23,1.83,1.83,0,0,0-.9,3.43,46.88,46.88,0,0,0,57.77-9.7A1.83,1.83,0,0,0,83,76.79a1.83,1.83,0,0,0-2.59.14A42.57,42.57,0,0,1,72,84.18a6.83,6.83,0,0,1-4.11-6.75l1.16-13.69a1.83,1.83,0,0,0-1.67-2Z"/><path class="cls-3" d="M79.74,24.08A7.26,7.26,0,1,1,87,16.82,7.27,7.27,0,0,1,79.74,24.08Zm0-11.77a4.51,4.51,0,1,0,4.5,4.51A4.52,4.52,0,0,0,79.74,12.31Z"/><path class="cls-2" d="M79.74,10a6.8,6.8,0,1,1-6.8,6.79A6.8,6.8,0,0,1,79.74,10m0,11.76a5,5,0,1,0-5-5,5,5,0,0,0,5,5m0-12.68a7.72,7.72,0,1,0,7.71,7.71,7.72,7.72,0,0,0-7.71-7.71Zm0,11.76a4.05,4.05,0,1,1,4.05-4.05,4.05,4.05,0,0,1-4.05,4.05Z"/><path class="cls-3" d="M19.84,84.65a1.34,1.34,0,0,1-1.08-.53L5.82,67.54a18,18,0,1,1,31.49-15.8l0,.13.1.1a.9.9,0,0,1,.21.23l8,11.56a1.38,1.38,0,0,1-.35,1.91,1.36,1.36,0,0,1-.78.24,1.38,1.38,0,0,1-1.13-.59l-5.54-8-.16,1.17a18,18,0,0,1-3.86,9v0h0l-.06.08L20.92,84.12A1.35,1.35,0,0,1,19.84,84.65Zm0-43.74A15.29,15.29,0,0,0,8,65.85l0,.06L19.84,81.05l11.68-15v0a1.47,1.47,0,0,1,.1-.13,15.29,15.29,0,0,0-11.79-25Z"/><path class="cls-2" d="M19.84,38.62A17.41,17.41,0,0,1,30.7,42.39a17.72,17.72,0,0,1,6.17,9.46l.07.27.21.19a1.07,1.07,0,0,1,.14.16L45.3,64a.87.87,0,0,1,.15.68.91.91,0,0,1-.38.59.87.87,0,0,1-.52.17.91.91,0,0,1-.75-.4l-4.87-7-1.36-1.95-.3,2.36a17.52,17.52,0,0,1-3.77,8.8l0,0,0,0a.1.1,0,0,0,0,.05L20.56,83.84a.9.9,0,0,1-.72.35.87.87,0,0,1-.72-.35L6.2,67.28h0v0A17.58,17.58,0,0,1,19.84,38.62m0,43.17.72-.92L31.87,66.38l0,0,0,0,.06-.09a15.75,15.75,0,1,0-24.35-.08l0,0h0L19.12,80.87l.72.92m0-44.08A18.5,18.5,0,0,0,5.46,67.83h0L18.39,84.41a1.84,1.84,0,0,0,2.89,0L34.14,67.93a.61.61,0,0,0,.07-.1,18.49,18.49,0,0,0,4-9.27l4.87,7a1.79,1.79,0,0,0,1.5.79A1.86,1.86,0,0,0,45.6,66a1.83,1.83,0,0,0,.46-2.54L38,51.94a2.14,2.14,0,0,0-.28-.32A18.53,18.53,0,0,0,19.84,37.71Zm0,42.59L8.4,65.64l-.06-.08a14.83,14.83,0,1,1,22.94.08,1.09,1.09,0,0,0-.13.17L19.84,80.3Z"/><path class="cls-3" d="M19.84,66.63A10.17,10.17,0,1,1,30,56.47,10.17,10.17,0,0,1,19.84,66.63Zm0-17.58a7.42,7.42,0,1,0,7.41,7.42A7.43,7.43,0,0,0,19.84,49.05Z"/><path class="cls-2" d="M19.84,46.76a9.71,9.71,0,1,1-9.71,9.71,9.72,9.72,0,0,1,9.71-9.71m0,17.58A7.88,7.88,0,1,0,12,56.47a7.88,7.88,0,0,0,7.87,7.87m0-18.49A10.62,10.62,0,1,0,30.46,56.47,10.63,10.63,0,0,0,19.84,45.85Zm0,17.57a7,7,0,1,1,7-7,7,7,0,0,1-7,7Z"/><path class="cls-3" d="M79.74,40a1.37,1.37,0,0,1-1.09-.53L68.16,26a14.89,14.89,0,1,1,23.16,0v0h0l0,.07L80.82,39.42A1.35,1.35,0,0,1,79.74,40Zm0-35.49a12.14,12.14,0,0,0-9.42,19.81l0,.06,9.38,12L89,24.47h0l.09-.12A12.15,12.15,0,0,0,79.74,4.46Z"/><path class="cls-2" d="M79.74,2.17A14.44,14.44,0,0,1,91,25.67l0,0,0,0,0,0L80.46,39.14a.93.93,0,0,1-1.45,0L68.53,25.7h0A14.43,14.43,0,0,1,79.74,2.17m0,34.92.72-.92,8.89-11.4,0,0,0,0a.24.24,0,0,1,.06-.08A12.6,12.6,0,0,0,79.74,4a12.62,12.62,0,0,0-12.61,12.6,12.64,12.64,0,0,0,2.84,8l0,0h0l9,11.55.73.92m0-35.83a15.35,15.35,0,0,0-11.94,25v0L78.29,39.7a1.83,1.83,0,0,0,1.45.71h0a1.84,1.84,0,0,0,1.44-.7L91.61,26.34l.07-.09a15.35,15.35,0,0,0-11.94-25Zm0,34.34-9-11.54L70.67,24a11.68,11.68,0,1,1,18.08.07l-.12.16L79.74,35.6Z"/><path class="cls-3" d="M36.08,80.48a1.65,1.65,0,0,1-.71-3.14L36.2,77a1.71,1.71,0,0,1,.7-.16,1.65,1.65,0,0,1,.71,3.14l-.83.39A1.56,1.56,0,0,1,36.08,80.48Z"/><path class="cls-2" d="M36.9,77a1.46,1.46,0,0,1,.63,2.78l-.83.39a1.38,1.38,0,0,1-.62.15,1.47,1.47,0,0,1-.63-2.79l.83-.39A1.37,1.37,0,0,1,36.9,77m0-.37a2,2,0,0,0-.78.17l-.83.4a1.83,1.83,0,0,0,.79,3.48,1.8,1.8,0,0,0,.78-.17l.83-.39a1.83,1.83,0,0,0-.79-3.49Z"/><path class="cls-3" d="M79.69,52.17H79.5a1.65,1.65,0,0,1-1.45-1.82c0-.24,0-.49,0-.73A1.65,1.65,0,0,1,79.74,48a1.6,1.6,0,0,1,1.16.49,1.63,1.63,0,0,1,.48,1.16,10,10,0,0,1-.06,1.1A1.64,1.64,0,0,1,79.69,52.17Z"/><path class="cls-2" d="M79.74,48.15a1.44,1.44,0,0,1,1,.43,1.42,1.42,0,0,1,.43,1,9.77,9.77,0,0,1-.06,1.08A1.46,1.46,0,0,1,79.69,52h-.17a1.47,1.47,0,0,1-1.29-1.62,6.28,6.28,0,0,0,0-.75,1.46,1.46,0,0,1,1.47-1.46m0-.37a1.82,1.82,0,0,0-1.83,1.83c0,.24,0,.48,0,.71a1.82,1.82,0,0,0,1.61,2h.21a1.82,1.82,0,0,0,1.81-1.62,8.42,8.42,0,0,0,.07-1.12,1.83,1.83,0,0,0-1.83-1.83Z"/><path class="cls-3" d="M66.94,59.3a1.65,1.65,0,1,1,0-3.3h.91a1.65,1.65,0,1,1,0,3.3Z"/><path class="cls-2" d="M67.85,56.18a1.47,1.47,0,1,1,0,2.93h-.91a1.47,1.47,0,1,1,0-2.93h.91m0-.36h-.91a1.83,1.83,0,0,0,0,3.66h.91a1.83,1.83,0,0,0,0-3.66Z"/><path class="cls-3" d="M75.07,58.56a1.65,1.65,0,0,1-.69-3.15,5.62,5.62,0,0,0,.64-.34,1.7,1.7,0,0,1,.85-.24,1.65,1.65,0,0,1,.86,3.06c-.31.19-.64.36-1,.52A1.65,1.65,0,0,1,75.07,58.56Z"/><path class="cls-2" d="M75.87,55a1.46,1.46,0,0,1,.77,2.71,8.82,8.82,0,0,1-1,.51,1.43,1.43,0,0,1-.61.14,1.48,1.48,0,0,1-1.33-.85,1.45,1.45,0,0,1,0-1.12,1.51,1.51,0,0,1,.76-.83,5.19,5.19,0,0,0,.66-.35,1.48,1.48,0,0,1,.76-.21m0-.37a1.85,1.85,0,0,0-1,.27c-.2.12-.41.23-.62.33a1.83,1.83,0,0,0,.77,3.49,1.76,1.76,0,0,0,.77-.17,9.41,9.41,0,0,0,1-.53,1.83,1.83,0,0,0-1-3.39Z"/><path class="cls-3" d="M48.36,70.48a1.72,1.72,0,0,1-.88-.25A1.66,1.66,0,0,1,47,68l.49-.77a1.66,1.66,0,0,1,2.27-.51A1.66,1.66,0,0,1,50.25,69l-.49.77A1.65,1.65,0,0,1,48.36,70.48Z"/><path class="cls-2" d="M48.86,66.6a1.42,1.42,0,0,1,.78.23,1.46,1.46,0,0,1,.45,2l-.49.77a1.45,1.45,0,0,1-1.24.68,1.47,1.47,0,0,1-1.23-2.25l.49-.77a1.45,1.45,0,0,1,1.24-.68m0-.37a1.83,1.83,0,0,0-1.55.85l-.49.77a1.84,1.84,0,0,0,.56,2.53,1.89,1.89,0,0,0,1,.29,1.83,1.83,0,0,0,1.55-.85l.49-.77a1.84,1.84,0,0,0-.56-2.53,1.8,1.8,0,0,0-1-.29Z"/><path class="cls-3" d="M52.78,63.53A1.65,1.65,0,0,1,51.4,61l.49-.77a1.63,1.63,0,0,1,2.27-.51A1.65,1.65,0,0,1,54.67,62l-.49.78A1.65,1.65,0,0,1,52.78,63.53Z"/><path class="cls-2" d="M53.28,59.65a1.5,1.5,0,0,1,.78.22,1.47,1.47,0,0,1,.45,2l-.49.77a1.46,1.46,0,0,1-2,.45,1.44,1.44,0,0,1-.64-.92,1.42,1.42,0,0,1,.19-1.1l.49-.78a1.46,1.46,0,0,1,1.24-.67m0-.37a1.83,1.83,0,0,0-1.55.85l-.49.77a1.84,1.84,0,0,0,.56,2.53,1.87,1.87,0,0,0,1,.28,1.84,1.84,0,0,0,1.55-.84l.49-.78a1.83,1.83,0,0,0-.56-2.52,1.8,1.8,0,0,0-1-.29Z"/><path class="cls-3" d="M43.53,77a1.65,1.65,0,0,1-.71-3.14l.83-.39a1.71,1.71,0,0,1,.7-.16,1.65,1.65,0,0,1,.71,3.14l-.83.39A1.56,1.56,0,0,1,43.53,77Z"/><path class="cls-2" d="M44.35,73.46A1.47,1.47,0,0,1,45,76.25l-.83.39a1.51,1.51,0,0,1-.62.14A1.47,1.47,0,0,1,42.9,74l.83-.39a1.37,1.37,0,0,1,.62-.14m0-.37a1.81,1.81,0,0,0-.78.18l-.83.39a1.83,1.83,0,0,0,.79,3.48,1.8,1.8,0,0,0,.78-.17l.83-.39a1.83,1.83,0,0,0-.79-3.49Z"/><path class="cls-3" d="M58.7,59.3a1.65,1.65,0,0,1,0-3.3h.91a1.65,1.65,0,1,1,0,3.3Z"/><path class="cls-2" d="M59.61,56.18a1.47,1.47,0,1,1,0,2.93H58.7a1.47,1.47,0,1,1,0-2.93h.91m0-.36H58.7a1.83,1.83,0,0,0,0,3.66h.91a1.83,1.83,0,0,0,0-3.66Z"/></svg>