<svg id="Layer_1" data-name="Layer 1" xmlns="http://www.w3.org/2000/svg" viewBox="0 0 88 101"><defs><style>.cls-1{fill:#0586ad;}.cls-2{fill:#dcf4bb;}.cls-3{fill:#4d7713;}.cls-4{fill:#fcfcfc;}</style></defs><path class="cls-1" d="M55,39.59l.12-.28-.19.26Z"/><path class="cls-2" d="M71.5,16,55.15,39.31l-.12.28,12.48,3.57-5.85,6.6L37.9,76.55,44.68,50,34.51,46.22,50.34,9.77A161,161,0,0,1,22.53,20.12V41c0,29.22,19,45.73,31,52.26C65.08,87,83.17,71.38,84.4,44c0-.35,0-.69,0-1q0-1,0-1.92V20.12C80.19,19,75.84,17.58,71.5,16Z"/><path class="cls-3" d="M44.68,98c-3.72,0-14-4.8-23-13.47A59.35,59.35,0,0,1,3.47,41V20.12a1.43,1.43,0,0,1,1-1.37A159.75,159.75,0,0,0,44,2.17a1.4,1.4,0,0,1,1.44,0c2.17,1.27,4.44,2.52,6.74,3.72a1.43,1.43,0,0,1,.64,1.83L36.41,45.41l8.77,3.26a1.42,1.42,0,0,1,.88,1.68L40.73,71.22,65,43.9l-10.38-3a1.41,1.41,0,0,1-.77-2.18L70.34,15.17a1.42,1.42,0,0,1,1.16-.6,1.36,1.36,0,0,1,.49.08c4.28,1.57,8.6,3,12.85,4.1a1.42,1.42,0,0,1,1,1.37V41A59.35,59.35,0,0,1,67.65,84.56C58.72,93.23,48.4,98,44.68,98ZM44.44,5.18A162.63,162.63,0,0,1,6.66,21.11l-.34.1V41A56.57,56.57,0,0,0,23.69,82.52c9,8.77,18.8,12.66,21,12.66s12-3.89,21-12.66A56.53,56.53,0,0,0,83.05,41V21.21l-.35-.1c-3.41-1-6.88-2.07-10.32-3.3L72,17.69,57.27,38.76l10.63,3a1.42,1.42,0,0,1,.67,2.31L39,77.49A1.41,1.41,0,0,1,37.9,78a1.38,1.38,0,0,1-.66-.17,1.39,1.39,0,0,1-.71-1.6L43,50.89l-9-3.34a1.43,1.43,0,0,1-.81-1.9L49.65,7.79l-.39-.2C47.8,6.8,46.33,6,44.92,5.18L44.68,5Z"/><path class="cls-4" d="M44.68,2.45a.91.91,0,0,1,.48.13c2.18,1.27,4.45,2.53,6.76,3.73a1,1,0,0,1,.43,1.22L36.18,44.76l-.4.92.94.35L45,49.11a.94.94,0,0,1,.59,1.12l-4.85,19-1,3.79,2.59-2.93L64.8,44.78l1-1.12-1.45-.42L54.7,40.49a1,1,0,0,1-.63-.6.94.94,0,0,1,.12-.86L70.73,15.44a.94.94,0,0,1,.77-.4,1,1,0,0,1,.33.06c4.29,1.57,8.63,3,12.89,4.11a.94.94,0,0,1,.69.91V41A58.9,58.9,0,0,1,67.32,84.22a62.51,62.51,0,0,1-13.4,9.93c-4.59,2.51-7.78,3.4-9.24,3.4-2.22,0-6.23-1.75-9.24-3.4A62.51,62.51,0,0,1,22,84.22,58.92,58.92,0,0,1,4,41V20.12a.94.94,0,0,1,.7-.91A160.81,160.81,0,0,0,44.2,2.58a.91.91,0,0,1,.48-.13m0,93.21c1.47,0,4.78-1.26,8.23-3.13A60.09,60.09,0,0,0,66,82.86,57,57,0,0,0,83.52,41V20.85l-.69-.2c-3.4-1-6.86-2.06-10.29-3.28l-.68-.24-.41.59L57.27,37.94,56.5,39l1.28.36,10,2.86a1,1,0,0,1,.65.64,1,1,0,0,1-.21.9L38.61,77.18a1,1,0,0,1-.71.32,1,1,0,0,1-.44-.11A.94.94,0,0,1,37,76.32l6.35-24.9.21-.83-.8-.3-8.57-3.18a1,1,0,0,1-.54-.52,1,1,0,0,1,0-.75L49.91,8.38l.35-.8-.77-.41C48,6.39,46.57,5.58,45.15,4.76l-.47-.27-.47.28A161.75,161.75,0,0,1,6.53,20.65l-.69.2V41A57,57,0,0,0,23.36,82.86a60.33,60.33,0,0,0,13.09,9.67c3.45,1.87,6.76,3.13,8.23,3.13m0-94.16a2,2,0,0,0-1,.26A159.9,159.9,0,0,1,4.4,18.3,1.88,1.88,0,0,0,3,20.12V41A59.78,59.78,0,0,0,21.38,84.89c9,8.77,19.5,13.61,23.3,13.61S59,93.66,68,84.89A59.78,59.78,0,0,0,86.36,41V20.12A1.88,1.88,0,0,0,85,18.3c-4.22-1.15-8.53-2.53-12.81-4.09a1.82,1.82,0,0,0-.65-.12A1.89,1.89,0,0,0,70,14.9L53.41,38.49a1.9,1.9,0,0,0,1,2.91l9.65,2.75L41.67,69.44l4.85-19a1.9,1.9,0,0,0-1.18-2.25l-8.29-3.08L53.22,7.91a1.9,1.9,0,0,0-.87-2.44C50.06,4.28,47.8,3,45.64,1.76a2,2,0,0,0-1-.26Zm0,93.21C42.55,94.71,33,90.86,24,82.18A56.1,56.1,0,0,1,6.79,41V21.57a163.77,163.77,0,0,0,37.89-16C46.1,6.41,47.56,7.21,49,8L32.78,45.46a1.91,1.91,0,0,0,0,1.5,1.89,1.89,0,0,0,1.08,1l8.57,3.19-6.35,24.9a1.88,1.88,0,0,0,1,2.14,1.85,1.85,0,0,0,.88.22,1.91,1.91,0,0,0,1.42-.63l29.6-33.4a1.84,1.84,0,0,0,.4-1.78A1.88,1.88,0,0,0,68,41.34L58,38.48,72.22,18.26c3.46,1.23,6.93,2.34,10.35,3.31V41A56.1,56.1,0,0,1,65.34,82.18C56.4,90.86,46.82,94.71,44.68,94.71Z"/><path class="cls-3" d="M27,18.56c-3,1.25-6.1,2.43-9.18,3.51a1.89,1.89,0,0,0,.62,3.68,2,2,0,0,0,.63-.1c3.15-1.1,6.31-2.31,9.38-3.6A1.89,1.89,0,1,0,27,18.56Z"/><path class="cls-4" d="M18.43,26.61a2.75,2.75,0,0,1-.9-5.35c3.06-1.07,6.14-2.24,9.13-3.49h0a2.75,2.75,0,1,1,2.11,5.07c-3.09,1.29-6.27,2.51-9.43,3.61A2.81,2.81,0,0,1,18.43,26.61Zm8.89-7.27c-3,1.26-6.13,2.45-9.23,3.53a1,1,0,0,0,.34,2,1,1,0,0,0,.34-.06c3.14-1.09,6.28-2.29,9.35-3.57a1.08,1.08,0,0,0,.56-.57,1,1,0,0,0,0-.79,1,1,0,0,0-1.36-.57Z"/><path class="cls-3" d="M69.82,63.57a49.09,49.09,0,0,1-7.75,11.1,1.9,1.9,0,0,0,.11,2.68,1.94,1.94,0,0,0,1.29.5,1.86,1.86,0,0,0,1.39-.61,52.78,52.78,0,0,0,8.34-12,1.89,1.89,0,0,0-3.38-1.7Z"/><path class="cls-4" d="M63.47,78.7a2.74,2.74,0,0,1-2-4.61,47.71,47.71,0,0,0,7.61-10.91h0A2.75,2.75,0,0,1,74,65.66a53.31,53.31,0,0,1-8.48,12.16A2.73,2.73,0,0,1,63.47,78.7ZM70.58,64a49.41,49.41,0,0,1-7.88,11.3,1,1,0,0,0,.06,1.47,1,1,0,0,0,1.47-.06,51.61,51.61,0,0,0,8.21-11.77,1,1,0,0,0-.46-1.4,1,1,0,0,0-.8-.06,1,1,0,0,0-.6.52Z"/></svg>