<svg id="Capa_1" data-name="Capa 1" xmlns="http://www.w3.org/2000/svg" viewBox="0 0 285 285"><defs><style>.cls-1{fill:#dcf4bb;}.cls-2{fill:#4d7713;}</style></defs><path class="cls-1" d="M244.22,172l21.21-6.61L277.71,148V133.44l-4.48-14-10-11.72-5.58-4.47V94.38l-3.91-9.47-5.39-10.43c-.46,0-.93,0-1.4,0a34.47,34.47,0,0,0-3.68.2c-.92-2.52-2-5-3.11-7.37l-6-3.62H221.89l-6.81-5-8.27-19-8.09-7.57-9.88-9.58A85.88,85.88,0,0,0,78.7,86.83c-.93,0-1.87-.09-2.81-.09a48.22,48.22,0,0,0-35,81.47Z"/><path class="cls-2" d="M173.78,38a61.67,61.67,0,0,0-31.09-11.61h-.14a1.67,1.67,0,0,0-.15,3.34,57.92,57.92,0,0,1,49.18,36.49,1.68,1.68,0,0,0,2.17.94,1.66,1.66,0,0,0,.92-.9,1.68,1.68,0,0,0,0-1.28A61.25,61.25,0,0,0,173.78,38Z"/><path class="cls-2" d="M265.43,222.2a14.89,14.89,0,0,0-7,1.75l-2.55,1.36-18.07-18.08V172.61h6.45a36.24,36.24,0,0,0,17.32-68.08l-2.31-1.25.29-2.62a37,37,0,0,0,.22-3.93,36.3,36.3,0,0,0-36.23-36.24h-2.59l-1-2.4a87.48,87.48,0,0,0-165.3,11.8l-.74,2.83L51,72.81a49.91,49.91,0,0,0-8.82,98.73l3.11.65v35L27.16,225.31,24.61,224a14.89,14.89,0,0,0-7-1.75,15.07,15.07,0,1,0,15.07,15.07,14.89,14.89,0,0,0-1.75-7l-1.36-2.56,18.56-18.56a1.64,1.64,0,0,0,.49-1.18V172.61H90.7v64.76L72.62,255.45l-2.55-1.36a14.89,14.89,0,0,0-7-1.75A15.07,15.07,0,1,0,78.1,267.41a14.89,14.89,0,0,0-1.75-7L75,257.82l18.56-18.57a1.64,1.64,0,0,0,.49-1.18V172.61h45.7V222l-2.76.85a15.07,15.07,0,1,0,8.86,0l-2.75-.85v-49.4h45.85v65.46a1.68,1.68,0,0,0,.49,1.18L208,257.82l-1.35,2.55a14.79,14.79,0,0,0-1.76,7A15.07,15.07,0,1,0,220,252.34a14.83,14.83,0,0,0-7,1.75l-2.56,1.36-18.07-18.08V172.61h42.13v35.32a1.64,1.64,0,0,0,.49,1.18l18.56,18.56-1.36,2.56a14.89,14.89,0,0,0-1.75,7,15.07,15.07,0,1,0,15.07-15.07ZM17.57,249a11.72,11.72,0,1,1,11.72-11.72A11.73,11.73,0,0,1,17.57,249ZM63,279.14a11.73,11.73,0,1,1,11.72-11.73A11.74,11.74,0,0,1,63,279.14ZM220,255.69a11.73,11.73,0,1,1-11.72,11.72A11.74,11.74,0,0,1,220,255.69Zm-66.81-18.42a11.73,11.73,0,1,1-11.73-11.72A11.74,11.74,0,0,1,153.14,237.27Zm83-95.45a1.67,1.67,0,0,0-1.67,1.67v25.77H192.29V129.47a1.68,1.68,0,1,0-3.35,0v39.79H143.09V115.58a1.68,1.68,0,0,0-3.35,0v53.68H94.05V129.47a1.68,1.68,0,1,0-3.35,0v39.79H48.58V143.49a1.67,1.67,0,1,0-3.34,0V169l-4.93-1.33A46.55,46.55,0,0,1,52.44,76.14c.59,0,1.17,0,1.75,0l.9,0A46.75,46.75,0,0,1,83.4,87.9a1.68,1.68,0,0,0,2.36-.14,1.69,1.69,0,0,0-.14-2.37A49.85,49.85,0,0,0,61.48,73.61l-4.25-.78,1.19-4.15a84.13,84.13,0,0,1,159.8-5.74A1.69,1.69,0,0,0,220,64a32.38,32.38,0,0,1,3.5-.19A32.88,32.88,0,0,1,255.58,104a1.67,1.67,0,0,0,1,1.92,32.89,32.89,0,0,1-12.37,63.37h-6.45V143.49A1.68,1.68,0,0,0,236.09,141.82ZM265.43,249a11.72,11.72,0,1,1,11.72-11.72A11.73,11.73,0,0,1,265.43,249Z"/></svg>