<svg id="Capa_1" data-name="Capa 1" xmlns="http://www.w3.org/2000/svg" viewBox="0 0 248 284"><defs><style>.cls-1{fill:#dcf4bb;}.cls-2{fill:#afe762;}.cls-3{fill:#4d7713;}</style></defs><path class="cls-1" d="M239,215.22l3.83-18V75.43L146.86,19.15a2.71,2.71,0,0,0-2.7,0L26.21,86.23a2.69,2.69,0,0,0-1.36,2.34l-.37,134.56a2.69,2.69,0,0,0,1.33,2.33l95.35,55.94Z"/><polyline class="cls-2" points="75.48 111.54 125.47 84.11 176.42 113.42 176.42 173.67 125.16 201.81 72.65 169.22"/><path class="cls-3" d="M126.74,82.27a2,2,0,0,0-2,0L73.41,111.48a2,2,0,0,0-1,1.68l-.16,58.59a2,2,0,0,0,1,1.7L123.67,203l.13.07a2,2,0,0,0,1.93,0l.14-.08,50.82-28.87a2,2,0,0,0,1-1.69l.57-58.85a2,2,0,0,0-1-1.7l-.16-.1L126.74,82.27M122.83,198,76.22,170.63l.14-54,46.85,27.49Zm2.24-57.37L78.34,113.2l47.39-27,46.62,27.35Zm48.69,30.7-47,26.69.38-54L174.28,117Z"/><path class="cls-3" d="M2.64,74.89,2.27,209.45a4.7,4.7,0,0,0,2.31,4L120.67,281.6a4.79,4.79,0,0,0,4.67,0l117-66.48a4.67,4.67,0,0,0,2.36-4l.49-50.23a1.89,1.89,0,0,0-1.9-1.91h-.14a1.9,1.9,0,0,0-1.9,1.88h0l-.44,46a8.13,8.13,0,0,1-4.09,6.95L127.08,276.11a8.1,8.1,0,0,1-8.08-.06L10.22,212.23a8.1,8.1,0,0,1-4-7L6.57,79.17a8.08,8.08,0,0,1,4.08-7L121.2,9.28a8.09,8.09,0,0,1,8.09.05L238,73.13a8.09,8.09,0,0,1,4,7.05l-.45,47.17a1.93,1.93,0,0,0,.55,1.36,1.9,1.9,0,0,0,1.35.56h.14a1.9,1.9,0,0,0,1.9-1.88L246,76a4.67,4.67,0,0,0-2.3-4.06L127.61,3.78a4.72,4.72,0,0,0-4.66,0L5,70.85A4.68,4.68,0,0,0,2.64,74.89Z"/><line class="cls-3" x1="6.92" y1="210.17" x2="73.4" y2="171.79"/><rect class="cls-3" x="1.78" y="189.3" width="76.77" height="3.37" transform="translate(-90.12 45.68) rotate(-30)"/><line class="cls-3" x1="241.28" y1="210.17" x2="174.8" y2="171.79"/><rect class="cls-3" x="206.36" y="152.6" width="3.37" height="76.77" transform="translate(-61.38 275.66) rotate(-60)"/><rect class="cls-3" x="123.62" y="5.7" width="3.37" height="78.42" transform="translate(-0.8 2.29) rotate(-1.04)"/></svg>