<svg id="Capa_1" data-name="Capa 1" xmlns="http://www.w3.org/2000/svg" viewBox="0 0 285 285"><defs><style>.cls-1{fill:#dcf4bb;}.cls-2{fill:#4d7713;}</style></defs><path class="cls-1" d="M69,65.68H246.46V246.46H69Z"/><path class="cls-2" d="M281.5,193.06a1.67,1.67,0,0,0-1.67-1.67h-31.7v-30h31.7a1.67,1.67,0,1,0,0-3.34h-31.7V128h31.7a1.67,1.67,0,1,0,0-3.34h-31.7v-30h31.7a1.67,1.67,0,1,0,0-3.34h-31.7V39.54a1.67,1.67,0,0,0-1.67-1.67H194.73V6.17a1.67,1.67,0,1,0-3.34,0v31.7h-30V6.17a1.67,1.67,0,0,0-3.34,0v31.7H128V6.17a1.67,1.67,0,0,0-3.34,0v31.7h-30V6.17a1.67,1.67,0,0,0-3.34,0v31.7H39.54a1.67,1.67,0,0,0-1.67,1.67V91.27H6.17a1.67,1.67,0,0,0,0,3.34h31.7v30H6.17a1.67,1.67,0,0,0,0,3.34h31.7v30H6.17a1.67,1.67,0,1,0,0,3.34h31.7v30H6.17a1.67,1.67,0,1,0,0,3.34h31.7v51.73a1.67,1.67,0,0,0,1.67,1.67H91.27v31.7a1.67,1.67,0,0,0,3.34,0v-31.7h30v31.7a1.67,1.67,0,0,0,3.34,0v-31.7h30v31.7a1.67,1.67,0,0,0,3.34,0v-31.7h30v31.7a1.67,1.67,0,1,0,3.34,0v-31.7h26.7a1.67,1.67,0,0,0,0-3.34h-26.7v-15a1.67,1.67,0,1,0-3.34,0v15h-30v-15a1.67,1.67,0,0,0-3.34,0v15H128v-15a1.67,1.67,0,1,0-3.34,0v15h-30v-15a1.67,1.67,0,0,0-3.34,0v15H41.21V194.73h15a1.67,1.67,0,1,0,0-3.34h-15v-30h15a1.67,1.67,0,1,0,0-3.34h-15V128h15a1.67,1.67,0,0,0,0-3.34h-15v-30h15a1.67,1.67,0,0,0,0-3.34h-15V41.21H91.27v15a1.67,1.67,0,0,0,3.34,0v-15h30v15a1.67,1.67,0,0,0,3.34,0v-15h30v15a1.67,1.67,0,0,0,3.34,0v-15h30v15a1.67,1.67,0,1,0,3.34,0v-15h50.06V91.27h-15a1.67,1.67,0,0,0,0,3.34h15v30h-15a1.67,1.67,0,0,0,0,3.34h15v30h-15a1.67,1.67,0,0,0,0,3.34h15v30h-15a1.67,1.67,0,0,0,0,3.34h15v26.7a1.67,1.67,0,1,0,3.34,0v-26.7h31.7A1.67,1.67,0,0,0,281.5,193.06Z"/></svg>