<?xml version="1.0" encoding="utf-8"?>
<!-- Generator: Adobe Illustrator 24.1.0, SVG Export Plug-In . SVG Version: 6.00 Build 0)  -->
<svg version="1.1" id="Capa_1" xmlns="http://www.w3.org/2000/svg" xmlns:xlink="http://www.w3.org/1999/xlink" x="0px" y="0px"
	 viewBox="0 0 61 55" style="enable-background:new 0 0 61 55;" xml:space="preserve">
<style type="text/css">
	.st0{fill:#4D7713;}
</style>
<g id="XMLID_2077_">
	<g id="XMLID_126_">
		<path id="XMLID_270_" class="st0" d="M-446.5-337.5c-1.9,1.9-2.9,4.4-2.9,7.1c0,2.6,1.1,5.2,2.9,7.1c1.9,1.9,4.4,2.9,7.1,2.9
			c2.6,0,5.2-1.1,7.1-2.9c1.9-1.9,2.9-4.4,2.9-7.1c0-2.6-1.1-5.2-2.9-7.1c-1.9-1.9-4.4-2.9-7.1-2.9
			C-442.1-340.4-444.7-339.4-446.5-337.5z"/>
		<path id="XMLID_822_" class="st0" d="M-345.5-81.9h-135.4c17.4-8.5,33.6-19.5,48.1-32.8c4.1-3.7,4.3-10.1,0.6-14.1
			c-3.7-4.1-10.1-4.3-14.1-0.6c-33.2,30.7-76.4,47.5-121.6,47.5h-21.8c6.3-5,12.3-10.4,18.1-16.1c30.2-30.2,46.9-70.5,47-113.2
			c0.1-39.5-14.1-76.7-39.9-106L-498-384c12.1-12.1,28.2-18.8,45.3-18.8c35.3,0,64,28.7,64,64v77.5c0,21.1-3.6,41.7-10.8,61.3
			c-1.9,5.2,0.8,10.9,6,12.8c1.1,0.4,2.3,0.6,3.4,0.6c4.1,0,7.9-2.5,9.4-6.6c7.9-21.8,12-44.7,12-68.1v-42.3h23.2
			c4,0,7.7-2.4,9.2-6.2c1.5-3.7,0.7-8-2.2-10.9l-31.4-31.4c-6.4-40-41.2-70.7-83-70.7c-22.4,0-43.5,8.7-59.4,24.6L-831.2-79
			c-2.2,2.2-3.3,5.3-2.8,8.4c0.4,3.1,2.2,5.8,5,7.4c11.2,6.4,22.7,11.6,34.5,15.8l-50,50c-1.9,1.9-2.9,4.4-2.9,7.1
			c0,2.7,1.1,5.2,3,7.1c14.2,14.1,32.9,21.1,51.5,21.1c18.8,0,37.6-7.1,51.8-21.4l54.9-54.9c23.1-4,45.5-11.9,66.4-23.3h108.4
			l36.5,36.5v11.9c0,28.1,22.9,51,51,51h16c5.5,0,10-4.5,10-10v-16c0-28.1-22.9-51-51-51H-461l-22.3-22.3h137.8c5.5,0,10-4.5,10-10
			C-335.5-77.4-340-81.9-345.5-81.9L-345.5-81.9z M-646.7-167.2c-33.5,33.5-78,53.5-124.7,56.6l165.6-165.6
			C-603-235.9-617.6-196.3-646.7-167.2z M-791.7-90.3c2.5,0.1,5.1,0.2,7.6,0.2c56.6,0,111.2-22.5,151.5-62.8
			c37.2-37.2,53.7-89.6,44.7-141.1l9-9c22.1,25.4,34.1,57.7,34.1,91.8c-0.1,37.5-14.7,72.7-41.1,99.1
			C-644.5-53.6-733.9-39-807.5-74.5L-791.7-90.3z M-755.4,2.2c-18.2,18.2-46.6,20.4-67.2,6.6l49.9-49.9c16.2,3.8,32.7,5.7,49.2,5.7
			c1.9,0,3.8,0,5.8-0.1L-755.4,2.2z M-418.1,11.4v6h-6c-17.1,0-31-13.9-31-31v-6h6C-432-19.6-418.1-5.7-418.1,11.4z"/>
		<path id="XMLID_844_" class="st0" d="M-417.5-163.4c-1.9,1.9-2.9,4.4-2.9,7.1c0,2.6,1.1,5.2,2.9,7.1c1.9,1.9,4.4,2.9,7.1,2.9
			c2.6,0,5.2-1.1,7.1-2.9c1.9-1.9,2.9-4.4,2.9-7.1c0-2.6-1.1-5.2-2.9-7.1c-1.9-1.9-4.4-2.9-7.1-2.9
			C-413.1-166.3-415.6-165.3-417.5-163.4z"/>
	</g>
</g>
<g id="XMLID_1_">
	<g id="XMLID_2_">
		<path id="XMLID_5_" class="st0" d="M46.4,10.7c-0.2,0.2-0.3,0.5-0.3,0.8c0,0.3,0.1,0.6,0.3,0.8c0.2,0.2,0.5,0.3,0.8,0.3
			c0.3,0,0.6-0.1,0.8-0.3c0.2-0.2,0.3-0.5,0.3-0.8c0-0.3-0.1-0.6-0.3-0.8c-0.2-0.2-0.5-0.3-0.8-0.3C46.8,10.4,46.6,10.5,46.4,10.7z"
			/>
		<path id="XMLID_4_" class="st0" d="M57.4,38.6H42.6c1.9-0.9,3.7-2.1,5.3-3.6c0.4-0.4,0.5-1.1,0.1-1.5c-0.4-0.4-1.1-0.5-1.5-0.1
			c-3.6,3.4-8.4,5.2-13.3,5.2h-2.4c0.7-0.5,1.3-1.1,2-1.8c3.3-3.3,5.1-7.7,5.1-12.4c0-4.3-1.5-8.4-4.4-11.6l7.3-7.3
			c1.3-1.3,3.1-2.1,5-2.1c3.9,0,7,3.1,7,7V19c0,2.3-0.4,4.6-1.2,6.7c-0.2,0.6,0.1,1.2,0.7,1.4c0.1,0,0.2,0.1,0.4,0.1
			c0.4,0,0.9-0.3,1-0.7c0.9-2.4,1.3-4.9,1.3-7.5v-4.6h2.5c0.4,0,0.8-0.3,1-0.7c0.2-0.4,0.1-0.9-0.2-1.2l-3.4-3.4
			c-0.7-4.4-4.5-7.7-9.1-7.7c-2.5,0-4.8,1-6.5,2.7L4.3,38.9C4,39.2,3.9,39.5,4,39.9c0,0.3,0.2,0.6,0.5,0.8c1.2,0.7,2.5,1.3,3.8,1.7
			l-5.5,5.5c-0.2,0.2-0.3,0.5-0.3,0.8c0,0.3,0.1,0.6,0.3,0.8c1.6,1.5,3.6,2.3,5.6,2.3c2.1,0,4.1-0.8,5.7-2.3l6-6
			c2.5-0.4,5-1.3,7.3-2.5h11.9l4,4v1.3c0,3.1,2.5,5.6,5.6,5.6h1.8c0.6,0,1.1-0.5,1.1-1.1v-1.8c0-3.1-2.5-5.6-5.6-5.6h-1.3l-2.4-2.4
			h15.1c0.6,0,1.1-0.5,1.1-1.1C58.5,39.1,58,38.6,57.4,38.6L57.4,38.6z M24.5,29.3c-3.7,3.7-8.5,5.8-13.6,6.2l18.1-18.1
			C29.2,21.8,27.6,26.1,24.5,29.3z M8.6,37.7c0.3,0,0.6,0,0.8,0c6.2,0,12.2-2.5,16.6-6.9c4.1-4.1,5.9-9.8,4.9-15.4l1-1
			c2.4,2.8,3.7,6.3,3.7,10c0,4.1-1.6,7.9-4.5,10.8c-6.4,6.4-16.2,8-24.2,4.1L8.6,37.7z M12.6,47.8c-2,2-5.1,2.2-7.4,0.7l5.5-5.5
			c1.8,0.4,3.6,0.6,5.4,0.6c0.2,0,0.4,0,0.6,0L12.6,47.8z M49.5,48.8v0.7h-0.7c-1.9,0-3.4-1.5-3.4-3.4v-0.7h0.7
			C47.9,45.4,49.5,47,49.5,48.8z"/>
	</g>
</g>
</svg>
