<svg id="Layer_1" data-name="Layer 1" xmlns="http://www.w3.org/2000/svg" viewBox="0 0 970 449"><defs><style>.cls-1,.cls-10,.cls-11,.cls-12,.cls-13,.cls-14,.cls-15,.cls-16,.cls-17,.cls-18,.cls-19,.cls-2,.cls-20,.cls-21,.cls-22,.cls-23,.cls-24,.cls-25,.cls-26,.cls-27,.cls-28,.cls-29,.cls-3,.cls-30,.cls-31,.cls-32,.cls-33,.cls-34,.cls-35,.cls-36,.cls-37,.cls-38,.cls-39,.cls-4,.cls-40,.cls-41,.cls-42,.cls-43,.cls-44,.cls-45,.cls-46,.cls-47,.cls-48,.cls-49,.cls-5,.cls-50,.cls-6,.cls-7,.cls-8,.cls-9{fill:#bde08f;}.cls-1{opacity:0.57;}.cls-1,.cls-10,.cls-11,.cls-12,.cls-13,.cls-14,.cls-15,.cls-16,.cls-17,.cls-18,.cls-19,.cls-2,.cls-20,.cls-21,.cls-22,.cls-23,.cls-24,.cls-26,.cls-27,.cls-28,.cls-29,.cls-3,.cls-30,.cls-31,.cls-32,.cls-33,.cls-34,.cls-35,.cls-36,.cls-37,.cls-38,.cls-39,.cls-4,.cls-40,.cls-41,.cls-42,.cls-43,.cls-44,.cls-45,.cls-46,.cls-47,.cls-48,.cls-49,.cls-5,.cls-50,.cls-6,.cls-7,.cls-8,.cls-9{isolation:isolate;}.cls-2{opacity:0.77;}.cls-3{opacity:0.58;}.cls-4{opacity:0.9;}.cls-5{opacity:0.86;}.cls-6{opacity:0.94;}.cls-7{opacity:0.62;}.cls-8{opacity:0.92;}.cls-9{opacity:0.78;}.cls-10{opacity:0.61;}.cls-11{opacity:0.7;}.cls-12{opacity:0.82;}.cls-13{opacity:0.87;}.cls-14{opacity:0.55;}.cls-15{opacity:0.88;}.cls-16{opacity:0.52;}.cls-17{opacity:0.75;}.cls-18{opacity:0.89;}.cls-19{opacity:0.84;}.cls-20{opacity:0.67;}.cls-21{opacity:0.63;}.cls-22{opacity:0.99;}.cls-23{opacity:0.65;}.cls-24{opacity:0.81;}.cls-26{opacity:0.6;}.cls-27{opacity:0.56;}.cls-28{opacity:0.66;}.cls-29{opacity:0.95;}.cls-30{opacity:0.83;}.cls-31{opacity:0.96;}.cls-32{opacity:0.69;}.cls-33{opacity:0.8;}.cls-34{opacity:0.5;}.cls-35{opacity:0.76;}.cls-36{opacity:0.93;}.cls-37{opacity:0.71;}.cls-38{opacity:0.64;}.cls-39{opacity:0.51;}.cls-40{opacity:0.72;}.cls-41{opacity:0.85;}.cls-42{opacity:0.98;}.cls-43{opacity:0.68;}.cls-44{opacity:0.73;}.cls-45{opacity:0.54;}.cls-46{opacity:0.53;}.cls-47{opacity:0.91;}.cls-48{opacity:0.79;}.cls-49{opacity:0.74;}.cls-50{opacity:0.59;}</style></defs><path class="cls-1" d="M261.83,199.57l-13.36-7.82V176.12l.15-.08,13.21-7.72,13.35,7.8v15.63l-.12.08ZM249,191.42l12.79,7.44,12.8-7.49V176.46L261.83,169,249,176.46Z"/><path class="cls-2" d="M52.59,245.43l-.14-.09L0,214.7V153.17l.14-.08L52.59,122.4l.14.09,52.45,30.68V214.7l-.14.08Zm-52-31.05,52,30.43,52-30.43V153.55l-52-30.49-52,30.49Z"/><path class="cls-3" d="M52.59,199.57l-13.31-7.82V176.12l.14-.08,13.22-7.72L66,176.12v15.63l-.15.08Zm-12.8-8.15,12.8,7.44,12.8-7.49V176.46L52.59,169l-12.8,7.49Z"/><path class="cls-4" d="M157.2,398.48,130.77,383V352.09l.14-.09,26.32-15.38,26.43,15.47V383l-.14.08Zm-25.86-15.8,25.86,15.11,25.89-15.11V352.41l-25.89-15.1-25.86,15.1Z"/><path class="cls-5" d="M157.2,429.08l-52.63-30.76V336.78l.13-.07L157.15,306l52.64,30.76v61.54l-.13.07Zm-52-31.09,52,30.43,52-30.43V337.11l-52-30.43-52,30.43Z"/><path class="cls-6" d="M261.83,245.43l-.14-.09L156.93,184.06V61.37l.14-.09L261.83,0l.14.08L366.74,61.37V184.1l-.15.07ZM157.49,183.76l104.34,61,104.34-61V61.67L261.83.65l-104.34,61Z"/><path class="cls-7" d="M157.2,123.06l-.13-.09L104.62,92.29V30.76l.13-.07L157.2,0l.14.08,52.45,30.68V92.29l-.13.08ZM105.18,92l52,30.43,52-30.43V31.09L157.2.65l-52,30.44Z"/><path class="cls-8" d="M366.46,245.43l-.14-.09-52.45-30.68V153.17l.14-.08,52.45-30.69.13.09L419,153.17V214.7l-.14.08Zm-52-31.09,52,30.44,52-30.44V153.55l-52-30.43-52,30.43Z"/><path class="cls-9" d="M261.83,276.07,235.4,260.61V229.67l.14-.07,26.32-15.4,26.43,15.47v30.94l-.14.08ZM236,260.27l25.87,15.1,25.88-15.1V230.06L261.83,215,236,230.06Z"/><path class="cls-10" d="M157.2,199.57l-13.34-7.82V176.12L144,176l13.21-7.72,13.37,7.8v15.63l-.14.08Zm-12.79-8.15,12.79,7.44,12.8-7.49V176.46L157.2,169l-12.79,7.49Z"/><path class="cls-11" d="M366.46,214.86,340.08,199.4V168.47h.12l26.32-15.4L393,168.53v30.94l-.14.08Zm-25.88-15.8,25.88,15.11,25.87-15.11v-30.2l-25.87-15.11-25.88,15.11Z"/><path class="cls-12" d="M366.46,367.88l-.14-.09-52.45-30.68V275.64l.14-.09,52.45-30.69.13.09L419,275.64v61.52l-.14.07Zm-52-31.1,52,30.45,52-30.45V275.9l-52-30.47-52,30.43Z"/><polygon class="cls-1" points="192.39 449 157.49 428.6 157.49 306.5 261.83 245.47 366.17 306.5 366.17 428.6 331.28 449 332.39 449 366.59 429 366.74 428.91 366.74 306.18 261.97 244.9 261.83 244.81 157.08 306.1 156.93 306.18 156.93 428.91 191.27 449 192.39 449"/><polygon class="cls-13" points="227.77 449 261.83 429.08 295.88 449 297 449 261.83 428.42 226.65 449 227.77 449"/><polygon class="cls-14" points="157.49 449 157.49 428.91 261.83 367.88 366.17 428.91 366.17 449 366.74 449 366.74 428.6 261.97 367.3 261.83 367.23 157.08 428.51 156.93 428.6 156.93 449 157.49 449"/><path class="cls-15" d="M261.83,429.08l-52.64-30.76V336.78l.14-.07L261.78,306l52.64,30.76v61.54l-.15.07Zm-52-31.09,52,30.43,52-30.43V337.11l-52-30.43-52,30.43Z"/><polygon class="cls-16" points="349.31 449 340.57 443.89 340.57 413.62 366.46 398.48 392.33 413.62 392.33 443.89 383.59 449 384.71 449 392.88 444.22 392.88 413.28 366.46 397.82 340.01 413.28 340.01 444.22 348.2 449 349.31 449"/><polygon class="cls-17" points="227.77 449 261.83 429.08 295.88 449 297 449 261.83 428.42 226.65 449 227.77 449"/><path class="cls-18" d="M261.83,77.15l-13.36-7.81V53.72l.15-.09,13.21-7.73,13.35,7.82V69.34l-.12.09ZM249,69l12.79,7.55L274.63,69v-15l-12.8-7.48L249,54.06Z"/><path class="cls-19" d="M471.08,92.46,444.64,77V46.07l.14-.08L471.1,30.6l26.41,15.47V77l-.14.09Zm-25.89-15.8,25.89,15.11,25.86-15.11V46.46L471.08,31.35,445.19,46.46Z"/><path class="cls-20" d="M366.46,276.07l-26.38-15.46V229.67l.12-.07,26.32-15.4L393,229.67v30.94l-.14.08Zm-25.88-15.8,25.88,15.1,25.87-15.1V230.06L366.46,215l-25.88,15.1Z"/><path class="cls-21" d="M261.83,199.57l-13.36-7.82V176.12l.15-.08,13.21-7.72,13.35,7.8v15.63l-.12.08ZM249,191.42l12.79,7.44,12.8-7.49V176.46L261.83,169,249,176.46Z"/><path class="cls-16" d="M261.83,322l-13.36-7.82V298.53l.15-.09,13.21-7.7,13.35,7.8v15.61l-.12.09ZM249,313.84l12.79,7.55,12.8-7.55v-15l-12.8-7.48L249,298.85Z"/><path class="cls-22" d="M471.08,367.88l-.14-.09-52.45-30.68V275.64l.13-.09,52.46-30.69.13.09,52.46,30.69v61.52l-.14.07Zm-52-31.1,52,30.45,52-30.45V275.9l-52-30.47L419,275.9Z"/><path class="cls-16" d="M471.08,444.38l-13.35-7.82V421l13.35-7.83L484.42,421v15.61Zm-12.8-8.14,12.8,7.49,12.79-7.49v-15l-12.79-7.49-12.8,7.49Z"/><polygon class="cls-23" points="419.04 449 419.04 398.31 471.08 367.88 523.11 398.31 523.11 449 523.66 449 523.66 397.99 471.21 367.3 471.08 367.23 418.62 397.91 418.49 397.99 418.49 449 419.04 449"/><path class="cls-22" d="M575.7,92.46,549.26,77V46.07l.15-.08L575.73,30.6l26.39,15.47V77l-.12.09Zm-25.89-15.8,25.88,15.11,25.88-15.11V46.46L575.7,31.25l-25.88,15.1Z"/><path class="cls-2" d="M575.7,367.88l-.12-.09-52.52-30.68V275.64l.14-.09,52.5-30.74.15.09,52.49,30.74v61.52l-.15.07Zm-52-31.1,52,30.45,52-30.45V275.9l-52-30.47-52,30.43Z"/><polygon class="cls-24" points="401.63 449 366.74 428.6 366.74 306.5 471.08 245.47 575.43 306.5 575.43 428.6 540.53 449 541.64 449 575.84 429 575.98 428.91 575.98 306.18 471.21 244.9 471.08 244.81 366.32 306.1 366.17 306.18 366.17 428.91 400.51 449 401.63 449"/><path class="cls-25" d="M575.7,444.38l-13.34-7.82V421l13.34-7.83L589.06,421v15.61Zm-12.78-8.14,12.78,7.49,12.81-7.49v-15l-12.81-7.49-12.78,7.49Z"/><polygon class="cls-21" points="314.42 449 314.42 398.31 366.46 367.88 418.49 398.31 418.49 449 419.04 449 419.04 397.99 366.59 367.3 366.46 367.23 314.01 397.91 313.87 397.99 313.87 449 314.42 449"/><path class="cls-3" d="M366.46,444.38l-13.36-7.82V421l13.36-7.83L379.81,421v15.61Zm-12.81-8.14,12.81,7.49,12.8-7.49v-15l-12.8-7.49-12.81,7.49Z"/><polygon class="cls-26" points="314.42 449 314.42 398.31 366.46 367.88 418.49 398.31 418.49 449 419.04 449 419.04 397.99 366.59 367.3 366.46 367.23 314.01 397.91 313.87 397.99 313.87 449 314.42 449"/><polygon class="cls-26" points="437.02 449 471.08 429.08 505.13 449 506.24 449 471.08 428.42 435.91 449 437.02 449"/><path class="cls-7" d="M471.08,77.15l-13.35-7.81V53.72l.12-.09,13.23-7.73,13.34,7.82V69.34l-.13.09ZM458.28,69l12.8,7.55L483.87,69v-15l-12.79-7.48-12.8,7.49Z"/><path class="cls-8" d="M471.08,199.57l-13.35-7.82V176.12l.12-.08,13.23-7.72,13.34,7.8v15.63l-.13.08Zm-12.8-8.15,12.8,7.44,12.79-7.49V176.46L471.08,169l-12.8,7.49Z"/><path class="cls-27" d="M471.08,367.88l-.14-.09-52.45-30.68V275.64l.13-.09,52.46-30.69.13.09,52.46,30.69v61.52l-.14.07Zm-52-31.1,52,30.45,52-30.45V275.9l-52-30.47L419,275.9Z"/><path class="cls-28" d="M680.32,337.31l-26.43-15.46v-31l.13-.09,26.32-15.38,26.44,15.47v30.94l-.14.07Zm-25.88-15.8,25.88,15.11,25.88-15.11v-30.3L680.32,276.1l-25.88,15.11Z"/><path class="cls-29" d="M575.7,429.08l-52.64-30.76V336.78l.14-.07L575.7,306l52.64,30.76v61.54l-.15.07Zm-52-31.09,52,30.43,52-30.43V337.11l-52-30.43-52,30.43Z"/><path class="cls-30" d="M680.32,367.88l-.14-.09L575.43,306.5V183.76l.14-.08,104.75-61.29.14.09,104.76,61.28V306.49l-.14.08ZM576,306.21l104.34,61,104.35-61V184.12l-104.35-61L576,184.12Z"/><path class="cls-31" d="M575.7,199.57l-13.34-7.82V176.12l.13-.08,13.21-7.72,13.36,7.8v15.63l-.13.08Zm-12.78-8.15,12.78,7.44,12.81-7.49V176.46L575.7,169l-12.78,7.49Z"/><path class="cls-32" d="M785,245.43l-.15-.09L732.37,214.7V153.17l.12-.08L785,122.4l.14.09,52.45,30.68V214.7l-.14.08Zm-52-31.09,52,30.47,52-30.43V153.55l-52-30.49-52.1,30.49Z"/><path class="cls-14" d="M680.32,398.48,653.89,383V352.09L654,352l26.32-15.38,26.44,15.47V383l-.14.08Zm-25.88-15.8,25.88,15.11,25.88-15.11V352.41l-25.88-15.1-25.88,15.1Z"/><path class="cls-33" d="M680.32,306.68l-.14-.09L627.73,275.9V214.38l.14-.09,52.45-30.68.14.09,52.45,30.68V275.9l-.14.09Zm-52-31,52,30.43,52-30.43V214.7l-52-30.44-52,30.44Z"/><polygon class="cls-34" points="646.25 449 680.32 429.08 714.38 449 715.5 449 680.32 428.42 645.14 449 646.25 449"/><polygon class="cls-35" points="523.66 449 523.66 398.31 575.69 367.88 627.73 398.31 627.73 449 628.29 449 628.29 397.99 575.84 367.3 575.69 367.23 523.25 397.91 523.11 397.99 523.11 449 523.66 449"/><path class="cls-36" d="M680.32,429.08l-52.64-30.76V336.78l.14-.07L680.27,306l52.64,30.76v61.54l-.14.07Zm-52-31.09,52,30.43,52-30.43V337.11l-52-30.43-52,30.43Z"/><polygon class="cls-20" points="767.8 449 759.07 443.89 759.07 413.62 784.95 398.48 810.82 413.62 810.82 443.89 802.08 449 803.18 449 811.38 444.22 811.38 413.28 784.95 397.82 758.5 413.28 758.5 444.22 766.7 449 767.8 449"/><polygon class="cls-27" points="646.25 449 680.32 429.08 714.38 449 715.5 449 680.32 428.42 645.14 449 646.25 449"/><path class="cls-37" d="M680.32,77.15,667,69.34V53.72l.14-.09,13.22-7.73,13.36,7.82V69.34l-.15.09ZM667.52,69l12.8,7.55L693.11,69v-15l-12.79-7.48-12.8,7.49Z"/><path class="cls-21" d="M680.32,123.06l-.14-.09L627.73,92.29V30.76l.14-.07L680.32,0l.14.08,52.45,30.68V92.29l-.14.08ZM628.34,92l52,30.43,52-30.43V31.09L680.32.65l-52,30.44Z"/><path class="cls-36" d="M889.56,123.06l-.14-.09L837,92.29V30.76l.13-.07L889.56,0,942.2,30.76V92.29l-.14.08ZM837.54,92l52,30.43,52-30.43V31.09L889.56.65l-52,30.44Z"/><path class="cls-38" d="M889.56,245.43,837,214.66V153.17l.13-.08,52.45-30.69,52.64,30.77V214.7l-.14.08Zm-52-31.09,52,30.44,52-30.44V153.55l-52-30.43-52,30.43Z"/><path class="cls-18" d="M785,367.88l-.15-.09L680.11,306.5V183.76l.13-.08L785,122.4l.14.09,104.7,61.27V306.49l-.14.08ZM680.67,306.21l104.34,61,104.34-61.05V184.1L785,123.06l-104.34,61Z"/><path class="cls-23" d="M680.32,199.57,667,191.75V176.12l.14-.08,13.22-7.72,13.36,7.8v15.63l-.15.08Zm-12.8-8.15,12.8,7.44,12.79-7.49V176.46L680.32,169l-12.8,7.49Z"/><path class="cls-7" d="M680.32,322,667,314.15V298.53l.14-.09,13.22-7.7,13.36,7.8v15.61l-.15.09Zm-12.8-8.13,12.8,7.55,12.79-7.55v-15l-12.79-7.48-12.8,7.48Z"/><path class="cls-22" d="M889.56,444.38l-13.36-7.82V421l13.36-7.83L902.92,421v15.61Zm-12.8-8.14,12.8,7.49,12.81-7.49v-15l-12.81-7.49-12.8,7.49Z"/><path class="cls-16" d="M785,199.57l-13.36-7.82V176.12l.14-.08L785,168.32l13.35,7.8v15.63l-.14.08Zm-12.81-8.15L785,198.86l12.8-7.49V176.46L785,169l-12.81,7.49Z"/><path class="cls-39" d="M785,245.43l-.15-.09L732.37,214.7V153.17l.12-.08L785,122.4l.14.09,52.45,30.68V214.7l-.14.08Zm-52-31.09,52,30.47,52-30.43V153.55l-52-30.49-52.1,30.49Z"/><polygon class="cls-23" points="970 353.07 942.15 336.78 942.15 275.9 970 259.6 970 258.97 941.74 275.5 941.59 275.59 941.59 337.11 970 353.72 970 353.07"/><path class="cls-39" d="M889.56,429.08,837,398.32V336.78l.13-.07L889.56,306l52.64,30.76v61.54l-.14.07Zm-52-31.09,52,30.43,52-30.43V337.11l-52-30.43-52,30.43Z"/><polygon class="cls-23" points="970 322.47 968.31 321.48 968.31 291.21 970 290.21 970 289.57 967.89 290.79 967.76 290.88 967.76 321.82 970 323.11 970 322.47"/><polygon class="cls-40" points="855.5 449 889.56 429.08 923.63 449 924.74 449 889.56 428.42 854.38 449 855.5 449"/><polygon class="cls-32" points="732.91 449 732.91 398.31 784.95 367.88 836.98 398.31 836.98 449 837.54 449 837.54 397.99 785.08 367.3 784.95 367.23 732.5 397.91 732.36 397.99 732.36 449 732.91 449"/><path class="cls-41" d="M889.56,429.08,837,398.32V336.78l.13-.07L889.56,306l52.64,30.76v61.54l-.14.07Zm-52-31.09,52,30.43,52-30.43V337.11l-52-30.43-52,30.43Z"/><polygon class="cls-24" points="970 353.07 889.85 306.18 889.85 184.1 970 137.22 970 136.56 889.42 183.7 889.3 183.77 889.3 306.5 970 353.72 970 353.07"/><polygon class="cls-38" points="924.74 449 889.85 428.6 889.85 306.5 970 259.6 970 258.97 889.42 306.1 889.3 306.18 889.3 428.91 923.63 449 924.74 449"/><polygon class="cls-25" points="970 291.87 942.15 275.59 942.15 214.69 970 198.42 970 197.77 941.74 214.29 941.59 214.38 941.59 275.9 970 292.52 970 291.87"/><polygon class="cls-42" points="960.12 449 970 443.22 970 442.57 959.01 449 960.12 449"/><polygon class="cls-21" points="960.12 449 970 443.22 970 442.57 959.01 449 960.12 449"/><polygon class="cls-41" points="970 108.27 942.15 91.97 942.15 31.09 970 14.8 970 14.15 941.74 30.68 941.59 30.76 941.59 92.3 970 108.91 970 108.27"/><polygon class="cls-43" points="942.15 449 942.15 398.31 970 382.02 970 381.36 941.74 397.91 941.59 397.99 941.59 449 942.15 449"/><path class="cls-24" d="M252.09,191.59a3.35,3.35,0,1,1-3.34-3.39A3.38,3.38,0,0,1,252.09,191.59Z"/><path class="cls-44" d="M265.17,199.24a3.35,3.35,0,1,1-3.34-3.39,3.35,3.35,0,0,1,3.34,3.39Z"/><path class="cls-35" d="M278.25,191.59a3.35,3.35,0,1,1-3.35-3.39,3.34,3.34,0,0,1,3.35,3.39Z"/><path class="cls-2" d="M55.92,245.14a3.33,3.33,0,1,1-3.33-3.38A3.34,3.34,0,0,1,55.92,245.14Z"/><path class="cls-36" d="M42.85,176.28a3.35,3.35,0,1,1-3.33-3.37A3.35,3.35,0,0,1,42.85,176.28Z"/><path class="cls-32" d="M186.7,382.85a3.34,3.34,0,1,1-3.31-3.38h0A3.37,3.37,0,0,1,186.7,382.85Z"/><path class="cls-16" d="M108.21,398.14a3.35,3.35,0,1,1-3.33-3.37,3.35,3.35,0,0,1,3.33,3.37Z"/><path class="cls-9" d="M212.85,337a3.33,3.33,0,1,1-3.33-3.39A3.35,3.35,0,0,1,212.85,337Z"/><path class="cls-24" d="M108.21,337a3.35,3.35,0,1,1-3.31-3.42A3.35,3.35,0,0,1,108.21,337Z"/><path class="cls-44" d="M160.55,183.93a3.35,3.35,0,1,1-3.35-3.37A3.35,3.35,0,0,1,160.55,183.93Z"/><path class="cls-21" d="M160.55,61.53a3.35,3.35,0,1,1-3.35-3.38,3.35,3.35,0,0,1,3.35,3.38Z"/><path class="cls-16" d="M212.85,92.13a3.33,3.33,0,1,1-3.33-3.37,3.33,3.33,0,0,1,3.33,3.37Z"/><path class="cls-9" d="M108.21,30.92a3.35,3.35,0,1,1-3.33-3.37,3.35,3.35,0,0,1,3.33,3.37Z"/><path class="cls-6" d="M265.17,275.75a3.35,3.35,0,1,1-3.34-3.4,3.35,3.35,0,0,1,3.34,3.4Z"/><path class="cls-30" d="M291.32,229.84a3.35,3.35,0,1,1-3.33-3.39,3.34,3.34,0,0,1,3.33,3.39Z"/><path class="cls-38" d="M239,229.84a3.34,3.34,0,1,1-3.33-3.39,3.34,3.34,0,0,1,3.33,3.39Z"/><path class="cls-18" d="M343.64,199.24a3.35,3.35,0,1,1-3.34-3.39,3.35,3.35,0,0,1,3.34,3.39Z"/><path class="cls-41" d="M369.79,214.54a3.35,3.35,0,1,1-3.33-3.38A3.35,3.35,0,0,1,369.79,214.54Z"/><path class="cls-22" d="M317.52,337a3.35,3.35,0,1,1-3.34-3.39A3.36,3.36,0,0,1,317.52,337Z"/><path class="cls-44" d="M369.79,428.75a3.35,3.35,0,1,1-3.33-3.39A3.34,3.34,0,0,1,369.79,428.75Z"/><path class="cls-22" d="M265.17,367.52a3.35,3.35,0,1,1-3.34-3.39A3.36,3.36,0,0,1,265.17,367.52Z"/><path class="cls-45" d="M343.64,444.05a3.35,3.35,0,1,1-3.34-3.38,3.37,3.37,0,0,1,3.34,3.38Z"/><ellipse class="cls-9" cx="261.83" cy="46.23" rx="3.33" ry="3.39"/><path class="cls-46" d="M396,260.43a3.35,3.35,0,1,1-3.35-3.37,3.35,3.35,0,0,1,3.35,3.37Z"/><path class="cls-22" d="M343.64,229.84a3.35,3.35,0,1,1-3.34-3.39,3.36,3.36,0,0,1,3.34,3.39Z"/><path class="cls-21" d="M252.09,191.59a3.35,3.35,0,1,1-3.34-3.39A3.38,3.38,0,0,1,252.09,191.59Z"/><path class="cls-24" d="M278.25,298.7a3.35,3.35,0,1,1-3.35-3.39,3.35,3.35,0,0,1,3.35,3.39Z"/><path class="cls-2" d="M422.11,337a3.35,3.35,0,1,1-3.35-3.39A3.36,3.36,0,0,1,422.11,337Z"/><path class="cls-45" d="M474.42,367.52a3.35,3.35,0,1,1-3.34-3.39A3.38,3.38,0,0,1,474.42,367.52Z"/><path class="cls-41" d="M526.74,337a3.35,3.35,0,1,1-3.36-3.39A3.37,3.37,0,0,1,526.74,337Z"/><path class="cls-27" d="M526.74,275.75a3.35,3.35,0,1,1-3.36-3.4,3.39,3.39,0,0,1,3.36,3.4Z"/><path class="cls-41" d="M474.42,245.14a3.35,3.35,0,1,1-3.34-3.38A3.35,3.35,0,0,1,474.42,245.14Z"/><path class="cls-10" d="M461.34,421.11a3.35,3.35,0,1,1-3.35-3.4,3.36,3.36,0,0,1,3.35,3.4Z"/><path class="cls-3" d="M579,30.92a3.35,3.35,0,1,1-3.34-3.37A3.35,3.35,0,0,1,579,30.92Z"/><path class="cls-2" d="M579,367.52a3.35,3.35,0,1,1-3.35-3.39,3.36,3.36,0,0,1,3.35,3.39Z"/><path class="cls-1" d="M369.79,428.75a3.35,3.35,0,1,1-3.33-3.39A3.34,3.34,0,0,1,369.79,428.75Z"/><path class="cls-47" d="M566,436.4a3.33,3.33,0,1,1-3.33-3.38A3.34,3.34,0,0,1,566,436.4Z"/><path class="cls-42" d="M356.71,436.4a3.34,3.34,0,1,1-3.33-3.38,3.34,3.34,0,0,1,3.33,3.38Z"/><path class="cls-4" d="M461.34,69.22A3.35,3.35,0,1,1,458,65.84a3.37,3.37,0,0,1,3.35,3.38Z"/><path class="cls-43" d="M474.42,168.66a3.35,3.35,0,1,1-3.34-3.38A3.34,3.34,0,0,1,474.42,168.66Z"/><path class="cls-29" d="M683.65,337a3.33,3.33,0,1,1-3.33-3.39A3.35,3.35,0,0,1,683.65,337Z"/><path class="cls-4" d="M631.34,337a3.34,3.34,0,1,1-3.34-3.39A3.35,3.35,0,0,1,631.34,337Z"/><path class="cls-6" d="M579,306.35a3.35,3.35,0,1,1-3.35-3.4,3.36,3.36,0,0,1,3.35,3.4Z"/><path class="cls-1" d="M579,183.93a3.35,3.35,0,1,1-3.35-3.37A3.35,3.35,0,0,1,579,183.93Z"/><path class="cls-40" d="M592.12,191.59a3.35,3.35,0,1,1-3.34-3.39A3.38,3.38,0,0,1,592.12,191.59Z"/><path class="cls-48" d="M788.28,122.74a3.35,3.35,0,1,1-3.32-3.39h0A3.36,3.36,0,0,1,788.28,122.74Z"/><path class="cls-18" d="M736,153.34a3.34,3.34,0,1,1-3.34-3.39A3.38,3.38,0,0,1,736,153.34Z"/><path class="cls-45" d="M657.51,352.25a3.35,3.35,0,1,1-3.34-3.39,3.37,3.37,0,0,1,3.34,3.39Z"/><path class="cls-30" d="M736,275.75a3.34,3.34,0,1,1-3.34-3.4,3.35,3.35,0,0,1,3.34,3.4Z"/><path class="cls-14" d="M683.65,428.75a3.33,3.33,0,1,1-3.33-3.39,3.34,3.34,0,0,1,3.33,3.39Z"/><path class="cls-49" d="M579,367.52a3.35,3.35,0,1,1-3.35-3.39,3.36,3.36,0,0,1,3.35,3.39Z"/><path class="cls-1" d="M736,398.14a3.35,3.35,0,1,1-3.34-3.37,3.36,3.36,0,0,1,3.34,3.37Z"/><path class="cls-11" d="M631.34,337a3.34,3.34,0,1,1-3.34-3.39A3.35,3.35,0,0,1,631.34,337Z"/><path class="cls-29" d="M814.44,444.05a3.35,3.35,0,1,1-3.34-3.38A3.37,3.37,0,0,1,814.44,444.05Z"/><path class="cls-22" d="M788.28,398.14a3.35,3.35,0,1,1-3.33-3.37,3.36,3.36,0,0,1,3.33,3.37Z"/><ellipse class="cls-3" cx="680.32" cy="46.23" rx="3.33" ry="3.39"/><path class="cls-23" d="M631.34,92.13A3.34,3.34,0,1,1,628,88.76a3.34,3.34,0,0,1,3.34,3.37Z"/><path class="cls-28" d="M840.59,92.13a3.35,3.35,0,1,1-3.34-3.37,3.34,3.34,0,0,1,3.34,3.37Z"/><path class="cls-23" d="M892.9,245.14a3.34,3.34,0,1,1-3.34-3.38,3.35,3.35,0,0,1,3.34,3.38Z"/><path class="cls-33" d="M945.21,214.54a3.34,3.34,0,1,1-3.33-3.38,3.33,3.33,0,0,1,3.33,3.38Z"/><path class="cls-13" d="M670.58,191.59a3.34,3.34,0,1,1-3.33-3.39A3.34,3.34,0,0,1,670.58,191.59Z"/><path class="cls-15" d="M683.65,168.66a3.34,3.34,0,1,1-3.33-3.38,3.35,3.35,0,0,1,3.33,3.38Z"/><path class="cls-49" d="M670.58,314a3.34,3.34,0,1,1-3.33-3.38,3.34,3.34,0,0,1,3.33,3.38Z"/><path class="cls-25" d="M683.65,321.64a3.34,3.34,0,1,1-3.33-3.37,3.33,3.33,0,0,1,3.33,3.37Z"/><path class="cls-25" d="M696.74,298.7a3.35,3.35,0,1,1-3.35-3.39A3.36,3.36,0,0,1,696.74,298.7Z"/><path class="cls-26" d="M670.58,298.7a3.34,3.34,0,1,1-3.33-3.39A3.35,3.35,0,0,1,670.58,298.7Z"/><path class="cls-34" d="M892.9,444.05a3.34,3.34,0,1,1-3.34-3.38,3.35,3.35,0,0,1,3.34,3.38Z"/><path class="cls-13" d="M892.9,413.46a3.34,3.34,0,1,1-3.34-3.39,3.35,3.35,0,0,1,3.34,3.39Z"/><path class="cls-20" d="M801.36,191.59A3.35,3.35,0,1,1,798,188.2,3.38,3.38,0,0,1,801.36,191.59Z"/><path class="cls-6" d="M775.21,176.28a3.35,3.35,0,1,1-3.35-3.37,3.35,3.35,0,0,1,3.35,3.37Z"/><path class="cls-30" d="M840.59,153.34a3.35,3.35,0,1,1-3.34-3.39,3.34,3.34,0,0,1,3.34,3.39Z"/><path class="cls-15" d="M788.28,122.74a3.35,3.35,0,1,1-3.32-3.39h0A3.36,3.36,0,0,1,788.28,122.74Z"/><path class="cls-40" d="M736,153.34a3.34,3.34,0,1,1-3.34-3.39A3.38,3.38,0,0,1,736,153.34Z"/><path class="cls-41" d="M945.21,337a3.34,3.34,0,1,1-3.33-3.39A3.35,3.35,0,0,1,945.21,337Z"/><path class="cls-40" d="M945.21,275.75a3.34,3.34,0,1,1-3.33-3.4,3.38,3.38,0,0,1,3.33,3.4Z"/><path class="cls-17" d="M970,288.32a3.3,3.3,0,0,0-2-.66,3.39,3.39,0,0,0,0,6.77h0a3.24,3.24,0,0,0,2-.67Z"/><path class="cls-36" d="M736,398.14a3.34,3.34,0,1,1-3.34-3.37,3.34,3.34,0,0,1,3.34,3.37Z"/><path class="cls-29" d="M945.21,398.14a3.34,3.34,0,1,1-3.33-3.37,3.33,3.33,0,0,1,3.33,3.37Z"/><path class="cls-14" d="M892.9,183.93a3.34,3.34,0,1,1-3.34-3.37,3.35,3.35,0,0,1,3.34,3.37Z"/><path class="cls-50" d="M892.9,306.35a3.34,3.34,0,1,1-3.34-3.4,3.35,3.35,0,0,1,3.34,3.4Z"/></svg>