<?xml version="1.0" encoding="utf-8"?>
<!-- Generator: Adobe Illustrator 24.1.0, SVG Export Plug-In . SVG Version: 6.00 Build 0)  -->
<svg version="1.1" id="Layer_1" xmlns="http://www.w3.org/2000/svg" xmlns:xlink="http://www.w3.org/1999/xlink" x="0px" y="0px"
	 viewBox="0 0 115 115" style="enable-background:new 0 0 115 115;" xml:space="preserve">
<style type="text/css">
	.st0{fill:#DCF4BB;}
	.st1{fill:#4D7713;}
	.st2{fill:#FFFFFF;}
</style>
<path class="st0" d="M107.5,72.4c0-5.2-2.6-10.1-7-12.9c10.5-12.4,9.1-31.1-3.3-41.7c-13.3-5.3-28.4-0.4-36.1,11.7
	c-2.4-2.3-5.2-4.1-8.3-5.4c-0.1,0.1-0.1,0.1-0.1,0.2l-0.5-0.5c-13.5-5-28.6,1.9-33.6,15.4c-3.4,9.3-1.3,19.7,5.4,26.9
	c-9.3,9.2-9.3,24.2-0.1,33.4c0.2,0.2,0.4,0.4,0.6,0.6c7.3,2.5,15.3,1.3,21.5-3.2c1.7,2.5,3.7,4.8,6.1,6.6c0.8-0.5,1.6-0.9,2.3-1.5
	c1.3,2,3,3.9,4.8,5.5c14.3,5.5,30.3-1.7,35.8-16c0.6-1.5,1-3,1.3-4.5C102.9,85.3,107.5,79.2,107.5,72.4z"/>
<path class="st1" d="M69.2,111c-9.1,0-17.7-4.2-23.2-11.5l-0.3-0.4l-0.4,0.2c-11.9,7.1-27.4,3.3-34.5-8.6
	c-5.6-9.3-4.6-21.1,2.5-29.4l0.3-0.3l-0.3-0.3C9.2,55.8,7,49.6,7,43.2c0-4.1,0.9-8.2,2.7-11.9c0.3-0.5,0.8-0.9,1.4-0.9
	c0.2,0,0.4,0,0.6,0.1c0.7,0.4,1.1,1.3,0.7,2C8.1,41.7,9.7,52.6,16.7,60c0.6,0.6,0.6,1.5,0,2.1C8,70.8,8,84.8,16.7,93.4
	c7.6,7.6,19.7,8.6,28.5,2.4c0.3-0.2,0.6-0.3,0.9-0.3h0.3c0.4,0.1,0.8,0.3,1,0.7c7.9,12.1,24.2,15.4,36.2,7.5
	c5.9-3.9,9.9-9.9,11.3-16.8c0.1-0.6,0.5-1,1.1-1.2c7.4-2.1,11.7-9.8,9.6-17.1c-0.9-3.2-3-6-5.8-7.9c-0.7-0.4-0.9-1.4-0.5-2.1
	c0-0.1,0.1-0.1,0.1-0.2c10.2-11.8,8.9-29.6-2.9-39.8s-29.6-8.9-39.8,2.9c-1,1.1-1.8,2.3-2.6,3.5c-0.2,0.4-0.6,0.6-1.1,0.7h-0.2
	c-0.4,0-0.7-0.2-1-0.4C44,18,32.4,16.4,23,21.5c-0.7,0.4-1.6,0.2-2.1-0.5c-0.4-0.7-0.2-1.6,0.5-2.1c0,0,0.1-0.1,0.1-0.1
	c9.8-5.3,21.8-4.2,30.4,2.8l0.4,0.3l0.3-0.4c5.9-8,15.2-12.6,25-12.6C95,9,109,23,109,40.2c0,6.7-2.1,13.2-6.1,18.5l-0.3,0.4
	l0.4,0.3c7.1,6,8.1,16.6,2.1,23.8c-1.9,2.3-4.4,4-7.2,5l-0.3,0.1l-0.1,0.3C94.4,101.7,82.7,111,69.2,111z"/>
<path class="st2" d="M77.8,9.5c17,0,30.7,13.7,30.8,30.7c0,6.6-2.1,13-6,18.3l-0.6,0.8l0.7,0.6c6.9,5.8,7.8,16.2,1.9,23.1
	c-1.9,2.2-4.2,3.9-6.9,4.8L97.2,88L97,88.5c-3.7,15.4-19.1,24.9-34.5,21.3c-6.5-1.5-12.2-5.3-16.2-10.6l-0.5-0.7L45,99
	c-11.7,7.1-26.8,3.3-33.9-8.3c-5.6-9.2-4.5-20.9,2.5-29l0.6-0.6l-0.5-0.7C7,52.2,5.6,41,10.2,31.5c0.2-0.4,0.5-0.6,0.9-0.6
	c0.1,0,0.3,0,0.4,0.1c0.5,0.2,0.7,0.8,0.5,1.3c0,0,0,0,0,0c-4.5,9.3-2.7,20.4,4.3,28c0.4,0.4,0.4,1,0,1.4c-8.8,8.9-8.8,23.2,0,32
	c7.8,7.8,20.1,8.8,29.1,2.4c0.2-0.1,0.4-0.2,0.6-0.2h0.2c0.3,0,0.5,0.2,0.7,0.4c8.1,12.3,24.6,15.7,36.9,7.7
	c6-3.9,10.2-10.1,11.5-17.2c0.1-0.4,0.3-0.7,0.7-0.8c7.6-2.2,12.1-10.1,9.9-17.7c-1-3.4-3.1-6.2-6-8.1c-0.5-0.3-0.6-0.9-0.3-1.4
	c0,0,0.1-0.1,0.1-0.1c10.3-12,9-30.2-3.1-40.5s-30.2-9-40.5,3.1c-0.9,1.1-1.8,2.3-2.6,3.5c-0.2,0.3-0.4,0.4-0.7,0.5h-0.1
	c-0.3,0-0.5-0.1-0.7-0.3c-7.9-7.5-19.7-9.1-29.3-3.9c-0.5,0.3-1.1,0.1-1.4-0.4c0,0,0,0,0,0c-0.1-0.2-0.2-0.5-0.1-0.8
	c0.1-0.3,0.3-0.5,0.5-0.6c9.6-5.2,21.4-4.1,29.9,2.8l0.8,0.7l0.6-0.8C58.9,14.1,68.1,9.5,77.8,9.5 M77.8,8.5
	c-10,0-19.5,4.7-25.5,12.8c-8.8-7.1-21-8.2-31-2.9c-1,0.5-1.4,1.7-0.9,2.7c0.4,0.7,1.1,1.1,1.9,1.1c0.3,0,0.7-0.1,1-0.2
	c9.2-5,20.5-3.4,28.1,3.8c0.4,0.4,0.9,0.6,1.4,0.6H53c0.6-0.1,1.1-0.4,1.5-0.9c8-13.1,25-17.2,38.1-9.3s17.2,25,9.3,38.1
	c-0.8,1.4-1.8,2.7-2.9,3.9c-0.4,0.4-0.5,1-0.4,1.6c0.1,0.6,0.4,1.1,0.9,1.4c6.2,4,8,12.3,4,18.5c-1.8,2.7-4.5,4.7-7.6,5.6
	c-0.7,0.2-1.3,0.8-1.4,1.6c-2.7,13.9-16.2,23-30.1,20.3c-6.8-1.3-12.7-5.3-16.5-11.1c-0.3-0.5-0.8-0.8-1.3-0.9c-0.1,0-0.3,0-0.4,0
	c-0.4,0-0.8,0.1-1.2,0.4c-9.8,6.9-23.3,4.6-30.2-5.2C8.6,81.6,9.6,69.9,17,62.5c0.8-0.8,0.8-2,0-2.8c-6.8-7.3-8.4-17.9-4.1-26.9
	c0.5-1,0.1-2.2-0.9-2.7c0,0,0,0,0,0c-0.3-0.1-0.6-0.2-0.9-0.2c-0.8,0-1.5,0.4-1.8,1.1c-4.7,9.8-3.3,21.5,3.6,30
	c-9.3,10.7-8.1,26.9,2.7,36.2c8.4,7.2,20.5,8.3,30,2.6c9.9,13,28.6,15.6,41.6,5.6c5.4-4.1,9.3-10,10.9-16.7
	c9-3.3,13.7-13.2,10.4-22.3c-1-2.9-2.8-5.4-5.2-7.4c10.4-14.1,7.4-34-6.7-44.4C91.1,10.7,84.5,8.5,77.8,8.5L77.8,8.5z"/>
<path class="st1" d="M96.6,41.8c-0.8,0-1.5-0.7-1.5-1.5c0-6.6-3.8-12.7-9.8-15.6c-0.8-0.3-1.1-1.2-0.8-2c0.3-0.8,1.2-1.1,2-0.8
	c0.1,0,0.1,0.1,0.2,0.1c7,3.4,11.5,10.5,11.5,18.3C98.1,41.1,97.5,41.8,96.6,41.8z"/>
<path class="st2" d="M86,22.3L86,22.3c0.2,0,0.3,0,0.4,0.1c6.8,3.3,11.2,10.3,11.2,17.9c0,0.6-0.4,1-1,1s-1-0.4-1-1
	c0-6.8-3.9-13.1-10.1-16.1c-0.2-0.1-0.4-0.3-0.5-0.6c-0.1-0.2-0.1-0.5,0-0.8C85.2,22.5,85.6,22.2,86,22.3 M85.9,21.3
	c-1.1,0-2,0.8-2.1,1.9c0,0.8,0.4,1.5,1.2,1.9c5.8,2.8,9.5,8.7,9.5,15.2c0,1.1,0.9,2,2,2s2-0.9,2-2c0-8-4.6-15.3-11.8-18.8
	C86.5,21.3,86.2,21.3,85.9,21.3L85.9,21.3z"/>
<path class="st1" d="M32.2,92.1c-7.9,0-14.2-6.4-14.2-14.3c0.1-0.8,0.8-1.4,1.7-1.3c0.7,0.1,1.2,0.6,1.3,1.3c0,6.2,5,11.3,11.2,11.3
	c0.8,0.1,1.4,0.8,1.3,1.7C33.5,91.4,32.9,92,32.2,92.1L32.2,92.1z"/>
<path class="st2" d="M19.5,76.8c0.6,0,1,0.4,1,1c0,6.5,5.3,11.8,11.8,11.8c0.6,0,1,0.4,1,1s-0.4,1-1,1c-7.6,0-13.8-6.2-13.8-13.8
	C18.5,77.2,18.9,76.8,19.5,76.8 M19.5,75.8c-1.1,0-2,0.9-2,2c0,8.2,6.6,14.8,14.8,14.8c1.1,0,2-0.9,2-2s-0.9-2-2-2
	c-6,0-10.8-4.8-10.8-10.8C21.5,76.7,20.6,75.8,19.5,75.8L19.5,75.8z"/>
<path class="st1" d="M66.9,69.4c-7.5,0-13.6-6.1-13.6-13.6s6.1-13.6,13.6-13.6c7.5,0,13.6,6.1,13.6,13.6
	C80.5,63.3,74.4,69.4,66.9,69.4z M66.9,45.2c-5.8,0-10.6,4.7-10.6,10.6c0,5.8,4.7,10.6,10.6,10.6c5.8,0,10.6-4.7,10.6-10.6
	S72.8,45.2,66.9,45.2C66.9,45.2,66.9,45.2,66.9,45.2z"/>
<path class="st2" d="M66.9,42.7c7.2,0,13.1,5.9,13.1,13.1s-5.9,13.1-13.1,13.1S53.8,63,53.8,55.8l0,0C53.8,48.6,59.7,42.7,66.9,42.7
	 M66.9,66.9c6.1,0,11.1-5,11.1-11.1c0-6.1-5-11.1-11.1-11.1s-11.1,5-11.1,11.1c0,0,0,0,0,0C55.9,61.9,60.8,66.9,66.9,66.9
	 M66.9,41.7c-7.8,0-14.1,6.3-14.1,14.1s6.3,14.1,14.1,14.1S81,63.6,81,55.8v0C81,48,74.7,41.7,66.9,41.7z M66.9,65.9
	c-5.6,0-10.1-4.5-10-10.1s4.5-10.1,10.1-10c5.5,0,10,4.5,10,10.1C77,61.4,72.5,65.9,66.9,65.9C66.9,65.9,66.9,65.9,66.9,65.9z"/>
<path class="st1" d="M38.3,69.5c-7.6,0-13.7-6.1-13.7-13.7s6.1-13.7,13.7-13.7c3.6,0,7.1,1.4,9.7,4c0.6,0.6,0.6,1.6,0,2.3
	c-0.3,0.3-0.7,0.5-1.1,0.5c-0.4,0-0.8-0.2-1.1-0.5c-4.1-4.1-10.7-4.1-14.8,0s-4.1,10.7,0,14.8s10.7,4.1,14.8,0c0,0,0,0,0,0
	c0.3-0.3,0.7-0.5,1.1-0.5c0.9,0,1.6,0.7,1.6,1.6c0,0.4-0.2,0.8-0.5,1.1C45.4,68,42,69.5,38.3,69.5z"/>
<path class="st2" d="M38.3,42.5c3.5,0,6.9,1.4,9.4,3.9c0.5,0.5,0.5,1.2,0,1.7c-0.5,0.5-1.2,0.5-1.7,0c-4.2-4.2-11.1-4.2-15.4,0
	s-4.2,11.1,0,15.4c4.2,4.2,11.1,4.2,15.4,0c0.5-0.5,1.3-0.4,1.7,0.1c0.4,0.5,0.4,1.2,0,1.6c-5.2,5.2-13.6,5.2-18.8,0
	s-5.2-13.6,0-18.8C31.4,43.9,34.8,42.5,38.3,42.5 M38.3,41.7c-7.8,0-14.1,6.3-14.1,14.1s6.3,14.1,14.1,14.1c3.7,0,7.3-1.5,10-4.2
	c0.8-0.8,0.8-2.1,0-2.8s-2.1-0.8-2.8,0c-3.9,3.9-10.3,3.9-14.2,0s-3.9-10.3,0-14.2s10.3-3.9,14.2,0c0,0,0,0,0,0
	c0.4,0.4,0.9,0.6,1.4,0.6c1.1,0,2-0.9,2-2c0-0.5-0.2-1.1-0.6-1.5C45.7,43.1,42.1,41.7,38.3,41.7L38.3,41.7z"/>
<path class="st1" d="M83.2,77.8c-0.6,0-1.2-0.4-1.4-1c-0.2-0.6,0-1.3,0.5-1.7c1.5-1.1,5.8-5,5.8-7.8c0-0.7-0.2-1.7-1.7-1.7
	c-1,0-1.7,0.8-1.7,1.7c0.1,0.8-0.5,1.6-1.3,1.7s-1.6-0.5-1.7-1.3c0-0.1,0-0.2,0-0.3c0-2.6,2.1-4.7,4.7-4.7c2.4-0.2,4.6,1.7,4.7,4.1
	c0,0.2,0,0.4,0,0.6c0,2-1.1,4.3-3.2,6.7l-0.7,0.8h2.4c0.8-0.1,1.6,0.5,1.7,1.3s-0.5,1.6-1.3,1.7c-0.1,0-0.2,0-0.3,0L83.2,77.8z"/>
<path class="st2" d="M86.5,63c2.2-0.1,4.1,1.5,4.2,3.7c0,0.2,0,0.3,0,0.5c0,1.3-0.5,3.5-3.1,6.3l-1.5,1.7h3.6c0.6,0,1,0.4,1,1
	s-0.4,1-1,1h-6.5c-0.6,0-1-0.4-1-1c0-0.3,0.2-0.6,0.4-0.8c1.7-1.2,6-5.1,6-8.2c0.1-1.1-0.7-2.1-1.7-2.2c-0.1,0-0.3,0-0.4,0
	c-1.2,0-2.2,1-2.2,2.2c0,0.6-0.4,1-1,1s-1-0.4-1-1C82.3,64.9,84.2,63,86.5,63 M86.5,62c-2.9,0-5.2,2.3-5.2,5.2c0,1.1,0.9,2,2,2
	s2-0.9,2-2c0-0.7,0.5-1.2,1.2-1.2c0,0,0,0,0.1,0c1,0,1.2,0.4,1.2,1.2c0,2.4-3.8,6-5.7,7.4c-0.9,0.6-1.1,1.9-0.5,2.8
	c0.4,0.5,1,0.9,1.7,0.8h6.5c1.1,0,2-0.9,2-2s-0.9-2-2-2h-1.3c1.7-1.9,3.3-4.4,3.3-7c0.1-2.8-2-5.1-4.7-5.2C86.8,62,86.7,62,86.5,62z
	"/>
</svg>
