<svg id="Capa_1" data-name="Capa 1" xmlns="http://www.w3.org/2000/svg" viewBox="0 0 110 110"><defs><style>.cls-1{fill:#a3ed5c;}.cls-2{fill:#bef7f0;}.cls-3{fill:#def4bf;}.cls-4{fill:#afe762;}.cls-5{fill:#fff;}.cls-6{fill:#4d7713;}</style></defs><path class="cls-1" d="M81.79,75.55,67.2,75.23a13.2,13.2,0,0,0-15.12,7.61L46,97.4A42,42,0,0,0,81.79,75.55Z"/><path class="cls-2" d="M3.76,64c0-.13,0-.25-.07-.38C3.71,63.78,3.74,63.9,3.76,64Z"/><path class="cls-2" d="M3.4,62c0-.11,0-.21,0-.31C3.36,61.82,3.38,61.92,3.4,62Z"/><path class="cls-2" d="M3.57,63.06l-.06-.37Z"/><path class="cls-2" d="M3.21,60.75s0-.11,0-.16S3.2,60.7,3.21,60.75Z"/><path class="cls-2" d="M2.94,57.77c0-.13,0-.25,0-.38C2.93,57.52,2.93,57.64,2.94,57.77Z"/><path class="cls-2" d="M3.1,59.77l0-.34Z"/><path class="cls-2" d="M3,58.78l0-.38Z"/><path class="cls-2" d="M4.21,65.93a2.68,2.68,0,0,1-.07-.27A2.68,2.68,0,0,0,4.21,65.93Z"/><path class="cls-2" d="M4,65l-.09-.35Z"/><path class="cls-2" d="M5.15,69.06c-.05-.13-.09-.26-.13-.39C5.06,68.8,5.1,68.93,5.15,69.06Z"/><path class="cls-2" d="M5.47,70c0-.12-.09-.25-.14-.38C5.38,69.71,5.43,69.84,5.47,70Z"/><path class="cls-2" d="M4.84,68.13l-.12-.37Z"/><path class="cls-2" d="M2.89,56.72c0-.11,0-.22,0-.33C2.89,56.5,2.89,56.61,2.89,56.72Z"/><path class="cls-2" d="M4.54,67.14l-.09-.3Z"/><path class="cls-2" d="M2.88,54.42a1.93,1.93,0,0,0,0-.24A1.93,1.93,0,0,1,2.88,54.42Z"/><path class="cls-2" d="M4.18,44.93a1.33,1.33,0,0,0,.05-.19A1.33,1.33,0,0,1,4.18,44.93Z"/><path class="cls-2" d="M3.92,46A2,2,0,0,1,4,45.79,2,2,0,0,0,3.92,46Z"/><path class="cls-2" d="M4.43,44l.06-.25Z"/><path class="cls-2" d="M4.74,43c0-.08,0-.15.07-.22S4.76,42.87,4.74,43Z"/><path class="cls-2" d="M5.39,41l.1-.25Z"/><path class="cls-2" d="M3.72,47l0-.16Z"/><path class="cls-2" d="M5.81,70.86a3.42,3.42,0,0,0-.13-.34A3.42,3.42,0,0,1,5.81,70.86Z"/><path class="cls-2" d="M5,42.06c0-.08,0-.17.08-.25C5.08,41.89,5.06,42,5,42.06Z"/><path class="cls-2" d="M3,52.27c0-.08,0-.15,0-.23C3,52.12,3,52.19,3,52.27Z"/><path class="cls-2" d="M3.09,51.1a.28.28,0,0,1,0-.09A.28.28,0,0,0,3.09,51.1Z"/><path class="cls-2" d="M3.51,48.08a2,2,0,0,1,0-.24A2,2,0,0,0,3.51,48.08Z"/><path class="cls-2" d="M2.93,53.23v0Z"/><path class="cls-2" d="M3.19,50.16l0-.24Z"/><path class="cls-2" d="M5.72,40.14a2.77,2.77,0,0,0,.1-.26A2.77,2.77,0,0,1,5.72,40.14Z"/><path class="cls-2" d="M3.35,49a.59.59,0,0,0,0-.13A.59.59,0,0,1,3.35,49Z"/><path class="cls-2" d="M20.16,89.36l-.59-.44Z"/><path class="cls-2" d="M19.53,88.89c-.65-.49-1.28-1-1.89-1.52C18.25,87.89,18.89,88.4,19.53,88.89Z"/><path class="cls-2" d="M6.3,72c0-.11-.1-.21-.14-.32C6.2,71.81,6.25,71.91,6.3,72Z"/><path class="cls-2" d="M21.63,90.38,21,90Z"/><path class="cls-2" d="M16.21,86.1c-.16-.15-.32-.3-.47-.46C15.89,85.8,16.05,86,16.21,86.1Z"/><path class="cls-2" d="M16.88,86.71l-.49-.45Z"/><path class="cls-2" d="M17.57,87.31l-.52-.46Z"/><path class="cls-2" d="M29.93,94.67l-.75-.3Z"/><path class="cls-2" d="M29.15,94.36c-1-.43-2.08-.89-3.09-1.4C27.07,93.47,28.1,93.93,29.15,94.36Z"/><path class="cls-2" d="M13.91,83.77l-.41-.46Z"/><path class="cls-2" d="M30.77,95,30,94.7Z"/><path class="cls-2" d="M24.49,92.13c-1-.54-1.91-1.12-2.83-1.73C22.58,91,23.52,91.59,24.49,92.13Z"/><path class="cls-2" d="M26,93l-.7-.36Z"/><path class="cls-2" d="M25.25,92.54l-.69-.37Z"/><path class="cls-2" d="M20.88,89.87l-.59-.42Z"/><path class="cls-2" d="M8,75.5l-.21-.39Z"/><path class="cls-2" d="M8.65,76.65c-.13-.21-.25-.43-.38-.65C8.4,76.22,8.52,76.44,8.65,76.65Z"/><path class="cls-2" d="M7.55,74.67l-.21-.41Z"/><path class="cls-2" d="M6.71,73l-.18-.39Z"/><path class="cls-2" d="M9.15,77.49l-.26-.43Z"/><path class="cls-2" d="M13.3,83.09l-.39-.45Z"/><path class="cls-2" d="M7.12,73.82l-.19-.4Z"/><path class="cls-2" d="M12.12,81.68l-.37-.46Z"/><path class="cls-2" d="M11.61,81c-.24-.32-.48-.63-.71-1C11.13,80.41,11.37,80.72,11.61,81Z"/><path class="cls-2" d="M12.7,82.39l-.37-.45Z"/><path class="cls-2" d="M10.71,79.82c-.11-.14-.21-.29-.31-.44C10.5,79.53,10.6,79.68,10.71,79.82Z"/><path class="cls-2" d="M10.17,79.06l-.29-.43Z"/><path class="cls-2" d="M9.65,78.28l-.27-.43Z"/><path class="cls-2" d="M8.88,33.72c.06-.11.13-.22.2-.33C9,33.5,8.94,33.61,8.88,33.72Z"/><path class="cls-2" d="M17,23.92l.68-.6Z"/><path class="cls-2" d="M12.89,28.15l.48-.56Z"/><path class="cls-2" d="M9.35,33l.23-.35Z"/><path class="cls-2" d="M8.32,34.67l.17-.29Z"/><path class="cls-2" d="M21.13,20.72l.46-.31Z"/><path class="cls-2" d="M21.68,20.35l.91-.59Z"/><path class="cls-2" d="M16.44,24.46l.38-.35Z"/><path class="cls-2" d="M20.09,21.46l.83-.59Z"/><path class="cls-2" d="M13.63,27.3l.33-.36Z"/><path class="cls-2" d="M10.46,31.29l.32-.45Z"/><path class="cls-2" d="M11.64,29.69l.4-.52Z"/><path class="cls-2" d="M18.54,22.65l.75-.59Z"/><path class="cls-2" d="M11.11,30.39c.08-.12.17-.23.26-.35C11.28,30.16,11.19,30.27,11.11,30.39Z"/><path class="cls-2" d="M17.94,23.14l.41-.34Z"/><path class="cls-2" d="M10,32l.23-.34Z"/><path class="cls-2" d="M12.34,28.81c.09-.12.19-.23.29-.35C12.53,28.58,12.43,28.69,12.34,28.81Z"/><path class="cls-2" d="M19.5,21.89l.44-.33Z"/><path class="cls-2" d="M6.5,38.27,6.62,38Z"/><path class="cls-2" d="M7.88,35.47l.17-.31Z"/><path class="cls-2" d="M15.59,25.26l.62-.59Z"/><path class="cls-2" d="M14.21,26.67c.18-.19.36-.39.55-.58C14.57,26.28,14.39,26.48,14.21,26.67Z"/><path class="cls-2" d="M14,83.91c.5.54,1,1.07,1.55,1.59C15.06,85,14.54,84.45,14,83.91Z"/><path class="cls-2" d="M6.14,39.11c0-.09.07-.18.11-.27C6.21,38.93,6.17,39,6.14,39.11Z"/><path class="cls-2" d="M15,25.84l.36-.35Z"/><path class="cls-2" d="M7,37.26,7.11,37Z"/><path class="cls-2" d="M7.37,36.44a2.44,2.44,0,0,0,.14-.28A2.44,2.44,0,0,1,7.37,36.44Z"/><path class="cls-3" d="M86.94,55.38A42.05,42.05,0,0,0,52.48,14a42,42,0,0,0-23.1,12.62l4.16,5a6.19,6.19,0,0,1,.27,7.6l-4.53,6.31a6.21,6.21,0,0,0,5,9.83h5A5.4,5.4,0,0,1,44,58h0a5.38,5.38,0,0,1-2.28,7.55l-2.11,1A16.35,16.35,0,0,0,31,85.79,42,42,0,0,0,52.48,96.73,42,42,0,0,0,86.94,55.38Z"/><path class="cls-4" d="M15.36,25.49l.23-.23Z"/><path class="cls-4" d="M18.35,22.8l.19-.15Z"/><path class="cls-4" d="M9.88,78.63c-.07-.12-.15-.23-.23-.35C9.73,78.4,9.81,78.51,9.88,78.63Z"/><path class="cls-4" d="M8.89,77.06l-.24-.41Z"/><path class="cls-4" d="M16.21,24.67l.23-.21Z"/><path class="cls-4" d="M7.78,75.11l-.23-.44Z"/><path class="cls-4" d="M11.75,81.22,11.61,81Z"/><path class="cls-4" d="M16.82,24.11l.22-.19Z"/><path class="cls-4" d="M10.4,79.38c-.08-.1-.15-.21-.23-.32C10.25,79.17,10.32,79.28,10.4,79.38Z"/><path class="cls-4" d="M8.27,76,8,75.5Z"/><path class="cls-4" d="M17.72,23.32l.22-.18Z"/><path class="cls-4" d="M10.9,80.08a2.48,2.48,0,0,1-.19-.26A2.48,2.48,0,0,0,10.9,80.08Z"/><path class="cls-4" d="M9.38,77.85l-.23-.36Z"/><path class="cls-4" d="M20.92,20.87l.21-.15Z"/><path class="cls-4" d="M24.56,92.17l-.07,0Z"/><path class="cls-4" d="M21.66,90.4l0,0Z"/><path class="cls-4" d="M22.59,19.76l.22-.14Z"/><path class="cls-4" d="M21,90l-.12-.09Z"/><path class="cls-4" d="M20.29,89.45l-.13-.09Z"/><path class="cls-4" d="M25.34,92.59l-.09,0Z"/><path class="cls-4" d="M30,94.7l-.08,0Z"/><path class="cls-4" d="M30.8,95h0Z"/><path class="cls-4" d="M21.59,20.41l.09-.06Z"/><path class="cls-4" d="M29.18,94.37h0Z"/><path class="cls-4" d="M26.06,93h0Z"/><path class="cls-4" d="M17.64,87.37l-.07-.06Z"/><path class="cls-4" d="M14,83.91l-.13-.14Z"/><path class="cls-4" d="M13.5,83.31l-.2-.22Z"/><path class="cls-4" d="M19.29,22.06l.21-.17Z"/><path class="cls-4" d="M12.91,82.64l-.21-.25Z"/><path class="cls-4" d="M15.74,85.64l-.15-.14Z"/><path class="cls-4" d="M17.05,86.85l-.17-.14Z"/><path class="cls-4" d="M7.34,74.26c-.07-.14-.14-.29-.22-.44C7.2,74,7.27,74.12,7.34,74.26Z"/><path class="cls-4" d="M12.33,81.94l-.21-.26Z"/><path class="cls-4" d="M19.94,21.56l.15-.1Z"/><path class="cls-4" d="M19.57,88.92l0,0Z"/><path class="cls-4" d="M16.39,86.26l-.18-.16Z"/><path class="cls-4" d="M10.78,30.84l.33-.45Z"/><path class="cls-4" d="M3.22,49.92c0-.3.09-.61.13-.91C3.31,49.31,3.26,49.62,3.22,49.92Z"/><path class="cls-4" d="M3,52l.09-.94Z"/><path class="cls-4" d="M8.49,34.38l.39-.66Z"/><path class="cls-4" d="M3.1,51l.09-.85Z"/><path class="cls-4" d="M8.05,35.16l.27-.49Z"/><path class="cls-4" d="M3.37,48.88c0-.27.09-.54.14-.8C3.46,48.34,3.41,48.61,3.37,48.88Z"/><path class="cls-4" d="M2.87,55.38c0-.32,0-.64,0-1C2.88,54.74,2.87,55.06,2.87,55.38Z"/><path class="cls-4" d="M2.88,56.39c0-.33,0-.66,0-1C2.87,55.73,2.88,56.06,2.88,56.39Z"/><path class="cls-4" d="M6.93,73.42c-.07-.16-.15-.31-.22-.47C6.78,73.11,6.86,73.26,6.93,73.42Z"/><path class="cls-4" d="M2.89,54.18c0-.32,0-.64,0-1C2.91,53.55,2.9,53.86,2.89,54.18Z"/><path class="cls-4" d="M2.93,53.17q0-.45.06-.9Q2.95,52.72,2.93,53.17Z"/><path class="cls-4" d="M9.08,33.39,9.35,33Z"/><path class="cls-4" d="M4.23,44.74c.07-.24.13-.48.2-.71C4.36,44.26,4.3,44.5,4.23,44.74Z"/><path class="cls-4" d="M6.62,38,7,37.26Z"/><path class="cls-4" d="M5.11,41.81c.09-.27.19-.54.28-.8C5.3,41.27,5.2,41.54,5.11,41.81Z"/><path class="cls-4" d="M4.81,42.73c.07-.23.14-.45.22-.67C5,42.28,4.88,42.5,4.81,42.73Z"/><path class="cls-4" d="M5.49,40.76c.07-.21.15-.41.23-.62C5.64,40.35,5.56,40.55,5.49,40.76Z"/><path class="cls-4" d="M6.25,38.84c.09-.19.17-.38.25-.57C6.42,38.46,6.34,38.65,6.25,38.84Z"/><path class="cls-4" d="M4.49,43.78c.08-.28.17-.56.25-.83C4.66,43.23,4.57,43.5,4.49,43.78Z"/><path class="cls-4" d="M7.51,36.16l.37-.69Z"/><path class="cls-4" d="M4,45.79l.21-.86Z"/><path class="cls-4" d="M3.75,46.79c0-.26.11-.51.17-.76C3.86,46.28,3.81,46.53,3.75,46.79Z"/><path class="cls-4" d="M7.11,37c.08-.18.17-.36.26-.54Z"/><path class="cls-4" d="M9.58,32.6,10,32Z"/><path class="cls-4" d="M3.55,47.84c.05-.3.11-.59.17-.89C3.66,47.25,3.6,47.54,3.55,47.84Z"/><path class="cls-4" d="M4.72,67.76l-.18-.62Z"/><path class="cls-4" d="M5,68.67l-.18-.54Z"/><path class="cls-4" d="M13.37,27.59l.26-.29Z"/><path class="cls-4" d="M2.92,57.39l0-.67Z"/><path class="cls-4" d="M4.45,66.84c-.08-.31-.17-.61-.24-.91C4.28,66.23,4.37,66.53,4.45,66.84Z"/><path class="cls-4" d="M5.33,69.58l-.18-.52Z"/><path class="cls-4" d="M14.76,26.09l.24-.25Z"/><path class="cls-4" d="M4.14,65.66C4.08,65.44,4,65.21,4,65,4,65.21,4.08,65.44,4.14,65.66Z"/><path class="cls-4" d="M6.53,72.56c-.08-.18-.16-.36-.23-.54C6.37,72.2,6.45,72.38,6.53,72.56Z"/><path class="cls-4" d="M5.68,70.52,5.47,70Z"/><path class="cls-4" d="M14,26.94l.25-.27Z"/><path class="cls-4" d="M6.16,71.7c-.12-.28-.24-.56-.35-.84C5.92,71.14,6,71.42,6.16,71.7Z"/><path class="cls-4" d="M12.63,28.46l.26-.31Z"/><path class="cls-4" d="M3.19,60.59l-.09-.82Z"/><path class="cls-4" d="M5.82,39.88l.32-.77Z"/><path class="cls-4" d="M3.07,59.43,3,58.78Z"/><path class="cls-4" d="M10.18,31.69l.28-.4Z"/><path class="cls-4" d="M3.35,61.72c-.05-.32-.1-.64-.14-1C3.25,61.08,3.3,61.4,3.35,61.72Z"/><path class="cls-4" d="M12,29.17l.3-.36Z"/><path class="cls-4" d="M3,58.4c0-.21,0-.42,0-.63C3,58,3,58.19,3,58.4Z"/><path class="cls-4" d="M3.89,64.63c0-.2-.08-.4-.13-.6C3.81,64.23,3.85,64.43,3.89,64.63Z"/><path class="cls-4" d="M3.69,63.65l-.12-.59Z"/><path class="cls-4" d="M3.51,62.69c0-.22-.08-.44-.11-.66C3.43,62.25,3.47,62.47,3.51,62.69Z"/><path class="cls-4" d="M11.37,30l.27-.35Z"/><path class="cls-3" d="M31,85.79a16.35,16.35,0,0,1,8.55-19.16l2.11-1A5.38,5.38,0,0,0,44,58h0a5.4,5.4,0,0,0-4.64-2.66h-5a6.21,6.21,0,0,1-5-9.83l4.53-6.31a6.19,6.19,0,0,0-.27-7.6l-4.16-5A42,42,0,0,0,31,85.79Z"/><path class="cls-5" d="M70.56,27.9c0-.9,0-1.79.13-2.65.76-7.85,4.8-14.06,7.9-17.76a31.64,31.64,0,0,0-3.67-3.8c-.09.07-10.33,8.58-11.59,21.56-.08.86-.12,1.75-.12,2.65C63.23,42.36,75,41.38,75,41.38a11.48,11.48,0,0,0,3.7-.44C75.23,40,70.58,37,70.56,27.9Z"/><path class="cls-3" d="M86.71,27.94a25.88,25.88,0,0,0-.14-2.66c-.79-7.83-4.87-14.07-8-17.79-3.1,3.7-7.14,9.91-7.9,17.76-.08.86-.13,1.75-.13,2.65,0,9.09,4.67,12.08,8.12,13C82.12,40,86.72,37,86.71,27.94Z"/><path class="cls-5" d="M57.81,52c-6.38-6.4-8.23-14.75-8.72-20.11a30.3,30.3,0,0,0-5.38-.09S42.32,47,52.52,57.24s17.8,1.21,17.8,1.21a11.52,11.52,0,0,0,2.3-2.94C69.5,57.24,64.16,58.34,57.81,52Z"/><path class="cls-3" d="M69.11,40.6c-6.38-6.41-14.68-8.26-20-8.75.49,5.36,2.34,13.71,8.72,20.11s11.69,5.28,14.82,3.55C74.37,52.38,75.49,47,69.11,40.6Z"/><path class="cls-5" d="M86.06,45.85c6.4-6.42,14.71-8.27,20-8.76a32.89,32.89,0,0,0,.1-5.33c-.12,0-15.2-1.4-25.41,8.84s-1.2,17.85-1.2,17.85a11.41,11.41,0,0,0,3,2.33C80.81,57.65,79.66,52.27,86.06,45.85Z"/><path class="cls-3" d="M97.39,57.24c6.39-6.41,8.24-14.78,8.72-20.15-5.34.49-13.65,2.34-20,8.76s-5.25,11.8-3.51,14.93C85.68,62.52,91,63.63,97.39,57.24Z"/><path class="cls-6" d="M75,36.37a1.47,1.47,0,0,1-1.47-1.48V29.45l-.27-.19a1.18,1.18,0,0,1-.2-.17l-7.57-7.57-.24,1.15a26.32,26.32,0,0,0-.41,2.72c-.08.83-.12,1.68-.12,2.51a1.47,1.47,0,0,1-2.94,0c0-.93,0-1.87.13-2.79C63.2,11.44,73.89,2.63,74,2.54a1.46,1.46,0,0,1,.92-.33,1.48,1.48,0,0,1,.94.35c.44.36,10.82,9.15,12.17,22.58a26.26,26.26,0,0,1,.15,2.8,1.47,1.47,0,0,1-2.94,0c0-.83,0-1.68-.13-2.51a27.61,27.61,0,0,0-1.8-7.28l-.35-.9-6.53,6.53V34.89A1.47,1.47,0,0,1,75,36.37ZM72.37,8.43A35.76,35.76,0,0,0,66.61,18l-.15.38,7,7V7.1Zm4.06,11.19,5.15-5.15-.23-.42a37.91,37.91,0,0,0-3.81-5.51L76.43,7.2Z"/><path class="cls-5" d="M74.92,2.85a.83.83,0,0,1,.54.19c.43.36,10.62,9,12,22.16.09.91.14,1.83.14,2.74a.84.84,0,1,1-1.68,0c0-.85-.05-1.72-.13-2.57a28.41,28.41,0,0,0-1.84-7.45l-.71-1.79-1.36,1.36-5.66,5.66-.37.37V34.89a.84.84,0,1,1-1.68,0V29.12l-.54-.38-.12-.09-6.74-6.74-1.66-1.66-.47,2.29a27.68,27.68,0,0,0-.42,2.79c-.08.85-.12,1.72-.12,2.57a.84.84,0,1,1-1.68,0c0-.91,0-1.83.13-2.73C63.8,11.8,74.29,3.12,74.39,3a.84.84,0,0,1,.53-.18m-.8,24.07v-3.7h0v-.05h0V5.36L71.89,8A35.83,35.83,0,0,0,66,17.76l-.3.77.58.58L72,24.77l2.16,2.15m1.68-5.78L78,19l3.74-3.74.68-.68-.47-.83A39.14,39.14,0,0,0,78,8.14L75.8,5.45V21.14M74.92,1.58a2.09,2.09,0,0,0-1.32.47c-.11.09-11,9-12.36,23-.09.95-.13,1.92-.13,2.86a2.1,2.1,0,0,0,2.1,2.1h0a2.1,2.1,0,0,0,2.1-2.1c0-.81,0-1.64.12-2.45a24.84,24.84,0,0,1,.4-2.65l6.74,6.74a2.17,2.17,0,0,0,.29.24v5.11a2.1,2.1,0,1,0,4.2,0V24l5.66-5.66a26.63,26.63,0,0,1,1.76,7.12c.08.81.12,1.63.13,2.44a2.1,2.1,0,0,0,2.1,2.1h0a2.1,2.1,0,0,0,2.1-2.1,27.44,27.44,0,0,0-.15-2.87c-1.38-13.68-12-22.63-12.4-23a2.11,2.11,0,0,0-1.34-.49Zm-2.07,22.3L67.2,18.22a34.68,34.68,0,0,1,5.65-9.39V23.88Zm4.21-5.78V9a36.59,36.59,0,0,1,3.74,5.41L77.06,18.1Z"/><path class="cls-6" d="M2.87,108.55a1.47,1.47,0,0,1,0-2.94H73.49V88.29l-4.55-4.54a1.48,1.48,0,0,1,1-2.52,1.44,1.44,0,0,1,1,.44l2.47,2.46V63.72l-3.19-3.2-.44.35a12.34,12.34,0,0,1-7,2.72h-.48c-3.68,0-7.33-1.79-10.85-5.32-10.57-10.6-9.3-26-9.24-26.66a1.5,1.5,0,0,1,1.31-1.33s.83-.08,2.2-.08c4.53,0,16,.91,24.4,9.35a19.93,19.93,0,0,1,4.23,5.95L75,46.83l.58-1.32a19.88,19.88,0,0,1,4.22-5.95c8.41-8.44,19.87-9.35,24.41-9.35,1.37,0,2.19.08,2.19.08a1.48,1.48,0,0,1,1.31,1.33c.06.65,1.33,16.06-9.23,26.66-3.52,3.53-7.17,5.32-10.85,5.32H87.1a12.34,12.34,0,0,1-7-2.72l-.44-.35-3.18,3.2V81l1.14-1.54A40.38,40.38,0,0,0,83.2,68.77a1.49,1.49,0,0,1,1.39-1,1.37,1.37,0,0,1,.49.09,1.46,1.46,0,0,1,.9,1.87A43.16,43.16,0,0,1,76.6,85.17l-.17.19v7.52l1.2-1.21a1.47,1.47,0,0,1,2.08,0,1.48,1.48,0,0,1,0,2.08L76.43,97v8.57h23a1.47,1.47,0,0,1,1.47,1.47,1.47,1.47,0,0,1-1.47,1.47Zm46-58.85a26.09,26.09,0,0,0,4.71,6.51c2.94,2.95,5.89,4.45,8.77,4.45h.35a9.24,9.24,0,0,0,4.93-1.78l.61-.43L58.6,48.78H48.38Zm32.83,8.74.61.43a9.23,9.23,0,0,0,5,1.78h.29c2.88,0,5.84-1.5,8.78-4.45a26.34,26.34,0,0,0,4.71-6.51l.48-.92H91.32Zm-.33-16.3c-2.74,2.91-4.07,5.83-4,8.66a9.33,9.33,0,0,0,1.77,4.94l.43.62,2.84-2.85V41ZM67.47,53.51l2.84,2.85.43-.62a9.4,9.4,0,0,0,1.77-5c.1-2.82-1.23-5.71-4-8.61L67.47,41ZM101,33.32a33,33,0,0,0-15.33,5.17l-.28.18V50.56l17.34-17.4ZM64.52,50.56V38.67l-.28-.18a33,33,0,0,0-15.32-5.17l-1.74-.16Zm29.73-4.72h8.48l.15-.43a37,37,0,0,0,1.75-8.4l.16-1.75ZM45.29,37A36.85,36.85,0,0,0,47,45.41l.15.43h8.47L45.12,35.26Z"/><path class="cls-5" d="M104.17,30.84h0c1.34,0,2.12.08,2.13.08a.83.83,0,0,1,.74.76c.06.64,1.31,15.76-9.05,26.16-3.4,3.4-6.9,5.13-10.4,5.13h-.46a11.66,11.66,0,0,1-6.69-2.59l-.88-.69-.79.8-2.6,2.61-.37.37V82.89l2.27-3.08A40.9,40.9,0,0,0,83.8,69a.84.84,0,0,1,.79-.57.92.92,0,0,1,.28,0,.88.88,0,0,1,.48.43.79.79,0,0,1,0,.64,42.38,42.38,0,0,1-9.24,15.21l-.34.37V94.4L78,92.25l.13-.13a.83.83,0,0,1,1.19,0,.86.86,0,0,1,0,1.19l-3.1,3.1-.37.37v9.46H99.41a.84.84,0,0,1,0,1.68H2.87a.84.84,0,1,1,0-1.68H74.12V88l-.37-.37L69.39,83.3a.84.84,0,0,1,0-1.19.86.86,0,0,1,1.19,0L72,83.5l2.16,2.15V63.46l-.37-.37-2.6-2.61-.8-.8-.88.69A11.67,11.67,0,0,1,62.79,63h-.46c-3.51,0-7-1.73-10.4-5.13-10.36-10.4-9.12-25.52-9.06-26.16a.84.84,0,0,1,.75-.76s.79-.08,2.13-.08c4.45,0,15.71.9,24,9.17a19,19,0,0,1,4.09,5.75L75,48.41l1.15-2.65A19.19,19.19,0,0,1,80.21,40c8.24-8.27,19.5-9.17,24-9.17M84.76,52.08l2.16-2.16,15-15.08,2.46-2.47-3.47.32A33.76,33.76,0,0,0,85.32,38l-.56.38V52.08m-19.61,0V38.34L64.6,38A33.79,33.79,0,0,0,49,32.69l-3.46-.32L48,34.84,63,49.92l2.15,2.16M46.73,46.47H57.18L55,44.32l-8.23-8.26-2.48-2.49.33,3.49a38.05,38.05,0,0,0,1.78,8.55l.29.86m46,0h10.45l.29-.86a37.52,37.52,0,0,0,1.79-8.55l.32-3.48-2.47,2.48-8.23,8.26-2.15,2.15M70.39,57.34l.86-1.23a10,10,0,0,0,1.89-5.33c.11-3-1.28-6.05-4.13-9.07l-2.18-2.32V53.77l.37.37,2.13,2.13,1.06,1.07m9.14,0,1.06-1.07,2.12-2.13.37-.37V39.39L80.9,41.71c-2.86,3-4.25,6.11-4.12,9.12a10.12,10.12,0,0,0,1.88,5.28l.87,1.23M62.34,61.29h.38A9.92,9.92,0,0,0,68,59.39l1.21-.86-1-1.06-2.74-2.75,0,0h0l-6.15-6.17-.37-.37H47.35L48.3,50a26.86,26.86,0,0,0,4.82,6.66c3.07,3.08,6.17,4.64,9.22,4.64m25.24,0c3,0,6.15-1.56,9.22-4.64A26.67,26.67,0,0,0,101.62,50l.95-1.84H91.06l-.37.37-8.92,8.95-1.06,1.06,1.22.86a9.94,9.94,0,0,0,5.33,1.89h.32m16.59-31.71c-4.81,0-16.32,1-24.85,9.54A20.29,20.29,0,0,0,75,45.25a20.29,20.29,0,0,0-4.36-6.13c-8.53-8.56-20-9.54-24.85-9.54a21,21,0,0,0-2.26.09,2.09,2.09,0,0,0-1.87,1.9c-.06.66-1.36,16.34,9.41,27.16,3.65,3.65,7.44,5.5,11.3,5.5h.51a13,13,0,0,0,7.41-2.85L72.86,64V82.61l-1.39-1.39a2.1,2.1,0,0,0-3,3l4.36,4.36v7.88h0V105h-70a2.11,2.11,0,0,0,0,4.21H99.41a2.11,2.11,0,0,0,0-4.21H77.06V97.3l3.1-3.1a2.11,2.11,0,0,0-1.49-3.59,2.12,2.12,0,0,0-1.49.62l-.12.12V85.61A43.92,43.92,0,0,0,86.58,70a2.1,2.1,0,1,0-4-1.39,39.85,39.85,0,0,1-5.55,10.5V64l2.6-2.61a13.05,13.05,0,0,0,7.42,2.85h.51c3.85,0,7.65-1.85,11.29-5.5,10.78-10.82,9.48-26.5,9.42-27.16a2.09,2.09,0,0,0-1.87-1.9,21.22,21.22,0,0,0-2.26-.09ZM86,49V39a32.3,32.3,0,0,1,15-5.06L86,49ZM63.89,49,48.86,34a32.27,32.27,0,0,1,15,5.06V49Zm31.88-3.82L104,37a36.29,36.29,0,0,1-1.72,8.26Zm-48.13,0A36.92,36.92,0,0,1,45.91,37l8.24,8.26ZM70.22,55.38,68.1,53.25V42.57c2.6,2.77,3.87,5.51,3.78,8.16a8.67,8.67,0,0,1-1.66,4.65Zm9.47,0A8.86,8.86,0,0,1,78,50.78c-.11-2.67,1.16-5.42,3.78-8.21V53.25l-2.13,2.13ZM62.34,60c-2.7,0-5.5-1.44-8.33-4.27a25.62,25.62,0,0,1-4.59-6.35h8.92l6.17,6.19h0l2.75,2.76A8.65,8.65,0,0,1,62.66,60Zm25.24,0H87.3a8.63,8.63,0,0,1-4.64-1.66l8.92-9h8.92a25.88,25.88,0,0,1-4.59,6.35C93.08,58.6,90.28,60,87.58,60Z"/><path class="cls-6" d="M44.9,98.88a43.56,43.56,0,0,1-11-1.41h0l-.23-.06h0A43.49,43.49,0,0,1,22.34,18.2l0,0,0,0A2.48,2.48,0,0,1,22.7,18l0,0,0,0A43.47,43.47,0,0,1,44.9,11.88c1.36,0,2.74.06,4.08.19a1.43,1.43,0,0,1,1,.52A1.47,1.47,0,0,1,48.85,15h-.14c-1.26-.12-2.54-.18-3.81-.18a40.6,40.6,0,0,0-18.66,4.56l-.69.36,9.12,11A7.68,7.68,0,0,1,35,40.1l-4.54,6.31a4.73,4.73,0,0,0,3.85,7.5h5a6.85,6.85,0,0,1,3,13l-2.12,1A14.84,14.84,0,0,0,32.51,85.6l2.75,9.19.36.08a40.77,40.77,0,0,0,8.76,1.07h.42l5.93-13.69A14.65,14.65,0,0,1,67.54,73.8l2.2.52a1.47,1.47,0,0,1-.33,2.9,1.32,1.32,0,0,1-.34,0l-2.21-.51a11.46,11.46,0,0,0-2.67-.31,11.72,11.72,0,0,0-10.76,7.06L48.06,95.83l1.07-.11a40.84,40.84,0,0,0,16.28-5.33,1.38,1.38,0,0,1,.74-.21,1.48,1.48,0,0,1,.74,2.75A43.53,43.53,0,0,1,44.9,98.88ZM22.52,21.58a40.56,40.56,0,0,0,8.2,71.8l1.19.45-2.22-7.39A17.77,17.77,0,0,1,38.94,65.3l2.11-1a3.9,3.9,0,0,0,1.66-5.48,3.92,3.92,0,0,0-3.37-1.93h-5a7.68,7.68,0,0,1-6.23-12.17l4.53-6.3a4.73,4.73,0,0,0-.21-5.8L23,21.26Z"/><path class="cls-5" d="M44.9,12.51c1.34,0,2.7.06,4,.19a.79.79,0,0,1,.56.3.76.76,0,0,1,.19.61.84.84,0,0,1-.83.76h-.08c-1.28-.12-2.58-.18-3.87-.18A41.19,41.19,0,0,0,26,18.82l-1.39.72,1,1.2,8.63,10.37a7,7,0,0,1,.31,8.62L30,46a5.37,5.37,0,0,0,4.36,8.5h5a6.22,6.22,0,0,1,2.73,11.81l-2.11,1a15.45,15.45,0,0,0-8,18.4l2.65,8.84.21.7.71.16a41.36,41.36,0,0,0,8.9,1.09h.84l.33-.77,5.76-13.3A14,14,0,0,1,64.18,74a14.44,14.44,0,0,1,3.21.37l2.21.52a.84.84,0,0,1-.19,1.66l-.19,0L67,76.05a12.84,12.84,0,0,0-2.82-.32,12.35,12.35,0,0,0-11.34,7.44L47.91,94.59l-.86,2,2.15-.22a41.32,41.32,0,0,0,16.52-5.42.84.84,0,0,1,.43-.11.82.82,0,0,1,.72.41.83.83,0,0,1-.29,1.15A43,43,0,0,1,34,96.86l0,0h-.05l-.12,0,0,0h-.05a42.86,42.86,0,0,1-26-62.7,43.33,43.33,0,0,1,15-15.33l0,0,.06,0a.75.75,0,0,1,.17-.1l.08,0,.06,0a42.76,42.76,0,0,1,21.81-6m-12,82.35-.73-2.43L30.3,86.26a17.13,17.13,0,0,1,8.92-20.39l2.11-1a4.54,4.54,0,0,0-2-8.61h-5A7.05,7.05,0,0,1,28.6,45.06l4.53-6.31a5.36,5.36,0,0,0-.23-6.57L23.83,21.29l-.72-.87-.94.63A41.19,41.19,0,0,0,30.49,94l2.38.89m12-83.61A43.91,43.91,0,0,0,22.45,17.4a2.82,2.82,0,0,0-.44.26A44.13,44.13,0,0,0,33.39,98a3,3,0,0,0,.32.09,44.17,44.17,0,0,0,33.5-4.61,2.1,2.1,0,0,0-1.06-3.92,2.14,2.14,0,0,0-1.06.29,39.81,39.81,0,0,1-16,5.25L54,83.67A11.09,11.09,0,0,1,64.19,77a11,11,0,0,1,2.53.29l2.21.52a2.61,2.61,0,0,0,.48,0,2.1,2.1,0,0,0,.48-4.15l-2.21-.51a15,15,0,0,0-3.5-.41,15.31,15.31,0,0,0-14,9.22L44.39,95.31a39.66,39.66,0,0,1-8.63-1.06l-2.65-8.83a14.22,14.22,0,0,1,7.4-16.91l2.11-1a7.48,7.48,0,0,0-3.28-14.2h-5A4.11,4.11,0,0,1,31,46.77l4.53-6.3a8.32,8.32,0,0,0-.36-10.17L26.53,19.94A39.6,39.6,0,0,1,44.9,15.45c1.25,0,2.51.06,3.75.18h.2A2.1,2.1,0,0,0,49,11.44c-1.37-.13-2.76-.19-4.14-.19Zm-14,81.54A39.92,39.92,0,0,1,22.86,22.1L31.93,33a4.11,4.11,0,0,1,.18,5l-4.54,6.3a8.32,8.32,0,0,0,6.75,13.17h5a3.28,3.28,0,0,1,2.82,1.61,3.23,3.23,0,0,1,.31,2.61,3.19,3.19,0,0,1-1.69,2l-2.12,1a18.4,18.4,0,0,0-9.57,21.89l1.85,6.16Z"/></svg>