<?xml version="1.0" encoding="utf-8"?>
<!-- Generator: Adobe Illustrator 24.1.0, SVG Export Plug-In . SVG Version: 6.00 Build 0)  -->
<svg version="1.1" id="Layer_1" xmlns="http://www.w3.org/2000/svg" xmlns:xlink="http://www.w3.org/1999/xlink" x="0px" y="0px"
	 viewBox="0 0 93 120" style="enable-background:new 0 0 93 120;" xml:space="preserve">
<style type="text/css">
	.st0{fill:#DEF4BF;}
	.st1{fill:#D2F1A7;}
	.st2{fill:#4D7713;}
	.st3{fill:#FFFFFF;}
	.st4{fill:#AFE762;}
</style>
<path class="st0" d="M70.1,108.2c-0.8-3.2,4.6-10.4,6.7-12.4s-7-8-12.1-12.9s0.2-8.7,11.6-11.9s9.2-8.6,10.6-9.7s-1.7-10.5-4.4-13.5
	S78.4,32.5,79.2,29c0.3-1.3-1.1-4.8-2.9-8.6c-1-0.7-2.1-1.3-3-1.8c-2.9-1.5-5.9,0.6-7.9,2.4c-0.3-0.1-0.5-0.1-0.8-0.2
	c-3.1,2.4-7.7,4.1-11.6,5.7c-0.9,0.5-2,0.3-2.7-0.4c0.5,5.6,0.4,7.5-5.3,6.1c-6.9-1.7-9.4,0.2-8.9,8.4s0,14.6-5.2,16.1
	s-8.7,4.2-5.2,14.4S27.7,88.8,36,90.4c0,0,13.6-1,8.7,7.9S33.7,112.9,56,112.9c4.3,0,7.3,0.1,9.4,0.3
	C68,111.7,70.4,109.8,70.1,108.2z"/>
<path class="st1" d="M49.5,59.9c5.5-6.6,4.5-16.4-2.1-21.9c-1.7-1.4-3.7-2.5-5.9-3c-8.3,2.2-13.2,10.7-11,19c0.6,2.1,1.6,4.1,3,5.8
	l0,0l8.1,10.3L49.5,59.9L49.5,59.9z"/>
<path class="st2" d="M37.5,58.6c-4.6,0-8.4-3.8-8.4-8.4s3.8-8.4,8.4-8.4s8.4,3.8,8.4,8.4c0,0,0,0,0,0C45.8,54.8,42.1,58.6,37.5,58.6
	z M37.5,45.1c-2.8,0-5.2,2.3-5.2,5.1c0,2.8,2.3,5.2,5.1,5.2c2.8,0,5.2-2.3,5.2-5.1c0,0,0,0,0,0C42.6,47.4,40.3,45.1,37.5,45.1z"/>
<path class="st3" d="M37.5,42.3c4.4,0,7.9,3.5,7.9,7.9c0,4.4-3.5,7.9-7.9,7.9s-7.9-3.5-7.9-7.9c0,0,0,0,0,0
	C29.6,45.9,33.1,42.3,37.5,42.3 M37.5,55.9c3.1,0,5.7-2.5,5.7-5.7c0-3.1-2.5-5.6-5.7-5.6c-3.1,0-5.6,2.5-5.6,5.6
	C31.8,53.3,34.4,55.9,37.5,55.9 M37.5,41.3c-4.9,0-8.9,4-8.9,8.9s4,8.9,8.9,8.9c4.9,0,8.9-4,8.9-8.9c0,0,0,0,0,0
	C46.4,45.3,42.4,41.3,37.5,41.3z M37.5,54.9c-2.6,0-4.7-2.1-4.7-4.7s2.1-4.7,4.7-4.7s4.7,2.1,4.7,4.7l0,0
	C42.1,52.8,40.1,54.9,37.5,54.9z"/>
<path class="st2" d="M37.5,76.8c-0.5,0-1-0.2-1.3-0.6L24.1,60.7c-6-7.4-4.8-18.2,2.6-24.1c7.4-6,18.2-4.8,24.1,2.6
	c5.1,6.3,5.1,15.3,0,21.6l0,0l0,0l-0.1,0.1l-12,15.4C38.5,76.6,38,76.8,37.5,76.8z M37.5,36c-7.7,0-13.9,6.2-13.9,13.9
	c0,3.2,1.1,6.3,3.1,8.8l10.8,13.9L48.1,59l0,0c0-0.1,0.1-0.1,0.1-0.1c4.9-5.9,4.1-14.7-1.8-19.6C43.9,37.1,40.7,36,37.5,36L37.5,36z
	"/>
<path class="st3" d="M37.5,33.3c9.2,0,16.7,7.5,16.7,16.7c0,3.8-1.3,7.5-3.7,10.5l0,0l0,0l0,0l-12,15.4c-0.4,0.5-1.1,0.6-1.6,0.2
	c-0.1-0.1-0.1-0.1-0.2-0.2L24.5,60.5l0,0l0,0C18.8,53.3,19.9,42.8,27,37C30,34.6,33.7,33.3,37.5,33.3 M37.5,73.5l0.8-1l10.2-13.1
	l0,0l0,0l0.1-0.1c5.1-6.1,4.2-15.2-1.9-20.3s-15.2-4.2-20.3,1.9c-4.4,5.3-4.4,13-0.1,18.3l0,0l0,0l0,0l10.5,13.3L37.5,73.5
	 M37.5,32.3c-9.8,0-17.7,7.9-17.6,17.7c0,4,1.4,7.9,3.9,11.1l0,0l12.1,15.5c0.4,0.5,1,0.8,1.7,0.8l0,0c0.6,0,1.3-0.3,1.7-0.8
	l12-15.4l0.1-0.1c6.1-7.6,4.9-18.7-2.7-24.8C45.4,33.7,41.5,32.3,37.5,32.3z M37.5,71.8L27.1,58.5l-0.1-0.1
	c-4.7-5.8-3.8-14.2,2-18.9s14.2-3.8,18.9,2c4,5,4,12.1-0.1,17c-0.1,0.1-0.1,0.1-0.1,0.2L37.5,71.8z"/>
<path class="st2" d="M54.2,114.4c-2.5,0-3.9-0.2-4.6-1.5c-0.2-0.4-0.6-0.7-1-0.8c-1.3-0.3-4.5-0.7-12.2-0.7
	c-10.5,0-15.4-1.2-17.1-4.2s0.4-6.4,2.7-10.4c0.5-0.8,1-1.7,1.5-2.6c0.6-1.1,1.2-2.6,0.6-3.5c-0.9-1.5-4.5-1.9-6.5-1.9
	c-0.4,0-0.8,0-1.1,0h-0.2h-0.2C9,87.4,7.8,82.2,6.4,76c-0.5-2.6-1.2-5.1-2-7.6c-1.8-5.3-2-9.1-0.5-11.8s4.5-4,6.9-4.7
	c0.8-0.2,1.6-1.4,3-4l0.1-0.2c0.2-0.3,0.5-0.5,0.9-0.5l1.4-0.1h0c0.4,0,0.7,0.2,0.9,0.5c0.2,0.3,0.2,0.7,0,1
	c-3.2,5.5-4.9,6.4-5.4,6.6c-2.6,0.8-4,1.7-4.8,3c-1,1.9-0.7,4.8,0.7,9.1c0.9,2.6,1.6,5.3,2.1,8c1.4,6.1,2.2,9.1,6.5,10.1
	c0.1,0,0.2,0,0.4,0h0.1c0.3,0,0.7,0,1,0c6.2,0,8.5,2.2,9.4,3.5s1.4,3.6-0.5,7.1c-0.5,0.9-1,1.8-1.5,2.7l0,0
	c-2.3,3.9-3.3,5.9-2.7,6.9c0.9,1.6,5.9,2.4,14.1,2.4c6.4,0,10.5,0.2,12.8,0.7c1.2,0.1,2.2,0.7,3,1.6c0.3,0.4,0.7,0.6,1.2,0.7h0.8
	c2.9,0,5.9-0.4,8.8-1c1.3-0.2,2.6-0.5,3.8-0.6c0.5-0.1,1-0.4,1.2-0.8c0.2-0.3,0.2-0.7,0.2-1c0-1.7,0.4-3.3,1.2-4.8
	c0.7-1.2,1.5-2.2,2.1-3.1c1.2-1.7,2.2-3.1,2.3-4.2s-0.8-2.6-2.9-4.3l-2.3-1.9c-4.7-3.8-9.2-7.4-8.6-11.5c0.3-2.4,2.3-4.3,6-5.9
	c2.7-1.2,5.2-2.1,7.5-2.9c7.4-2.7,10.7-4,10.3-8.5C83.4,56.8,82,54,80.5,51c-1.4-2.4-2.4-5-3.1-7.6l3.1-2.3c0.3,3,1.5,5.5,3,8.4
	s3.2,6.3,3.6,10.5c0.4,3.1-0.9,6.2-3.5,8c-2.2,1.7-5.4,2.8-9.1,4.1c-2.2,0.8-4.7,1.7-7.3,2.8c-2.4,1-3.8,2.2-3.9,3.2
	c-0.1,0.8,0.5,2,1.8,3.5c1.7,1.7,3.6,3.4,5.5,4.9l0,0c0.8,0.6,1.6,1.2,2.3,1.9c6.7,5.6,4,9.3,1.2,13.2c-0.7,0.9-1.3,1.8-2,2.9
	c-1.5,2.4-0.4,4.2,0.7,5.7c0.6,0.8,1.1,1.7,0.3,2.7c-0.3,0.4-0.8,0.7-1.4,0.7l0,0c-0.6,0-1.2-0.2-1.7-0.4c-0.6-0.2-1.3-0.3-1.9-0.3
	c-1.5,0.1-3.1,0.3-4.6,0.6C60.5,113.9,57.4,114.3,54.2,114.4z"/>
<path class="st3" d="M80,42.4c0.6,2.6,1.6,5.1,2.9,7.4c1.4,2.9,3.1,6.2,3.5,10.3c0.4,2.9-0.8,5.7-3.2,7.3c-2.2,1.6-5.3,2.7-8.9,4
	c-2.2,0.8-4.7,1.7-7.3,2.8s-4.2,2.4-4.4,3.8c-0.2,1.1,0.5,2.4,2,4.1c1.7,1.8,3.6,3.4,5.6,4.9l0,0c0.8,0.6,1.5,1.2,2.3,1.9
	c4.2,3.5,4,5.9,3.9,6.7c-0.2,1.9-1.5,3.8-2.8,5.5c-0.7,0.9-1.3,1.9-2,2.9c-1.8,3-0.2,5.3,0.7,6.5c0.7,1,0.7,1.4,0.3,1.8
	c-0.2,0.3-0.5,0.4-0.8,0.4c-0.5,0-1-0.2-1.5-0.4c-0.7-0.3-1.5-0.4-2.2-0.4c-1.6,0.1-3.2,0.3-4.7,0.6c-3,0.6-6.1,1-9.3,1
	c-2.5,0-3.5-0.3-4-1.1c-0.3-0.6-0.9-1-1.5-1.2c-2-0.4-6.2-0.7-12.3-0.7c-10.2,0-14.9-1.1-16.5-3.8c-1.4-2.4,0.1-5.2,2.7-9.6
	c0.5-0.8,1-1.7,1.5-2.7c1-1.8,1.2-3.3,0.6-4.3c-1.3-2.1-6.2-2.2-7.1-2.2c-0.4,0-0.8,0-1.2,0h-0.1h-0.1c-2.7-0.4-5.1-1.9-6.5-4.3
	c-1.3-2.2-2-5-2.6-8c-0.5-2.6-1.2-5.2-2-7.7c-1.8-5-1.9-8.6-0.6-11.2c0.7-1.4,2.1-3.1,6.4-4.4c1-0.3,1.8-1.4,3.4-4.3l0.1-0.2
	c0.1-0.1,0.1-0.2,0.3-0.2l1.4-0.1l0,0c0.2,0,0.3,0.1,0.3,0.3c0,0,0,0.1,0,0.1c-3.4,5.6-4.8,6.2-5,6.2c-2.8,0.8-4.4,1.8-5.2,3.4
	c-1.1,2-0.8,5.2,0.7,9.7c0.9,2.6,1.6,5.2,2.1,7.9c1.3,5.7,2.1,9.5,7.1,10.7c0.2,0,0.3,0.1,0.5,0.1h0.1c0.3,0,0.6,0,1,0
	c2,0,6.9,0.3,8.7,3.1c1,1.6,0.9,3.8-0.5,6.3c-0.5,0.9-1,1.8-1.5,2.7l0,0c-2.6,4.5-3.5,6.3-2.7,7.6c0.5,0.8,1.5,1.4,3.3,1.8
	c3.8,0.7,7.6,1.1,11.4,0.9c6.3,0,10.4,0.2,12.6,0.7c1.7,0.4,2.3,0.9,2.5,1.3c0.4,0.6,1.1,1,1.8,1h0.9c3,0,6-0.4,8.9-1
	c1.3-0.2,2.5-0.5,3.7-0.6c0.8-0.1,1.4-0.5,1.8-1.2c0.3-0.5,0.4-1,0.3-1.5c0-1.5,0.4-3,1.1-4.3c0.7-1.1,1.4-2.2,2.1-3.1
	c1.3-1.8,2.3-3.2,2.4-4.6s-0.9-3-3.2-4.9c-0.7-0.6-1.5-1.2-2.3-1.9c-4.5-3.7-8.8-7.1-8.3-10.8c0.3-2.1,2.1-3.8,5.5-5.3
	c2.7-1.1,5.2-2,7.4-2.8c7-2.5,11.3-4,10.8-9.3c-0.3-3.7-1.8-6.5-3.3-9.6c-1.2-2.2-2.2-4.6-2.9-7L80,42.4 M81.2,39.6
	c-1.7,1.2-3.3,2.5-4.6,3.5c0.7,2.9,1.7,5.7,3.2,8.3c1.5,2.9,2.9,5.6,3.2,9c0.3,3.8-2.1,5-9.8,7.7c-2.3,0.8-4.8,1.7-7.5,2.9
	c-4,1.7-6,3.8-6.4,6.5c-0.6,4.5,4,8.2,8.9,12.2c0.8,0.6,1.5,1.2,2.3,1.8c1.8,1.5,2.7,2.8,2.7,3.7s-1,2.3-2.2,3.8
	c-0.7,0.9-1.4,2-2.2,3.2c-0.9,1.7-1.3,3.5-1.3,5.4c0.1,0.3-0.3,0.9-0.8,0.9c-1.2,0.1-2.5,0.4-3.8,0.6c-2.8,0.6-5.7,0.9-8.6,1h-0.8
	c-0.3,0-0.5-0.1-0.6-0.3c-0.9-1-2.1-1.7-3.4-1.9c-2.4-0.5-6.5-0.7-12.9-0.7c-11.7,0-13.3-1.7-13.5-2c-0.5-0.8,1.4-4,2.7-6.2
	c0.5-0.9,1-1.8,1.6-2.7c2.1-3.8,1.4-6.3,0.5-7.8c-2.1-3.3-7.3-3.8-10-3.8h-1l0,0c-0.1,0-0.1,0-0.2,0c-3.9-0.9-4.6-3.5-6-9.5
	c-0.6-2.7-1.3-5.4-2.1-8c-1.4-4.2-1.7-7-0.8-8.7c0.6-1.2,1.9-1.9,4.3-2.6c1.8-0.5,4.2-4.1,5.8-6.9c0.5-0.9,0.2-1.9-0.6-2.5
	c-0.3-0.2-0.6-0.2-0.9-0.2h-0.1l-1.4,0.1c-0.6,0-1.2,0.4-1.5,0.9c-0.8,1.4-2,3.7-2.7,3.8c-2.6,0.7-5.7,2-7.3,5.1
	c-1.6,3-1.4,6.9,0.5,12.4c0.8,2.5,1.5,5,2,7.5C7,82.3,8.3,88.1,15.9,89.6h0.2h0.2h0.3c0.4,0,0.7,0,1.1,0c2.5,0,5.3,0.6,5.9,1.5
	c0.3,0.5,0.1,1.5-0.6,2.8c-0.5,0.9-1,1.8-1.5,2.6c-2.5,4.2-4.6,7.8-2.7,11.1s6.9,4.5,17.8,4.5c7.7,0,10.8,0.4,12,0.6
	c0.2,0.1,0.4,0.2,0.5,0.4c1,1.8,3,1.9,5.3,1.9c3.2-0.1,6.4-0.4,9.5-1.1c1.5-0.3,3-0.5,4.5-0.6c0.6,0,1.1,0.1,1.7,0.3
	c0.6,0.3,1.3,0.5,2,0.5c0.8,0,1.5-0.3,2-1c0.8-1.1,0.7-2.6-0.3-3.6c-1-1.4-1.8-2.8-0.6-4.8c0.6-1,1.3-2,1.9-2.8
	c2.7-3.8,5.9-8.1-1.4-14.2c-0.8-0.6-1.6-1.3-2.3-1.9c-1.9-1.5-3.8-3.1-5.5-4.8c-1.6-1.7-1.7-2.6-1.6-2.9c0.1-0.6,1-1.6,3.5-2.6
	s5-2,7.2-2.8c3.7-1.3,6.9-2.5,9.2-4.2c2.8-1.9,4.3-5.3,3.8-8.7c-0.4-4.4-2.2-7.8-3.7-10.8s-2.9-5.6-3-8.8
	C81.2,40,81.2,39.8,81.2,39.6L81.2,39.6z"/>
<path class="st2" d="M17,35.6c-0.1,0-0.3,0-0.4-0.1l-1.2-0.4c-0.5-0.2-0.8-0.7-0.7-1.2c0.5-2.9,1.4-5.1,2.3-5.9
	c1.2-1,2.8-1.5,4.3-1.4c1.5,0,2.9,0.3,4.3,0.6c0.6,0.2,1.1,0.3,1.6,0.3h0.2c0.9,0,1.6-0.7,1.6-1.6c0-1.1-0.2-2.7-0.3-4.2l0,0
	C28.7,21,28.6,20,28.5,19c-0.2-2.5,0.1-5.9,2.7-7.4c0.8-0.4,1.8-0.7,2.7-0.7c3.5,0,7.4,2.7,8.5,3.5c1.3,1,2.9,1.6,4.5,1.8
	c1.4,0.3,2.8,0.5,3.7,1.9c0.5,0.8,0.7,1.9,0.5,2.9c0,0.3-0.1,0.5-0.2,0.8c-0.2,0.7-0.3,1.2,0,1.6c0.2,0.2,0.4,0.3,0.7,0.3
	c0.4,0,0.8-0.2,1.7-1l0.7-0.3l0.4,3.5c-1.4,0.6-2.8,0.9-4.3,1c-0.8,0-1.6-0.3-2.2-0.8c-0.9-0.9-1.2-2.2-0.7-4
	c0.1-0.2,0.1-0.4,0.1-0.5c0.2-0.9-0.4-1.7-1.2-1.9c0,0,0,0,0,0c-2.1-0.3-4.2-1.1-5.9-2.4c-2.8-2.1-5.1-2.8-6.4-2.8
	c-0.3,0-0.7,0.1-1,0.2c-1.1,0.6-1.1,2.8-1,4c0.1,1,0.2,1.9,0.3,2.8c0.4,4.3,0.7,7.1-1.1,8.7c-0.8,0.7-1.9,1-3,1
	c-1.1,0-2.2-0.2-3.3-0.5c-1.1-0.3-2.3-0.5-3.5-0.5c-0.7-0.1-1.5,0.1-2.1,0.6c-0.7,0.5-1,2.4-1.2,3.9C18,35.2,17.5,35.6,17,35.6
	L17,35.6z"/>
<path class="st3" d="M33.9,11.7L33.9,11.7c3.3,0,7,2.6,8,3.4c1.4,1,3.1,1.7,4.8,1.9c1.6,0.3,2.6,0.5,3.2,1.5
	c0.4,0.7,0.6,1.5,0.4,2.3c0,0.2-0.1,0.5-0.2,0.7c-0.3,0.7-0.3,1.6,0.1,2.3c0.3,0.4,0.8,0.6,1.3,0.6c0.7-0.1,1.4-0.4,1.8-0.9l0.2,1.9
	c-1.1,0.4-2.3,0.7-3.5,0.8c-0.6,0-1.2-0.2-1.7-0.6c-0.3-0.2-1.1-1-0.5-3.3c0-0.2,0.1-0.4,0.1-0.6c0.1-0.6,0-1.3-0.3-1.8
	c-0.3-0.5-0.9-0.9-1.5-1c-2-0.3-4-1.1-5.6-2.3c-2.5-1.9-5-3-6.8-3c-0.5,0-1,0.1-1.4,0.3c-1.4,0.8-1.5,3-1.3,4.7c0.1,1,0.2,2,0.3,2.8
	l0,0c0.5,4.6,0.6,6.8-0.9,8.1c-0.7,0.5-1.6,0.8-2.5,0.8c-1.1,0-2.1-0.1-3.1-0.4c-1.2-0.3-2.4-0.5-3.7-0.5c-0.9-0.1-1.8,0.2-2.6,0.7
	c-1,0.8-1.3,3.1-1.5,4.4c0,0.2-0.2,0.3-0.4,0.3h-0.1l-1.2-0.4c-0.1-0.1-0.2-0.2-0.2-0.4c0.6-3.2,1.4-4.9,2.1-5.4
	c1.1-0.9,2.5-1.3,3.9-1.2c1.4,0,2.8,0.2,4.1,0.6c0.5,0.1,1.1,0.3,1.7,0.3c0.1,0,0.2,0,0.3,0c0.6,0,1.2-0.2,1.6-0.7
	c0.4-0.4,0.7-1,0.7-1.7c0-1.1-0.2-2.7-0.3-4.2l0,0C29.4,21,29.3,20,29.2,19c-0.4-4.2,1.1-5.9,2.3-6.6C32.3,12,33.1,11.8,33.9,11.7
	 M33.9,10.3c-1.1,0-2.1,0.2-3.1,0.8c-3,1.7-3.3,5.3-3.1,8.1c0.1,1,0.2,2,0.3,2.9c0.1,1.5,0.3,3,0.3,4.1c0,0.5-0.4,0.8-0.8,0.8h-0.1
	c-0.5-0.1-1-0.2-1.5-0.3c-1.5-0.4-3-0.6-4.5-0.6c-1.7-0.1-3.4,0.5-4.8,1.5c-1.3,1.1-2.1,3.9-2.6,6.3c-0.1,0.9,0.3,1.7,1.1,2l1.2,0.4
	c1,0.3,2-0.2,2.4-1.1c0.1-0.1,0.1-0.3,0.1-0.4c0.2-2,0.6-3.2,0.9-3.4c0.5-0.3,1.1-0.5,1.6-0.4c1.1,0,2.2,0.2,3.3,0.5
	c1.1,0.3,2.3,0.5,3.5,0.5c1.2,0.1,2.5-0.3,3.4-1.1c2.1-1.9,1.8-4.9,1.4-9.4c-0.1-0.9-0.2-1.8-0.3-2.8c-0.2-2,0.2-3.1,0.6-3.3
	c0.2-0.1,0.4-0.1,0.7-0.1c1.2,0,3.3,0.7,6,2.7c1.8,1.3,4,2.2,6.2,2.5c0.5,0.1,0.8,0.5,0.7,1c0,0,0,0,0,0c0,0.2-0.1,0.3-0.1,0.5
	c-0.6,2.1-0.3,3.7,0.9,4.8c0.7,0.7,1.7,1,2.7,1c1.8-0.1,3.5-0.6,5.1-1.2l-0.6-5c-0.6,0.2-1.2,0.4-1.7,0.6c-0.8,0.7-1.2,0.9-1.3,0.9
	c-0.4,0,0.1-1,0.2-1.8c0.3-1.2,0-2.4-0.6-3.4c-1-1.6-2.7-1.9-4.2-2.2c-1.5-0.2-3-0.8-4.2-1.6C41.6,13,37.7,10.3,33.9,10.3L33.9,10.3
	z"/>
<path class="st1" d="M74.4,89c5.5-6.6,4.5-16.4-2.1-21.9c-1.7-1.4-3.7-2.4-5.9-3c-8.3,2.2-13.2,10.7-11,19c0.6,2.1,1.6,4.1,3,5.8
	l0,0l8.1,10.3L74.4,89L74.4,89z"/>
<path class="st2" d="M62.4,87.7c-4.6,0-8.4-3.8-8.4-8.4c0-4.6,3.8-8.4,8.4-8.4s8.4,3.8,8.4,8.4l0,0C70.8,83.9,67.1,87.7,62.4,87.7z
	 M62.4,74.2c-2.8,0-5.1,2.3-5.1,5.2c0,2.8,2.3,5.1,5.2,5.1c2.8,0,5.1-2.3,5.1-5.1C67.6,76.5,65.3,74.2,62.4,74.2z"/>
<path class="st3" d="M62.4,71.4c4.4,0,7.9,3.5,7.9,7.9c0,4.4-3.5,7.9-7.9,7.9s-7.9-3.5-7.9-7.9l0,0C54.6,75,58.1,71.4,62.4,71.4
	 M62.4,85c3.1,0,5.7-2.5,5.7-5.6c0-3.1-2.5-5.7-5.6-5.7c-3.1,0-5.7,2.5-5.7,5.6c0,0,0,0,0,0C56.8,82.4,59.3,85,62.4,85
	C62.4,85,62.4,85,62.4,85 M62.4,70.5c-4.9,0-8.9,4-8.9,8.9c0,4.9,4,8.9,8.9,8.9c4.9,0,8.9-4,8.9-8.9C71.3,74.4,67.3,70.5,62.4,70.5z
	 M62.4,84c-2.6,0-4.7-2.1-4.7-4.7s2.1-4.7,4.7-4.7c2.6,0,4.6,2.1,4.7,4.6C67.1,81.9,65.1,84,62.4,84C62.5,84,62.5,84,62.4,84
	L62.4,84z"/>
<path class="st2" d="M62.4,105.9c-0.5,0-1-0.2-1.3-0.6L49.1,89.8c-5.9-7.4-4.8-18.2,2.6-24.1s18.2-4.8,24.1,2.6
	c5.1,6.3,5.1,15.2,0,21.5l0,0l0,0v0.1l-12,15.4C63.5,105.7,63,106,62.4,105.9z M62.4,65.1c-7.7,0-13.9,6.3-13.9,14
	c0,3.2,1.1,6.3,3.1,8.8l10.8,13.9l10.6-13.6l0,0l0.1-0.1c4.9-5.9,4.1-14.7-1.8-19.6C68.8,66.2,65.7,65.1,62.4,65.1z"/>
<path class="st3" d="M62.4,62.4c9.2,0,16.7,7.4,16.7,16.6c0,3.8-1.3,7.5-3.7,10.5l0,0l0,0l0,0L63.3,105c-0.2,0.3-0.5,0.4-0.9,0.4
	c-0.3,0-0.7-0.2-0.9-0.4l-12-15.4l0,0l0,0c-5.8-7.2-4.7-17.6,2.5-23.4C55,63.7,58.7,62.4,62.4,62.4 M62.5,102.5l0.8-1l10.2-13.1l0,0
	l0,0l0.1-0.1c5.1-6.2,4.2-15.2-2-20.3c-6.2-5.1-15.2-4.2-20.3,2c-4.4,5.3-4.4,13-0.1,18.3l0,0l0,0l10.4,13.3l0.8,1 M62.3,61.4
	c-9.8,0.1-17.6,8-17.6,17.8c0,4,1.4,7.9,3.9,11l0,0l12,15.5c0.4,0.5,1,0.8,1.7,0.8l0,0c0.6,0,1.3-0.3,1.7-0.8l12-15.4
	c0,0,0-0.1,0.1-0.1c6.1-7.6,4.9-18.7-2.7-24.8C70.4,62.8,66.5,61.4,62.3,61.4L62.3,61.4z M62.3,100.9L52.1,87.6L52,87.5
	c-4.7-5.8-3.8-14.2,1.9-18.9s14.2-3.8,18.9,1.9c4.1,5,4,12.1-0.1,17.1l-0.1,0.2l-10.2,13.1H62.3z"/>
<path class="st4" d="M83,35.2c5.5-6.6,4.5-16.4-2.1-21.9c-1.7-1.4-3.7-2.4-5.9-3c-8.3,2.2-13.2,10.7-11,19c0.6,2.1,1.6,4.1,3,5.8
	l0,0L75,45.4L83,35.2z"/>
<path class="st2" d="M71,33.9c-4.6,0-8.4-3.7-8.4-8.4s3.7-8.4,8.4-8.4s8.4,3.7,8.4,8.4c0,0,0,0,0,0C79.4,30.2,75.6,33.9,71,33.9z
	 M71,20.4c-2.8,0-5.2,2.3-5.2,5.2c0,2.8,2.3,5.2,5.2,5.2c2.8,0,5.2-2.3,5.2-5.2c0,0,0,0,0,0C76.1,22.7,73.8,20.4,71,20.4z"/>
<path class="st3" d="M71,17.7c4.4,0,7.9,3.5,7.9,7.9c0,4.4-3.5,7.9-7.9,7.9c-4.4,0-7.9-3.5-7.9-7.9c0,0,0,0,0,0
	C63.1,21.2,66.6,17.7,71,17.7 M71,31.2c3.1,0,5.7-2.5,5.7-5.7s-2.5-5.6-5.7-5.6c-3.1,0-5.7,2.5-5.7,5.6S67.9,31.2,71,31.2L71,31.2
	 M71,16.7c-4.9,0-8.9,4-8.9,8.9c0,4.9,4,8.9,8.9,8.9c4.9,0,8.9-4,8.9-8.9c0,0,0,0,0,0C79.9,20.6,75.9,16.7,71,16.7z M71,30.2
	c-2.6,0-4.7-2.1-4.7-4.6c0-2.6,2.1-4.7,4.6-4.7s4.7,2.1,4.7,4.6c0,0,0,0,0,0C75.7,28.1,73.6,30.2,71,30.2z"/>
<path class="st2" d="M71,52.2c-0.5,0-1-0.2-1.3-0.6L57.6,36.1c-5.9-7.4-4.8-18.2,2.6-24.1s18.2-4.8,24.1,2.6
	c5.1,6.3,5.1,15.2,0,21.5l0,0l0,0v0.1l-12,15.4C72,52,71.5,52.2,71,52.2z M71,11.4c-7.7,0-13.9,6.2-14,13.9c0,3.2,1.1,6.3,3.1,8.8
	c0,0,0,0,0,0.1L71,48l10.6-13.7l0,0c0-0.1,0.1-0.1,0.1-0.1c4.9-5.9,4.1-14.7-1.9-19.6C77.4,12.5,74.2,11.4,71,11.4z"/>
<path class="st3" d="M71,8.6c9.2,0,16.7,7.4,16.7,16.6c0,3.8-1.3,7.5-3.7,10.5l0,0l0,0c0,0,0,0,0,0L72,51.2
	c-0.4,0.5-1.1,0.6-1.6,0.2c-0.1-0.1-0.1-0.1-0.2-0.2L58,35.8l0,0l0,0c-5.8-7.2-4.7-17.6,2.4-23.4C63.5,9.9,67.2,8.6,71,8.6 M71,48.8
	l0.8-1L82,34.7l0,0l0,0c0,0,0-0.1,0.1-0.1c5.1-6.1,4.2-15.2-1.9-20.3S64.9,10,59.8,16.2c-4.4,5.3-4.4,13-0.1,18.3l0,0l0,0l10.5,13.3
	L71,48.8 M71,7.6c-9.8,0-17.7,7.9-17.7,17.7c0,4,1.4,8,3.9,11.1l0,0l12,15.5c0.4,0.5,1,0.8,1.7,0.8l0,0c0.6,0,1.3-0.3,1.7-0.8
	l12-15.4l0.1-0.1c6.1-7.6,4.9-18.7-2.7-24.8C78.9,9,75,7.7,71,7.6z M71,47.1L60.6,33.9l-0.1-0.1c-4.7-5.8-3.8-14.2,1.9-18.9
	s14.2-3.8,18.9,1.9c4.1,5,4,12.1-0.1,17.1c0,0.1-0.1,0.1-0.1,0.2L71,47.1z"/>
</svg>
